G04 #@! TF.FileFunction,Copper,L2,Bot,Signal*
%FSLAX46Y46*%
G04 Gerber Fmt 4.6, Leading zero omitted, Abs format (unit mm)*
G04 Created by KiCad (PCBNEW 4.0.7) date 08/18/19 22:54:49*
%MOMM*%
%LPD*%
G01*
G04 APERTURE LIST*
%ADD10C,0.100000*%
%ADD11C,0.300000*%
%ADD12C,1.524000*%
G04 APERTURE END LIST*
D10*
D11*
X137409999Y-174033571D02*
X137909999Y-173319286D01*
X138267142Y-174033571D02*
X138267142Y-172533571D01*
X137695714Y-172533571D01*
X137552856Y-172605000D01*
X137481428Y-172676429D01*
X137409999Y-172819286D01*
X137409999Y-173033571D01*
X137481428Y-173176429D01*
X137552856Y-173247857D01*
X137695714Y-173319286D01*
X138267142Y-173319286D01*
X135981428Y-174033571D02*
X136838571Y-174033571D01*
X136409999Y-174033571D02*
X136409999Y-172533571D01*
X136552856Y-172747857D01*
X136695714Y-172890714D01*
X136838571Y-172962143D01*
X70099999Y-48303571D02*
X70599999Y-47589286D01*
X70957142Y-48303571D02*
X70957142Y-46803571D01*
X70385714Y-46803571D01*
X70242856Y-46875000D01*
X70171428Y-46946429D01*
X70099999Y-47089286D01*
X70099999Y-47303571D01*
X70171428Y-47446429D01*
X70242856Y-47517857D01*
X70385714Y-47589286D01*
X70957142Y-47589286D01*
X68671428Y-48303571D02*
X69528571Y-48303571D01*
X69099999Y-48303571D02*
X69099999Y-46803571D01*
X69242856Y-47017857D01*
X69385714Y-47160714D01*
X69528571Y-47232143D01*
X82541428Y-48303571D02*
X82541428Y-46803571D01*
X81970000Y-46803571D01*
X81827142Y-46875000D01*
X81755714Y-46946429D01*
X81684285Y-47089286D01*
X81684285Y-47303571D01*
X81755714Y-47446429D01*
X81827142Y-47517857D01*
X81970000Y-47589286D01*
X82541428Y-47589286D01*
X80541428Y-47517857D02*
X80327142Y-47589286D01*
X80255714Y-47660714D01*
X80184285Y-47803571D01*
X80184285Y-48017857D01*
X80255714Y-48160714D01*
X80327142Y-48232143D01*
X80470000Y-48303571D01*
X81041428Y-48303571D01*
X81041428Y-46803571D01*
X80541428Y-46803571D01*
X80398571Y-46875000D01*
X80327142Y-46946429D01*
X80255714Y-47089286D01*
X80255714Y-47232143D01*
X80327142Y-47375000D01*
X80398571Y-47446429D01*
X80541428Y-47517857D01*
X81041428Y-47517857D01*
X79541428Y-47732143D02*
X78398571Y-47732143D01*
X76969999Y-46803571D02*
X77684285Y-46803571D01*
X77755714Y-47517857D01*
X77684285Y-47446429D01*
X77541428Y-47375000D01*
X77184285Y-47375000D01*
X77041428Y-47446429D01*
X76969999Y-47517857D01*
X76898571Y-47660714D01*
X76898571Y-48017857D01*
X76969999Y-48160714D01*
X77041428Y-48232143D01*
X77184285Y-48303571D01*
X77541428Y-48303571D01*
X77684285Y-48232143D01*
X77755714Y-48160714D01*
X76255714Y-47732143D02*
X75112857Y-47732143D01*
X74470000Y-46946429D02*
X74398571Y-46875000D01*
X74255714Y-46803571D01*
X73898571Y-46803571D01*
X73755714Y-46875000D01*
X73684285Y-46946429D01*
X73612857Y-47089286D01*
X73612857Y-47232143D01*
X73684285Y-47446429D01*
X74541428Y-48303571D01*
X73612857Y-48303571D01*
X73041429Y-47875000D02*
X72327143Y-47875000D01*
X73184286Y-48303571D02*
X72684286Y-46803571D01*
X72184286Y-48303571D01*
X149851428Y-174033571D02*
X149851428Y-172533571D01*
X149280000Y-172533571D01*
X149137142Y-172605000D01*
X149065714Y-172676429D01*
X148994285Y-172819286D01*
X148994285Y-173033571D01*
X149065714Y-173176429D01*
X149137142Y-173247857D01*
X149280000Y-173319286D01*
X149851428Y-173319286D01*
X147851428Y-173247857D02*
X147637142Y-173319286D01*
X147565714Y-173390714D01*
X147494285Y-173533571D01*
X147494285Y-173747857D01*
X147565714Y-173890714D01*
X147637142Y-173962143D01*
X147780000Y-174033571D01*
X148351428Y-174033571D01*
X148351428Y-172533571D01*
X147851428Y-172533571D01*
X147708571Y-172605000D01*
X147637142Y-172676429D01*
X147565714Y-172819286D01*
X147565714Y-172962143D01*
X147637142Y-173105000D01*
X147708571Y-173176429D01*
X147851428Y-173247857D01*
X148351428Y-173247857D01*
X146851428Y-173462143D02*
X145708571Y-173462143D01*
X144279999Y-172533571D02*
X144994285Y-172533571D01*
X145065714Y-173247857D01*
X144994285Y-173176429D01*
X144851428Y-173105000D01*
X144494285Y-173105000D01*
X144351428Y-173176429D01*
X144279999Y-173247857D01*
X144208571Y-173390714D01*
X144208571Y-173747857D01*
X144279999Y-173890714D01*
X144351428Y-173962143D01*
X144494285Y-174033571D01*
X144851428Y-174033571D01*
X144994285Y-173962143D01*
X145065714Y-173890714D01*
X143565714Y-173462143D02*
X142422857Y-173462143D01*
X141780000Y-172676429D02*
X141708571Y-172605000D01*
X141565714Y-172533571D01*
X141208571Y-172533571D01*
X141065714Y-172605000D01*
X140994285Y-172676429D01*
X140922857Y-172819286D01*
X140922857Y-172962143D01*
X140994285Y-173176429D01*
X141851428Y-174033571D01*
X140922857Y-174033571D01*
X140351429Y-173605000D02*
X139637143Y-173605000D01*
X140494286Y-174033571D02*
X139994286Y-172533571D01*
X139494286Y-174033571D01*
D12*
X73660000Y-78740000D03*
X76200000Y-78740000D03*
X78740000Y-78740000D03*
X81280000Y-78740000D03*
X83820000Y-78740000D03*
X73660000Y-76200000D03*
X76200000Y-76200000D03*
X78740000Y-76200000D03*
X81280000Y-76200000D03*
X83820000Y-76200000D03*
X73660000Y-81280000D03*
X76200000Y-81280000D03*
X78740000Y-81280000D03*
X81280000Y-81280000D03*
X83820000Y-81280000D03*
X73660000Y-86360000D03*
X76200000Y-86360000D03*
X78740000Y-86360000D03*
X81280000Y-86360000D03*
X83820000Y-86360000D03*
X73660000Y-83820000D03*
X76200000Y-83820000D03*
X78740000Y-83820000D03*
X81280000Y-83820000D03*
X83820000Y-83820000D03*
X68580000Y-86360000D03*
X68580000Y-83820000D03*
X68580000Y-81280000D03*
X68580000Y-78740000D03*
X68580000Y-76200000D03*
X71120000Y-86360000D03*
X71120000Y-83820000D03*
X71120000Y-81280000D03*
X71120000Y-78740000D03*
X71120000Y-76200000D03*
X73660000Y-58420000D03*
X76200000Y-58420000D03*
X78740000Y-58420000D03*
X81280000Y-58420000D03*
X83820000Y-58420000D03*
X73660000Y-55880000D03*
X76200000Y-55880000D03*
X78740000Y-55880000D03*
X81280000Y-55880000D03*
X83820000Y-55880000D03*
X73660000Y-53340000D03*
X76200000Y-53340000D03*
X78740000Y-53340000D03*
X81280000Y-53340000D03*
X83820000Y-53340000D03*
X68580000Y-60960000D03*
X68580000Y-58420000D03*
X68580000Y-55880000D03*
X68580000Y-53340000D03*
X68580000Y-50800000D03*
X71120000Y-60960000D03*
X71120000Y-58420000D03*
X71120000Y-55880000D03*
X71120000Y-53340000D03*
X71120000Y-50800000D03*
X73660000Y-60960000D03*
X76200000Y-60960000D03*
X78740000Y-60960000D03*
X81280000Y-60960000D03*
X83820000Y-60960000D03*
X73660000Y-50800000D03*
X76200000Y-50800000D03*
X78740000Y-50800000D03*
X81280000Y-50800000D03*
X83820000Y-50800000D03*
X73660000Y-63500000D03*
X76200000Y-63500000D03*
X78740000Y-63500000D03*
X81280000Y-63500000D03*
X83820000Y-63500000D03*
X73660000Y-68580000D03*
X76200000Y-68580000D03*
X78740000Y-68580000D03*
X81280000Y-68580000D03*
X83820000Y-68580000D03*
X73660000Y-73660000D03*
X76200000Y-73660000D03*
X78740000Y-73660000D03*
X81280000Y-73660000D03*
X83820000Y-73660000D03*
X68580000Y-73660000D03*
X68580000Y-71120000D03*
X68580000Y-68580000D03*
X68580000Y-66040000D03*
X68580000Y-63500000D03*
X73660000Y-66040000D03*
X76200000Y-66040000D03*
X78740000Y-66040000D03*
X81280000Y-66040000D03*
X83820000Y-66040000D03*
X73660000Y-71120000D03*
X76200000Y-71120000D03*
X78740000Y-71120000D03*
X81280000Y-71120000D03*
X83820000Y-71120000D03*
X71120000Y-73660000D03*
X71120000Y-71120000D03*
X71120000Y-68580000D03*
X71120000Y-66040000D03*
X71120000Y-63500000D03*
X86360000Y-86360000D03*
X88900000Y-86360000D03*
X86360000Y-81280000D03*
X88900000Y-81280000D03*
X86360000Y-71120000D03*
X88900000Y-71120000D03*
X86360000Y-83820000D03*
X88900000Y-83820000D03*
X86360000Y-78740000D03*
X88900000Y-78740000D03*
X86360000Y-76200000D03*
X88900000Y-76200000D03*
X68580000Y-124460000D03*
X68580000Y-121920000D03*
X68580000Y-119380000D03*
X68580000Y-116840000D03*
X68580000Y-114300000D03*
X71120000Y-124460000D03*
X71120000Y-121920000D03*
X71120000Y-119380000D03*
X71120000Y-116840000D03*
X71120000Y-114300000D03*
X68580000Y-111760000D03*
X68580000Y-109220000D03*
X68580000Y-106680000D03*
X68580000Y-104140000D03*
X68580000Y-101600000D03*
X71120000Y-111760000D03*
X71120000Y-109220000D03*
X71120000Y-106680000D03*
X71120000Y-104140000D03*
X71120000Y-101600000D03*
X73660000Y-101600000D03*
X76200000Y-101600000D03*
X78740000Y-101600000D03*
X81280000Y-101600000D03*
X83820000Y-101600000D03*
X73660000Y-104140000D03*
X76200000Y-104140000D03*
X78740000Y-104140000D03*
X81280000Y-104140000D03*
X83820000Y-104140000D03*
X73660000Y-109220000D03*
X76200000Y-109220000D03*
X78740000Y-109220000D03*
X81280000Y-109220000D03*
X83820000Y-109220000D03*
X73660000Y-111760000D03*
X76200000Y-111760000D03*
X78740000Y-111760000D03*
X81280000Y-111760000D03*
X83820000Y-111760000D03*
X73660000Y-106680000D03*
X76200000Y-106680000D03*
X78740000Y-106680000D03*
X81280000Y-106680000D03*
X83820000Y-106680000D03*
X73660000Y-96520000D03*
X76200000Y-96520000D03*
X78740000Y-96520000D03*
X81280000Y-96520000D03*
X83820000Y-96520000D03*
X71120000Y-99060000D03*
X71120000Y-96520000D03*
X71120000Y-93980000D03*
X71120000Y-91440000D03*
X71120000Y-88900000D03*
X68580000Y-99060000D03*
X68580000Y-96520000D03*
X68580000Y-93980000D03*
X68580000Y-91440000D03*
X68580000Y-88900000D03*
X73660000Y-99060000D03*
X76200000Y-99060000D03*
X78740000Y-99060000D03*
X81280000Y-99060000D03*
X83820000Y-99060000D03*
X73660000Y-91440000D03*
X76200000Y-91440000D03*
X78740000Y-91440000D03*
X81280000Y-91440000D03*
X83820000Y-91440000D03*
X73660000Y-93980000D03*
X76200000Y-93980000D03*
X78740000Y-93980000D03*
X81280000Y-93980000D03*
X83820000Y-93980000D03*
X73660000Y-88900000D03*
X76200000Y-88900000D03*
X78740000Y-88900000D03*
X81280000Y-88900000D03*
X83820000Y-88900000D03*
X86360000Y-121920000D03*
X88900000Y-121920000D03*
X86360000Y-119380000D03*
X88900000Y-119380000D03*
X86360000Y-116840000D03*
X88900000Y-116840000D03*
X73660000Y-124460000D03*
X76200000Y-124460000D03*
X78740000Y-124460000D03*
X81280000Y-124460000D03*
X83820000Y-124460000D03*
X73660000Y-114300000D03*
X76200000Y-114300000D03*
X78740000Y-114300000D03*
X81280000Y-114300000D03*
X83820000Y-114300000D03*
X73660000Y-121920000D03*
X76200000Y-121920000D03*
X78740000Y-121920000D03*
X81280000Y-121920000D03*
X83820000Y-121920000D03*
X73660000Y-116840000D03*
X76200000Y-116840000D03*
X78740000Y-116840000D03*
X81280000Y-116840000D03*
X83820000Y-116840000D03*
X73660000Y-119380000D03*
X76200000Y-119380000D03*
X78740000Y-119380000D03*
X81280000Y-119380000D03*
X83820000Y-119380000D03*
X91440000Y-88900000D03*
X93980000Y-88900000D03*
X96520000Y-88900000D03*
X99060000Y-88900000D03*
X101600000Y-88900000D03*
X86360000Y-93980000D03*
X88900000Y-93980000D03*
X86360000Y-88900000D03*
X88900000Y-88900000D03*
X86360000Y-91440000D03*
X88900000Y-91440000D03*
X91440000Y-93980000D03*
X93980000Y-93980000D03*
X96520000Y-93980000D03*
X99060000Y-93980000D03*
X101600000Y-93980000D03*
X91440000Y-91440000D03*
X93980000Y-91440000D03*
X96520000Y-91440000D03*
X99060000Y-91440000D03*
X101600000Y-91440000D03*
X91440000Y-96520000D03*
X93980000Y-96520000D03*
X96520000Y-96520000D03*
X99060000Y-96520000D03*
X101600000Y-96520000D03*
X106680000Y-99060000D03*
X106680000Y-96520000D03*
X106680000Y-93980000D03*
X106680000Y-91440000D03*
X106680000Y-88900000D03*
X104140000Y-99060000D03*
X104140000Y-96520000D03*
X104140000Y-93980000D03*
X104140000Y-91440000D03*
X104140000Y-88900000D03*
X91440000Y-99060000D03*
X93980000Y-99060000D03*
X96520000Y-99060000D03*
X99060000Y-99060000D03*
X101600000Y-99060000D03*
X91440000Y-124460000D03*
X93980000Y-124460000D03*
X96520000Y-124460000D03*
X99060000Y-124460000D03*
X101600000Y-124460000D03*
X91440000Y-121920000D03*
X93980000Y-121920000D03*
X96520000Y-121920000D03*
X99060000Y-121920000D03*
X101600000Y-121920000D03*
X91440000Y-116840000D03*
X93980000Y-116840000D03*
X96520000Y-116840000D03*
X99060000Y-116840000D03*
X101600000Y-116840000D03*
X91440000Y-119380000D03*
X93980000Y-119380000D03*
X96520000Y-119380000D03*
X99060000Y-119380000D03*
X101600000Y-119380000D03*
X106680000Y-124460000D03*
X106680000Y-121920000D03*
X106680000Y-119380000D03*
X106680000Y-116840000D03*
X106680000Y-114300000D03*
X104140000Y-124460000D03*
X104140000Y-121920000D03*
X104140000Y-119380000D03*
X104140000Y-116840000D03*
X104140000Y-114300000D03*
X91440000Y-114300000D03*
X93980000Y-114300000D03*
X96520000Y-114300000D03*
X99060000Y-114300000D03*
X101600000Y-114300000D03*
X86360000Y-124460000D03*
X88900000Y-124460000D03*
X86360000Y-99060000D03*
X88900000Y-99060000D03*
X86360000Y-104140000D03*
X88900000Y-104140000D03*
X86360000Y-106680000D03*
X88900000Y-106680000D03*
X86360000Y-96520000D03*
X88900000Y-96520000D03*
X86360000Y-101600000D03*
X88900000Y-101600000D03*
X86360000Y-114300000D03*
X88900000Y-114300000D03*
X86360000Y-109220000D03*
X88900000Y-109220000D03*
X86360000Y-111760000D03*
X88900000Y-111760000D03*
X91440000Y-101600000D03*
X93980000Y-101600000D03*
X96520000Y-101600000D03*
X99060000Y-101600000D03*
X101600000Y-101600000D03*
X91440000Y-104140000D03*
X93980000Y-104140000D03*
X96520000Y-104140000D03*
X99060000Y-104140000D03*
X101600000Y-104140000D03*
X91440000Y-111760000D03*
X93980000Y-111760000D03*
X96520000Y-111760000D03*
X99060000Y-111760000D03*
X101600000Y-111760000D03*
X91440000Y-109220000D03*
X93980000Y-109220000D03*
X96520000Y-109220000D03*
X99060000Y-109220000D03*
X101600000Y-109220000D03*
X106680000Y-111760000D03*
X106680000Y-109220000D03*
X106680000Y-106680000D03*
X106680000Y-104140000D03*
X106680000Y-101600000D03*
X104140000Y-111760000D03*
X104140000Y-109220000D03*
X104140000Y-106680000D03*
X104140000Y-104140000D03*
X104140000Y-101600000D03*
X91440000Y-106680000D03*
X93980000Y-106680000D03*
X96520000Y-106680000D03*
X99060000Y-106680000D03*
X101600000Y-106680000D03*
X86360000Y-149860000D03*
X88900000Y-149860000D03*
X86360000Y-157480000D03*
X88900000Y-157480000D03*
X86360000Y-154940000D03*
X88900000Y-154940000D03*
X86360000Y-152400000D03*
X88900000Y-152400000D03*
X106680000Y-162560000D03*
X106680000Y-160020000D03*
X106680000Y-157480000D03*
X106680000Y-154940000D03*
X106680000Y-152400000D03*
X91440000Y-162560000D03*
X93980000Y-162560000D03*
X96520000Y-162560000D03*
X99060000Y-162560000D03*
X101600000Y-162560000D03*
X106680000Y-170180000D03*
X106680000Y-167640000D03*
X106680000Y-165100000D03*
X104140000Y-162560000D03*
X104140000Y-160020000D03*
X104140000Y-157480000D03*
X104140000Y-154940000D03*
X104140000Y-152400000D03*
X104140000Y-170180000D03*
X104140000Y-167640000D03*
X104140000Y-165100000D03*
X73660000Y-160020000D03*
X76200000Y-160020000D03*
X78740000Y-160020000D03*
X81280000Y-160020000D03*
X83820000Y-160020000D03*
X73660000Y-162560000D03*
X76200000Y-162560000D03*
X78740000Y-162560000D03*
X81280000Y-162560000D03*
X83820000Y-162560000D03*
X71120000Y-162560000D03*
X71120000Y-160020000D03*
X71120000Y-157480000D03*
X71120000Y-154940000D03*
X71120000Y-152400000D03*
X73660000Y-152400000D03*
X76200000Y-152400000D03*
X78740000Y-152400000D03*
X81280000Y-152400000D03*
X83820000Y-152400000D03*
X73660000Y-149860000D03*
X76200000Y-149860000D03*
X78740000Y-149860000D03*
X81280000Y-149860000D03*
X83820000Y-149860000D03*
X73660000Y-154940000D03*
X76200000Y-154940000D03*
X78740000Y-154940000D03*
X81280000Y-154940000D03*
X83820000Y-154940000D03*
X68580000Y-162560000D03*
X68580000Y-160020000D03*
X68580000Y-157480000D03*
X68580000Y-154940000D03*
X68580000Y-152400000D03*
X73660000Y-157480000D03*
X76200000Y-157480000D03*
X78740000Y-157480000D03*
X81280000Y-157480000D03*
X83820000Y-157480000D03*
X73660000Y-165100000D03*
X76200000Y-165100000D03*
X78740000Y-165100000D03*
X81280000Y-165100000D03*
X83820000Y-165100000D03*
X71120000Y-170180000D03*
X71120000Y-167640000D03*
X71120000Y-165100000D03*
X68580000Y-170180000D03*
X68580000Y-167640000D03*
X68580000Y-165100000D03*
X73660000Y-167640000D03*
X76200000Y-167640000D03*
X78740000Y-167640000D03*
X81280000Y-167640000D03*
X83820000Y-167640000D03*
X86360000Y-160020000D03*
X88900000Y-160020000D03*
X86360000Y-162560000D03*
X88900000Y-162560000D03*
X73660000Y-170180000D03*
X76200000Y-170180000D03*
X78740000Y-170180000D03*
X81280000Y-170180000D03*
X83820000Y-170180000D03*
X86360000Y-165100000D03*
X88900000Y-165100000D03*
X91440000Y-167640000D03*
X93980000Y-167640000D03*
X96520000Y-167640000D03*
X99060000Y-167640000D03*
X101600000Y-167640000D03*
X86360000Y-170180000D03*
X88900000Y-170180000D03*
X91440000Y-170180000D03*
X93980000Y-170180000D03*
X96520000Y-170180000D03*
X99060000Y-170180000D03*
X101600000Y-170180000D03*
X91440000Y-165100000D03*
X93980000Y-165100000D03*
X96520000Y-165100000D03*
X99060000Y-165100000D03*
X101600000Y-165100000D03*
X86360000Y-167640000D03*
X88900000Y-167640000D03*
X91440000Y-154940000D03*
X93980000Y-154940000D03*
X96520000Y-154940000D03*
X99060000Y-154940000D03*
X101600000Y-154940000D03*
X91440000Y-152400000D03*
X93980000Y-152400000D03*
X96520000Y-152400000D03*
X99060000Y-152400000D03*
X101600000Y-152400000D03*
X91440000Y-149860000D03*
X93980000Y-149860000D03*
X96520000Y-149860000D03*
X99060000Y-149860000D03*
X101600000Y-149860000D03*
X91440000Y-160020000D03*
X93980000Y-160020000D03*
X96520000Y-160020000D03*
X99060000Y-160020000D03*
X101600000Y-160020000D03*
X91440000Y-157480000D03*
X93980000Y-157480000D03*
X96520000Y-157480000D03*
X99060000Y-157480000D03*
X101600000Y-157480000D03*
X73660000Y-137160000D03*
X76200000Y-137160000D03*
X78740000Y-137160000D03*
X81280000Y-137160000D03*
X83820000Y-137160000D03*
X68580000Y-137160000D03*
X68580000Y-134620000D03*
X68580000Y-132080000D03*
X68580000Y-129540000D03*
X68580000Y-127000000D03*
X71120000Y-137160000D03*
X71120000Y-134620000D03*
X71120000Y-132080000D03*
X71120000Y-129540000D03*
X71120000Y-127000000D03*
X73660000Y-134620000D03*
X76200000Y-134620000D03*
X78740000Y-134620000D03*
X81280000Y-134620000D03*
X83820000Y-134620000D03*
X86360000Y-127000000D03*
X88900000Y-127000000D03*
X73660000Y-132080000D03*
X76200000Y-132080000D03*
X78740000Y-132080000D03*
X81280000Y-132080000D03*
X83820000Y-132080000D03*
X73660000Y-129540000D03*
X76200000Y-129540000D03*
X78740000Y-129540000D03*
X81280000Y-129540000D03*
X83820000Y-129540000D03*
X73660000Y-127000000D03*
X76200000Y-127000000D03*
X78740000Y-127000000D03*
X81280000Y-127000000D03*
X83820000Y-127000000D03*
X91440000Y-127000000D03*
X93980000Y-127000000D03*
X96520000Y-127000000D03*
X99060000Y-127000000D03*
X101600000Y-127000000D03*
X106680000Y-137160000D03*
X106680000Y-134620000D03*
X106680000Y-132080000D03*
X106680000Y-129540000D03*
X106680000Y-127000000D03*
X104140000Y-137160000D03*
X104140000Y-134620000D03*
X104140000Y-132080000D03*
X104140000Y-129540000D03*
X104140000Y-127000000D03*
X91440000Y-137160000D03*
X93980000Y-137160000D03*
X96520000Y-137160000D03*
X99060000Y-137160000D03*
X101600000Y-137160000D03*
X91440000Y-134620000D03*
X93980000Y-134620000D03*
X96520000Y-134620000D03*
X99060000Y-134620000D03*
X101600000Y-134620000D03*
X91440000Y-129540000D03*
X93980000Y-129540000D03*
X96520000Y-129540000D03*
X99060000Y-129540000D03*
X101600000Y-129540000D03*
X91440000Y-132080000D03*
X93980000Y-132080000D03*
X96520000Y-132080000D03*
X99060000Y-132080000D03*
X101600000Y-132080000D03*
X86360000Y-147320000D03*
X88900000Y-147320000D03*
X86360000Y-144780000D03*
X88900000Y-144780000D03*
X86360000Y-142240000D03*
X88900000Y-142240000D03*
X86360000Y-139700000D03*
X88900000Y-139700000D03*
X86360000Y-137160000D03*
X88900000Y-137160000D03*
X86360000Y-134620000D03*
X88900000Y-134620000D03*
X86360000Y-129540000D03*
X88900000Y-129540000D03*
X86360000Y-132080000D03*
X88900000Y-132080000D03*
X73660000Y-147320000D03*
X76200000Y-147320000D03*
X78740000Y-147320000D03*
X81280000Y-147320000D03*
X83820000Y-147320000D03*
X71120000Y-149860000D03*
X71120000Y-147320000D03*
X71120000Y-144780000D03*
X71120000Y-142240000D03*
X71120000Y-139700000D03*
X73660000Y-144780000D03*
X76200000Y-144780000D03*
X78740000Y-144780000D03*
X81280000Y-144780000D03*
X83820000Y-144780000D03*
X73660000Y-139700000D03*
X76200000Y-139700000D03*
X78740000Y-139700000D03*
X81280000Y-139700000D03*
X83820000Y-139700000D03*
X68580000Y-149860000D03*
X68580000Y-147320000D03*
X68580000Y-144780000D03*
X68580000Y-142240000D03*
X68580000Y-139700000D03*
X73660000Y-142240000D03*
X76200000Y-142240000D03*
X78740000Y-142240000D03*
X81280000Y-142240000D03*
X83820000Y-142240000D03*
X91440000Y-144780000D03*
X93980000Y-144780000D03*
X96520000Y-144780000D03*
X99060000Y-144780000D03*
X101600000Y-144780000D03*
X106680000Y-149860000D03*
X106680000Y-147320000D03*
X106680000Y-144780000D03*
X106680000Y-142240000D03*
X106680000Y-139700000D03*
X104140000Y-149860000D03*
X104140000Y-147320000D03*
X104140000Y-144780000D03*
X104140000Y-142240000D03*
X104140000Y-139700000D03*
X91440000Y-139700000D03*
X93980000Y-139700000D03*
X96520000Y-139700000D03*
X99060000Y-139700000D03*
X101600000Y-139700000D03*
X91440000Y-147320000D03*
X93980000Y-147320000D03*
X96520000Y-147320000D03*
X99060000Y-147320000D03*
X101600000Y-147320000D03*
X91440000Y-142240000D03*
X93980000Y-142240000D03*
X96520000Y-142240000D03*
X99060000Y-142240000D03*
X101600000Y-142240000D03*
X86360000Y-63500000D03*
X88900000Y-63500000D03*
X86360000Y-73660000D03*
X88900000Y-73660000D03*
X86360000Y-68580000D03*
X88900000Y-68580000D03*
X86360000Y-66040000D03*
X88900000Y-66040000D03*
X91440000Y-73660000D03*
X93980000Y-73660000D03*
X96520000Y-73660000D03*
X99060000Y-73660000D03*
X101600000Y-73660000D03*
X104140000Y-73660000D03*
X104140000Y-71120000D03*
X104140000Y-68580000D03*
X104140000Y-66040000D03*
X104140000Y-63500000D03*
X91440000Y-66040000D03*
X93980000Y-66040000D03*
X96520000Y-66040000D03*
X99060000Y-66040000D03*
X101600000Y-66040000D03*
X91440000Y-71120000D03*
X93980000Y-71120000D03*
X96520000Y-71120000D03*
X99060000Y-71120000D03*
X101600000Y-71120000D03*
X91440000Y-63500000D03*
X93980000Y-63500000D03*
X96520000Y-63500000D03*
X99060000Y-63500000D03*
X101600000Y-63500000D03*
X106680000Y-73660000D03*
X106680000Y-71120000D03*
X106680000Y-68580000D03*
X106680000Y-66040000D03*
X106680000Y-63500000D03*
X91440000Y-60960000D03*
X93980000Y-60960000D03*
X96520000Y-60960000D03*
X99060000Y-60960000D03*
X101600000Y-60960000D03*
X91440000Y-68580000D03*
X93980000Y-68580000D03*
X96520000Y-68580000D03*
X99060000Y-68580000D03*
X101600000Y-68580000D03*
X91440000Y-55880000D03*
X93980000Y-55880000D03*
X96520000Y-55880000D03*
X99060000Y-55880000D03*
X101600000Y-55880000D03*
X91440000Y-53340000D03*
X93980000Y-53340000D03*
X96520000Y-53340000D03*
X99060000Y-53340000D03*
X101600000Y-53340000D03*
X106680000Y-60960000D03*
X106680000Y-58420000D03*
X106680000Y-55880000D03*
X106680000Y-53340000D03*
X106680000Y-50800000D03*
X104140000Y-60960000D03*
X104140000Y-58420000D03*
X104140000Y-55880000D03*
X104140000Y-53340000D03*
X104140000Y-50800000D03*
X91440000Y-50800000D03*
X93980000Y-50800000D03*
X96520000Y-50800000D03*
X99060000Y-50800000D03*
X101600000Y-50800000D03*
X86360000Y-60960000D03*
X88900000Y-60960000D03*
X86360000Y-55880000D03*
X88900000Y-55880000D03*
X86360000Y-58420000D03*
X88900000Y-58420000D03*
X86360000Y-53340000D03*
X88900000Y-53340000D03*
X86360000Y-50800000D03*
X88900000Y-50800000D03*
X91440000Y-58420000D03*
X93980000Y-58420000D03*
X96520000Y-58420000D03*
X99060000Y-58420000D03*
X101600000Y-58420000D03*
X91440000Y-83820000D03*
X93980000Y-83820000D03*
X96520000Y-83820000D03*
X99060000Y-83820000D03*
X101600000Y-83820000D03*
X91440000Y-76200000D03*
X93980000Y-76200000D03*
X96520000Y-76200000D03*
X99060000Y-76200000D03*
X101600000Y-76200000D03*
X106680000Y-86360000D03*
X106680000Y-83820000D03*
X106680000Y-81280000D03*
X106680000Y-78740000D03*
X106680000Y-76200000D03*
X91440000Y-81280000D03*
X93980000Y-81280000D03*
X96520000Y-81280000D03*
X99060000Y-81280000D03*
X101600000Y-81280000D03*
X91440000Y-78740000D03*
X93980000Y-78740000D03*
X96520000Y-78740000D03*
X99060000Y-78740000D03*
X101600000Y-78740000D03*
X104140000Y-86360000D03*
X104140000Y-83820000D03*
X104140000Y-81280000D03*
X104140000Y-78740000D03*
X104140000Y-76200000D03*
X91440000Y-86360000D03*
X93980000Y-86360000D03*
X96520000Y-86360000D03*
X99060000Y-86360000D03*
X101600000Y-86360000D03*
X116840000Y-111760000D03*
X116840000Y-109220000D03*
X116840000Y-106680000D03*
X116840000Y-104140000D03*
X116840000Y-101600000D03*
X114300000Y-111760000D03*
X114300000Y-109220000D03*
X114300000Y-106680000D03*
X114300000Y-104140000D03*
X114300000Y-101600000D03*
X116840000Y-124460000D03*
X116840000Y-121920000D03*
X116840000Y-119380000D03*
X116840000Y-116840000D03*
X116840000Y-114300000D03*
X114300000Y-124460000D03*
X114300000Y-121920000D03*
X114300000Y-119380000D03*
X114300000Y-116840000D03*
X114300000Y-114300000D03*
X116840000Y-137160000D03*
X116840000Y-134620000D03*
X116840000Y-132080000D03*
X116840000Y-129540000D03*
X116840000Y-127000000D03*
X114300000Y-137160000D03*
X114300000Y-134620000D03*
X114300000Y-132080000D03*
X114300000Y-129540000D03*
X114300000Y-127000000D03*
X116840000Y-99060000D03*
X116840000Y-96520000D03*
X116840000Y-93980000D03*
X116840000Y-91440000D03*
X116840000Y-88900000D03*
X114300000Y-99060000D03*
X114300000Y-96520000D03*
X114300000Y-93980000D03*
X114300000Y-91440000D03*
X114300000Y-88900000D03*
X116840000Y-86360000D03*
X116840000Y-83820000D03*
X116840000Y-81280000D03*
X116840000Y-78740000D03*
X116840000Y-76200000D03*
X114300000Y-86360000D03*
X114300000Y-83820000D03*
X114300000Y-81280000D03*
X114300000Y-78740000D03*
X114300000Y-76200000D03*
X116840000Y-60960000D03*
X116840000Y-58420000D03*
X116840000Y-55880000D03*
X116840000Y-53340000D03*
X116840000Y-50800000D03*
X114300000Y-60960000D03*
X114300000Y-58420000D03*
X114300000Y-55880000D03*
X114300000Y-53340000D03*
X114300000Y-50800000D03*
X116840000Y-73660000D03*
X116840000Y-71120000D03*
X116840000Y-68580000D03*
X116840000Y-66040000D03*
X116840000Y-63500000D03*
X114300000Y-73660000D03*
X114300000Y-71120000D03*
X114300000Y-68580000D03*
X114300000Y-66040000D03*
X114300000Y-63500000D03*
X116840000Y-149860000D03*
X116840000Y-147320000D03*
X116840000Y-144780000D03*
X116840000Y-142240000D03*
X116840000Y-139700000D03*
X114300000Y-149860000D03*
X114300000Y-147320000D03*
X114300000Y-144780000D03*
X114300000Y-142240000D03*
X114300000Y-139700000D03*
X116840000Y-170180000D03*
X116840000Y-167640000D03*
X116840000Y-165100000D03*
X114300000Y-170180000D03*
X114300000Y-167640000D03*
X114300000Y-165100000D03*
X116840000Y-162560000D03*
X116840000Y-160020000D03*
X116840000Y-157480000D03*
X116840000Y-154940000D03*
X116840000Y-152400000D03*
X114300000Y-162560000D03*
X114300000Y-160020000D03*
X114300000Y-157480000D03*
X114300000Y-154940000D03*
X114300000Y-152400000D03*
X152400000Y-111760000D03*
X152400000Y-109220000D03*
X152400000Y-106680000D03*
X152400000Y-104140000D03*
X152400000Y-101600000D03*
X152400000Y-124460000D03*
X152400000Y-121920000D03*
X152400000Y-119380000D03*
X152400000Y-116840000D03*
X152400000Y-114300000D03*
X152400000Y-137160000D03*
X152400000Y-134620000D03*
X152400000Y-132080000D03*
X152400000Y-129540000D03*
X152400000Y-127000000D03*
X152400000Y-99060000D03*
X152400000Y-96520000D03*
X152400000Y-93980000D03*
X152400000Y-91440000D03*
X152400000Y-88900000D03*
X152400000Y-86360000D03*
X152400000Y-83820000D03*
X152400000Y-81280000D03*
X152400000Y-78740000D03*
X152400000Y-76200000D03*
X152400000Y-60960000D03*
X152400000Y-58420000D03*
X152400000Y-55880000D03*
X152400000Y-53340000D03*
X152400000Y-50800000D03*
X152400000Y-73660000D03*
X152400000Y-71120000D03*
X152400000Y-68580000D03*
X152400000Y-66040000D03*
X152400000Y-63500000D03*
X152400000Y-149860000D03*
X152400000Y-147320000D03*
X152400000Y-144780000D03*
X152400000Y-142240000D03*
X152400000Y-139700000D03*
X152400000Y-170180000D03*
X152400000Y-167640000D03*
X152400000Y-165100000D03*
X152400000Y-162560000D03*
X152400000Y-160020000D03*
X152400000Y-157480000D03*
X152400000Y-154940000D03*
X152400000Y-152400000D03*
X149860000Y-162560000D03*
X149860000Y-160020000D03*
X149860000Y-157480000D03*
X149860000Y-154940000D03*
X149860000Y-152400000D03*
X149860000Y-149860000D03*
X149860000Y-147320000D03*
X149860000Y-144780000D03*
X149860000Y-142240000D03*
X149860000Y-139700000D03*
X149860000Y-137160000D03*
X149860000Y-134620000D03*
X149860000Y-132080000D03*
X149860000Y-129540000D03*
X149860000Y-127000000D03*
X149860000Y-124460000D03*
X149860000Y-121920000D03*
X149860000Y-119380000D03*
X149860000Y-116840000D03*
X149860000Y-114300000D03*
X149860000Y-111760000D03*
X149860000Y-109220000D03*
X149860000Y-106680000D03*
X149860000Y-104140000D03*
X149860000Y-101600000D03*
X149860000Y-99060000D03*
X149860000Y-96520000D03*
X149860000Y-93980000D03*
X149860000Y-91440000D03*
X149860000Y-88900000D03*
X149860000Y-86360000D03*
X149860000Y-83820000D03*
X149860000Y-81280000D03*
X149860000Y-78740000D03*
X149860000Y-76200000D03*
X149860000Y-73660000D03*
X149860000Y-71120000D03*
X149860000Y-68580000D03*
X149860000Y-66040000D03*
X149860000Y-63500000D03*
X119380000Y-137160000D03*
X121920000Y-137160000D03*
X124460000Y-137160000D03*
X127000000Y-137160000D03*
X129540000Y-137160000D03*
X119380000Y-134620000D03*
X121920000Y-134620000D03*
X124460000Y-134620000D03*
X127000000Y-134620000D03*
X129540000Y-134620000D03*
X119380000Y-104140000D03*
X121920000Y-104140000D03*
X124460000Y-104140000D03*
X127000000Y-104140000D03*
X129540000Y-104140000D03*
X119380000Y-106680000D03*
X121920000Y-106680000D03*
X124460000Y-106680000D03*
X127000000Y-106680000D03*
X129540000Y-106680000D03*
X119380000Y-127000000D03*
X121920000Y-127000000D03*
X124460000Y-127000000D03*
X127000000Y-127000000D03*
X129540000Y-127000000D03*
X119380000Y-121920000D03*
X121920000Y-121920000D03*
X124460000Y-121920000D03*
X127000000Y-121920000D03*
X129540000Y-121920000D03*
X119380000Y-132080000D03*
X121920000Y-132080000D03*
X124460000Y-132080000D03*
X127000000Y-132080000D03*
X129540000Y-132080000D03*
X119380000Y-124460000D03*
X121920000Y-124460000D03*
X124460000Y-124460000D03*
X127000000Y-124460000D03*
X129540000Y-124460000D03*
X119380000Y-129540000D03*
X121920000Y-129540000D03*
X124460000Y-129540000D03*
X127000000Y-129540000D03*
X129540000Y-129540000D03*
X119380000Y-119380000D03*
X121920000Y-119380000D03*
X124460000Y-119380000D03*
X127000000Y-119380000D03*
X129540000Y-119380000D03*
X119380000Y-114300000D03*
X121920000Y-114300000D03*
X124460000Y-114300000D03*
X127000000Y-114300000D03*
X129540000Y-114300000D03*
X119380000Y-116840000D03*
X121920000Y-116840000D03*
X124460000Y-116840000D03*
X127000000Y-116840000D03*
X129540000Y-116840000D03*
X119380000Y-111760000D03*
X121920000Y-111760000D03*
X124460000Y-111760000D03*
X127000000Y-111760000D03*
X129540000Y-111760000D03*
X119380000Y-109220000D03*
X121920000Y-109220000D03*
X124460000Y-109220000D03*
X127000000Y-109220000D03*
X129540000Y-109220000D03*
X119380000Y-76200000D03*
X121920000Y-76200000D03*
X124460000Y-76200000D03*
X127000000Y-76200000D03*
X129540000Y-76200000D03*
X119380000Y-78740000D03*
X121920000Y-78740000D03*
X124460000Y-78740000D03*
X127000000Y-78740000D03*
X129540000Y-78740000D03*
X119380000Y-81280000D03*
X121920000Y-81280000D03*
X124460000Y-81280000D03*
X127000000Y-81280000D03*
X129540000Y-81280000D03*
X119380000Y-83820000D03*
X121920000Y-83820000D03*
X124460000Y-83820000D03*
X127000000Y-83820000D03*
X129540000Y-83820000D03*
X119380000Y-86360000D03*
X121920000Y-86360000D03*
X124460000Y-86360000D03*
X127000000Y-86360000D03*
X129540000Y-86360000D03*
X119380000Y-88900000D03*
X121920000Y-88900000D03*
X124460000Y-88900000D03*
X127000000Y-88900000D03*
X129540000Y-88900000D03*
X119380000Y-101600000D03*
X121920000Y-101600000D03*
X124460000Y-101600000D03*
X127000000Y-101600000D03*
X129540000Y-101600000D03*
X119380000Y-91440000D03*
X121920000Y-91440000D03*
X124460000Y-91440000D03*
X127000000Y-91440000D03*
X129540000Y-91440000D03*
X119380000Y-99060000D03*
X121920000Y-99060000D03*
X124460000Y-99060000D03*
X127000000Y-99060000D03*
X129540000Y-99060000D03*
X119380000Y-93980000D03*
X121920000Y-93980000D03*
X124460000Y-93980000D03*
X127000000Y-93980000D03*
X129540000Y-93980000D03*
X119380000Y-96520000D03*
X121920000Y-96520000D03*
X124460000Y-96520000D03*
X127000000Y-96520000D03*
X129540000Y-96520000D03*
X119380000Y-60960000D03*
X121920000Y-60960000D03*
X124460000Y-60960000D03*
X127000000Y-60960000D03*
X129540000Y-60960000D03*
X119380000Y-50800000D03*
X121920000Y-50800000D03*
X124460000Y-50800000D03*
X127000000Y-50800000D03*
X129540000Y-50800000D03*
X119380000Y-53340000D03*
X121920000Y-53340000D03*
X124460000Y-53340000D03*
X127000000Y-53340000D03*
X129540000Y-53340000D03*
X119380000Y-55880000D03*
X121920000Y-55880000D03*
X124460000Y-55880000D03*
X127000000Y-55880000D03*
X129540000Y-55880000D03*
X119380000Y-58420000D03*
X121920000Y-58420000D03*
X124460000Y-58420000D03*
X127000000Y-58420000D03*
X129540000Y-58420000D03*
X119380000Y-73660000D03*
X121920000Y-73660000D03*
X124460000Y-73660000D03*
X127000000Y-73660000D03*
X129540000Y-73660000D03*
X119380000Y-71120000D03*
X121920000Y-71120000D03*
X124460000Y-71120000D03*
X127000000Y-71120000D03*
X129540000Y-71120000D03*
X119380000Y-66040000D03*
X121920000Y-66040000D03*
X124460000Y-66040000D03*
X127000000Y-66040000D03*
X129540000Y-66040000D03*
X119380000Y-68580000D03*
X121920000Y-68580000D03*
X124460000Y-68580000D03*
X127000000Y-68580000D03*
X129540000Y-68580000D03*
X119380000Y-63500000D03*
X121920000Y-63500000D03*
X124460000Y-63500000D03*
X127000000Y-63500000D03*
X129540000Y-63500000D03*
X119380000Y-139700000D03*
X121920000Y-139700000D03*
X124460000Y-139700000D03*
X127000000Y-139700000D03*
X129540000Y-139700000D03*
X119380000Y-154940000D03*
X121920000Y-154940000D03*
X124460000Y-154940000D03*
X127000000Y-154940000D03*
X129540000Y-154940000D03*
X119380000Y-157480000D03*
X121920000Y-157480000D03*
X124460000Y-157480000D03*
X127000000Y-157480000D03*
X129540000Y-157480000D03*
X119380000Y-144780000D03*
X121920000Y-144780000D03*
X124460000Y-144780000D03*
X127000000Y-144780000D03*
X129540000Y-144780000D03*
X119380000Y-142240000D03*
X121920000Y-142240000D03*
X124460000Y-142240000D03*
X127000000Y-142240000D03*
X129540000Y-142240000D03*
X119380000Y-147320000D03*
X121920000Y-147320000D03*
X124460000Y-147320000D03*
X127000000Y-147320000D03*
X129540000Y-147320000D03*
X119380000Y-152400000D03*
X121920000Y-152400000D03*
X124460000Y-152400000D03*
X127000000Y-152400000D03*
X129540000Y-152400000D03*
X119380000Y-149860000D03*
X121920000Y-149860000D03*
X124460000Y-149860000D03*
X127000000Y-149860000D03*
X129540000Y-149860000D03*
X119380000Y-162560000D03*
X121920000Y-162560000D03*
X124460000Y-162560000D03*
X127000000Y-162560000D03*
X129540000Y-162560000D03*
X119380000Y-167640000D03*
X121920000Y-167640000D03*
X124460000Y-167640000D03*
X127000000Y-167640000D03*
X129540000Y-167640000D03*
X119380000Y-160020000D03*
X121920000Y-160020000D03*
X124460000Y-160020000D03*
X127000000Y-160020000D03*
X129540000Y-160020000D03*
X119380000Y-170180000D03*
X121920000Y-170180000D03*
X124460000Y-170180000D03*
X127000000Y-170180000D03*
X129540000Y-170180000D03*
X119380000Y-165100000D03*
X121920000Y-165100000D03*
X124460000Y-165100000D03*
X127000000Y-165100000D03*
X129540000Y-165100000D03*
X132080000Y-160020000D03*
X134620000Y-160020000D03*
X132080000Y-157480000D03*
X134620000Y-157480000D03*
X132080000Y-162560000D03*
X134620000Y-162560000D03*
X132080000Y-154940000D03*
X134620000Y-154940000D03*
X132080000Y-152400000D03*
X134620000Y-152400000D03*
X132080000Y-142240000D03*
X134620000Y-142240000D03*
X132080000Y-147320000D03*
X134620000Y-147320000D03*
X132080000Y-149860000D03*
X134620000Y-149860000D03*
X132080000Y-144780000D03*
X134620000Y-144780000D03*
X132080000Y-134620000D03*
X134620000Y-134620000D03*
X132080000Y-132080000D03*
X134620000Y-132080000D03*
X132080000Y-137160000D03*
X134620000Y-137160000D03*
X132080000Y-139700000D03*
X134620000Y-139700000D03*
X132080000Y-116840000D03*
X134620000Y-116840000D03*
X132080000Y-119380000D03*
X134620000Y-119380000D03*
X132080000Y-114300000D03*
X134620000Y-114300000D03*
X132080000Y-111760000D03*
X134620000Y-111760000D03*
X132080000Y-121920000D03*
X134620000Y-121920000D03*
X132080000Y-124460000D03*
X134620000Y-124460000D03*
X132080000Y-127000000D03*
X134620000Y-127000000D03*
X132080000Y-129540000D03*
X134620000Y-129540000D03*
X132080000Y-165100000D03*
X134620000Y-165100000D03*
X132080000Y-167640000D03*
X134620000Y-167640000D03*
X132080000Y-170180000D03*
X134620000Y-170180000D03*
X132080000Y-81280000D03*
X134620000Y-81280000D03*
X132080000Y-86360000D03*
X134620000Y-86360000D03*
X132080000Y-83820000D03*
X134620000Y-83820000D03*
X132080000Y-88900000D03*
X134620000Y-88900000D03*
X132080000Y-99060000D03*
X134620000Y-99060000D03*
X132080000Y-96520000D03*
X134620000Y-96520000D03*
X132080000Y-93980000D03*
X134620000Y-93980000D03*
X132080000Y-101600000D03*
X134620000Y-101600000D03*
X132080000Y-91440000D03*
X134620000Y-91440000D03*
X132080000Y-109220000D03*
X134620000Y-109220000D03*
X132080000Y-106680000D03*
X134620000Y-106680000D03*
X132080000Y-104140000D03*
X134620000Y-104140000D03*
X132080000Y-73660000D03*
X134620000Y-73660000D03*
X132080000Y-68580000D03*
X134620000Y-68580000D03*
X132080000Y-66040000D03*
X134620000Y-66040000D03*
X132080000Y-71120000D03*
X134620000Y-71120000D03*
X132080000Y-76200000D03*
X134620000Y-76200000D03*
X132080000Y-78740000D03*
X134620000Y-78740000D03*
X132080000Y-63500000D03*
X134620000Y-63500000D03*
X132080000Y-60960000D03*
X134620000Y-60960000D03*
X132080000Y-58420000D03*
X134620000Y-58420000D03*
X132080000Y-55880000D03*
X134620000Y-55880000D03*
X132080000Y-53340000D03*
X134620000Y-53340000D03*
X137160000Y-160020000D03*
X139700000Y-160020000D03*
X142240000Y-160020000D03*
X144780000Y-160020000D03*
X147320000Y-160020000D03*
X137160000Y-165100000D03*
X139700000Y-165100000D03*
X142240000Y-165100000D03*
X144780000Y-165100000D03*
X147320000Y-165100000D03*
X137160000Y-170180000D03*
X139700000Y-170180000D03*
X142240000Y-170180000D03*
X144780000Y-170180000D03*
X147320000Y-170180000D03*
X137160000Y-167640000D03*
X139700000Y-167640000D03*
X142240000Y-167640000D03*
X144780000Y-167640000D03*
X147320000Y-167640000D03*
X137160000Y-162560000D03*
X139700000Y-162560000D03*
X142240000Y-162560000D03*
X144780000Y-162560000D03*
X147320000Y-162560000D03*
X137160000Y-144780000D03*
X139700000Y-144780000D03*
X142240000Y-144780000D03*
X144780000Y-144780000D03*
X147320000Y-144780000D03*
X137160000Y-134620000D03*
X139700000Y-134620000D03*
X142240000Y-134620000D03*
X144780000Y-134620000D03*
X147320000Y-134620000D03*
X137160000Y-139700000D03*
X139700000Y-139700000D03*
X142240000Y-139700000D03*
X144780000Y-139700000D03*
X147320000Y-139700000D03*
X137160000Y-137160000D03*
X139700000Y-137160000D03*
X142240000Y-137160000D03*
X144780000Y-137160000D03*
X147320000Y-137160000D03*
X137160000Y-142240000D03*
X139700000Y-142240000D03*
X142240000Y-142240000D03*
X144780000Y-142240000D03*
X147320000Y-142240000D03*
X137160000Y-121920000D03*
X139700000Y-121920000D03*
X142240000Y-121920000D03*
X144780000Y-121920000D03*
X147320000Y-121920000D03*
X137160000Y-124460000D03*
X139700000Y-124460000D03*
X142240000Y-124460000D03*
X144780000Y-124460000D03*
X147320000Y-124460000D03*
X137160000Y-129540000D03*
X139700000Y-129540000D03*
X142240000Y-129540000D03*
X144780000Y-129540000D03*
X147320000Y-129540000D03*
X137160000Y-132080000D03*
X139700000Y-132080000D03*
X142240000Y-132080000D03*
X144780000Y-132080000D03*
X147320000Y-132080000D03*
X137160000Y-127000000D03*
X139700000Y-127000000D03*
X142240000Y-127000000D03*
X144780000Y-127000000D03*
X147320000Y-127000000D03*
X137160000Y-119380000D03*
X139700000Y-119380000D03*
X142240000Y-119380000D03*
X144780000Y-119380000D03*
X147320000Y-119380000D03*
X137160000Y-111760000D03*
X139700000Y-111760000D03*
X142240000Y-111760000D03*
X144780000Y-111760000D03*
X147320000Y-111760000D03*
X137160000Y-116840000D03*
X139700000Y-116840000D03*
X142240000Y-116840000D03*
X144780000Y-116840000D03*
X147320000Y-116840000D03*
X137160000Y-114300000D03*
X139700000Y-114300000D03*
X142240000Y-114300000D03*
X144780000Y-114300000D03*
X147320000Y-114300000D03*
X137160000Y-157480000D03*
X139700000Y-157480000D03*
X142240000Y-157480000D03*
X144780000Y-157480000D03*
X147320000Y-157480000D03*
X137160000Y-152400000D03*
X139700000Y-152400000D03*
X142240000Y-152400000D03*
X144780000Y-152400000D03*
X147320000Y-152400000D03*
X137160000Y-149860000D03*
X139700000Y-149860000D03*
X142240000Y-149860000D03*
X144780000Y-149860000D03*
X147320000Y-149860000D03*
X137160000Y-147320000D03*
X139700000Y-147320000D03*
X142240000Y-147320000D03*
X144780000Y-147320000D03*
X147320000Y-147320000D03*
X137160000Y-154940000D03*
X139700000Y-154940000D03*
X142240000Y-154940000D03*
X144780000Y-154940000D03*
X147320000Y-154940000D03*
X137160000Y-83820000D03*
X139700000Y-83820000D03*
X142240000Y-83820000D03*
X144780000Y-83820000D03*
X147320000Y-83820000D03*
X137160000Y-88900000D03*
X139700000Y-88900000D03*
X142240000Y-88900000D03*
X144780000Y-88900000D03*
X147320000Y-88900000D03*
X137160000Y-86360000D03*
X139700000Y-86360000D03*
X142240000Y-86360000D03*
X144780000Y-86360000D03*
X147320000Y-86360000D03*
X137160000Y-81280000D03*
X139700000Y-81280000D03*
X142240000Y-81280000D03*
X144780000Y-81280000D03*
X147320000Y-81280000D03*
X137160000Y-96520000D03*
X139700000Y-96520000D03*
X142240000Y-96520000D03*
X144780000Y-96520000D03*
X147320000Y-96520000D03*
X137160000Y-101600000D03*
X139700000Y-101600000D03*
X142240000Y-101600000D03*
X144780000Y-101600000D03*
X147320000Y-101600000D03*
X137160000Y-104140000D03*
X139700000Y-104140000D03*
X142240000Y-104140000D03*
X144780000Y-104140000D03*
X147320000Y-104140000D03*
X137160000Y-99060000D03*
X139700000Y-99060000D03*
X142240000Y-99060000D03*
X144780000Y-99060000D03*
X147320000Y-99060000D03*
X137160000Y-93980000D03*
X139700000Y-93980000D03*
X142240000Y-93980000D03*
X144780000Y-93980000D03*
X147320000Y-93980000D03*
X137160000Y-91440000D03*
X139700000Y-91440000D03*
X142240000Y-91440000D03*
X144780000Y-91440000D03*
X147320000Y-91440000D03*
X137160000Y-109220000D03*
X139700000Y-109220000D03*
X142240000Y-109220000D03*
X144780000Y-109220000D03*
X147320000Y-109220000D03*
X137160000Y-106680000D03*
X139700000Y-106680000D03*
X142240000Y-106680000D03*
X144780000Y-106680000D03*
X147320000Y-106680000D03*
X137160000Y-78740000D03*
X139700000Y-78740000D03*
X142240000Y-78740000D03*
X144780000Y-78740000D03*
X147320000Y-78740000D03*
X137160000Y-76200000D03*
X139700000Y-76200000D03*
X142240000Y-76200000D03*
X144780000Y-76200000D03*
X147320000Y-76200000D03*
X137160000Y-73660000D03*
X139700000Y-73660000D03*
X142240000Y-73660000D03*
X144780000Y-73660000D03*
X147320000Y-73660000D03*
X137160000Y-71120000D03*
X139700000Y-71120000D03*
X142240000Y-71120000D03*
X144780000Y-71120000D03*
X147320000Y-71120000D03*
X137160000Y-68580000D03*
X139700000Y-68580000D03*
X142240000Y-68580000D03*
X144780000Y-68580000D03*
X147320000Y-68580000D03*
X137160000Y-66040000D03*
X139700000Y-66040000D03*
X142240000Y-66040000D03*
X144780000Y-66040000D03*
X147320000Y-66040000D03*
X137160000Y-63500000D03*
X139700000Y-63500000D03*
X142240000Y-63500000D03*
X144780000Y-63500000D03*
X147320000Y-63500000D03*
X137160000Y-60960000D03*
X139700000Y-60960000D03*
X142240000Y-60960000D03*
X144780000Y-60960000D03*
X147320000Y-60960000D03*
X137160000Y-58420000D03*
X139700000Y-58420000D03*
X142240000Y-58420000D03*
X144780000Y-58420000D03*
X147320000Y-58420000D03*
X137160000Y-55880000D03*
X139700000Y-55880000D03*
X142240000Y-55880000D03*
X144780000Y-55880000D03*
X147320000Y-55880000D03*
X137160000Y-53340000D03*
X139700000Y-53340000D03*
X142240000Y-53340000D03*
X144780000Y-53340000D03*
X147320000Y-53340000D03*
X137160000Y-50800000D03*
X139700000Y-50800000D03*
X142240000Y-50800000D03*
X144780000Y-50800000D03*
X147320000Y-50800000D03*
X132080000Y-50800000D03*
X134620000Y-50800000D03*
X149860000Y-60960000D03*
X149860000Y-58420000D03*
X149860000Y-55880000D03*
X149860000Y-53340000D03*
X149860000Y-50800000D03*
X149860000Y-170180000D03*
X149860000Y-167640000D03*
X149860000Y-165100000D03*
M02*
