G04 #@! TF.FileFunction,Copper,L1,Top,Signal*
%FSLAX46Y46*%
G04 Gerber Fmt 4.6, Leading zero omitted, Abs format (unit mm)*
G04 Created by KiCad (PCBNEW 4.0.7) date 08/18/19 22:54:49*
%MOMM*%
%LPD*%
G01*
G04 APERTURE LIST*
%ADD10C,0.100000*%
%ADD11C,0.300000*%
%ADD12C,1.524000*%
%ADD13C,0.750000*%
G04 APERTURE END LIST*
D10*
D11*
X109898571Y-127006429D02*
X108398571Y-127006429D01*
X108398571Y-126649286D01*
X108470000Y-126435001D01*
X108612857Y-126292143D01*
X108755714Y-126220715D01*
X109041429Y-126149286D01*
X109255714Y-126149286D01*
X109541429Y-126220715D01*
X109684286Y-126292143D01*
X109827143Y-126435001D01*
X109898571Y-126649286D01*
X109898571Y-127006429D01*
X109898571Y-125292143D02*
X109827143Y-125435001D01*
X109755714Y-125506429D01*
X109612857Y-125577858D01*
X109184286Y-125577858D01*
X109041429Y-125506429D01*
X108970000Y-125435001D01*
X108898571Y-125292143D01*
X108898571Y-125077858D01*
X108970000Y-124935001D01*
X109041429Y-124863572D01*
X109184286Y-124792143D01*
X109612857Y-124792143D01*
X109755714Y-124863572D01*
X109827143Y-124935001D01*
X109898571Y-125077858D01*
X109898571Y-125292143D01*
X109898571Y-124149286D02*
X108398571Y-124149286D01*
X109898571Y-123506429D02*
X109112857Y-123506429D01*
X108970000Y-123577858D01*
X108898571Y-123720715D01*
X108898571Y-123935000D01*
X108970000Y-124077858D01*
X109041429Y-124149286D01*
X109755714Y-122792143D02*
X109827143Y-122720715D01*
X109898571Y-122792143D01*
X109827143Y-122863572D01*
X109755714Y-122792143D01*
X109898571Y-122792143D01*
X109327143Y-122792143D02*
X108470000Y-122863572D01*
X108398571Y-122792143D01*
X108470000Y-122720715D01*
X109327143Y-122792143D01*
X108398571Y-122792143D01*
X109184286Y-120649286D02*
X109898571Y-120649286D01*
X108398571Y-121149286D02*
X109184286Y-120649286D01*
X108398571Y-120149286D01*
X109898571Y-119435000D02*
X109827143Y-119577858D01*
X109755714Y-119649286D01*
X109612857Y-119720715D01*
X109184286Y-119720715D01*
X109041429Y-119649286D01*
X108970000Y-119577858D01*
X108898571Y-119435000D01*
X108898571Y-119220715D01*
X108970000Y-119077858D01*
X109041429Y-119006429D01*
X109184286Y-118935000D01*
X109612857Y-118935000D01*
X109755714Y-119006429D01*
X109827143Y-119077858D01*
X109898571Y-119220715D01*
X109898571Y-119435000D01*
X108898571Y-117649286D02*
X109898571Y-117649286D01*
X108898571Y-118292143D02*
X109684286Y-118292143D01*
X109827143Y-118220715D01*
X109898571Y-118077857D01*
X109898571Y-117863572D01*
X109827143Y-117720715D01*
X109755714Y-117649286D01*
X109898571Y-115792143D02*
X108898571Y-115792143D01*
X109041429Y-115792143D02*
X108970000Y-115720715D01*
X108898571Y-115577857D01*
X108898571Y-115363572D01*
X108970000Y-115220715D01*
X109112857Y-115149286D01*
X109898571Y-115149286D01*
X109112857Y-115149286D02*
X108970000Y-115077857D01*
X108898571Y-114935000D01*
X108898571Y-114720715D01*
X108970000Y-114577857D01*
X109112857Y-114506429D01*
X109898571Y-114506429D01*
X109898571Y-113792143D02*
X108898571Y-113792143D01*
X108398571Y-113792143D02*
X108470000Y-113863572D01*
X108541429Y-113792143D01*
X108470000Y-113720715D01*
X108398571Y-113792143D01*
X108541429Y-113792143D01*
X109827143Y-113149286D02*
X109898571Y-113006429D01*
X109898571Y-112720714D01*
X109827143Y-112577857D01*
X109684286Y-112506429D01*
X109612857Y-112506429D01*
X109470000Y-112577857D01*
X109398571Y-112720714D01*
X109398571Y-112935000D01*
X109327143Y-113077857D01*
X109184286Y-113149286D01*
X109112857Y-113149286D01*
X108970000Y-113077857D01*
X108898571Y-112935000D01*
X108898571Y-112720714D01*
X108970000Y-112577857D01*
X109827143Y-111935000D02*
X109898571Y-111792143D01*
X109898571Y-111506428D01*
X109827143Y-111363571D01*
X109684286Y-111292143D01*
X109612857Y-111292143D01*
X109470000Y-111363571D01*
X109398571Y-111506428D01*
X109398571Y-111720714D01*
X109327143Y-111863571D01*
X109184286Y-111935000D01*
X109112857Y-111935000D01*
X108970000Y-111863571D01*
X108898571Y-111720714D01*
X108898571Y-111506428D01*
X108970000Y-111363571D01*
X109827143Y-110077857D02*
X109898571Y-110220714D01*
X109898571Y-110506428D01*
X109827143Y-110649285D01*
X109684286Y-110720714D01*
X109112857Y-110720714D01*
X108970000Y-110649285D01*
X108898571Y-110506428D01*
X108898571Y-110220714D01*
X108970000Y-110077857D01*
X109112857Y-110006428D01*
X109255714Y-110006428D01*
X109398571Y-110720714D01*
X109898571Y-108720714D02*
X108398571Y-108720714D01*
X109827143Y-108720714D02*
X109898571Y-108863571D01*
X109898571Y-109149285D01*
X109827143Y-109292143D01*
X109755714Y-109363571D01*
X109612857Y-109435000D01*
X109184286Y-109435000D01*
X109041429Y-109363571D01*
X108970000Y-109292143D01*
X108898571Y-109149285D01*
X108898571Y-108863571D01*
X108970000Y-108720714D01*
X109898571Y-106649285D02*
X109827143Y-106792143D01*
X109755714Y-106863571D01*
X109612857Y-106935000D01*
X109184286Y-106935000D01*
X109041429Y-106863571D01*
X108970000Y-106792143D01*
X108898571Y-106649285D01*
X108898571Y-106435000D01*
X108970000Y-106292143D01*
X109041429Y-106220714D01*
X109184286Y-106149285D01*
X109612857Y-106149285D01*
X109755714Y-106220714D01*
X109827143Y-106292143D01*
X109898571Y-106435000D01*
X109898571Y-106649285D01*
X108898571Y-105506428D02*
X109898571Y-105506428D01*
X109041429Y-105506428D02*
X108970000Y-105435000D01*
X108898571Y-105292142D01*
X108898571Y-105077857D01*
X108970000Y-104935000D01*
X109112857Y-104863571D01*
X109898571Y-104863571D01*
X109827143Y-103577857D02*
X109898571Y-103720714D01*
X109898571Y-104006428D01*
X109827143Y-104149285D01*
X109684286Y-104220714D01*
X109112857Y-104220714D01*
X108970000Y-104149285D01*
X108898571Y-104006428D01*
X108898571Y-103720714D01*
X108970000Y-103577857D01*
X109112857Y-103506428D01*
X109255714Y-103506428D01*
X109398571Y-104220714D01*
X109755714Y-102863571D02*
X109827143Y-102792143D01*
X109898571Y-102863571D01*
X109827143Y-102935000D01*
X109755714Y-102863571D01*
X109898571Y-102863571D01*
X109327143Y-102863571D02*
X108470000Y-102935000D01*
X108398571Y-102863571D01*
X108470000Y-102792143D01*
X109327143Y-102863571D01*
X108398571Y-102863571D01*
X137168572Y-174033571D02*
X137168572Y-172533571D01*
X137740000Y-172533571D01*
X137882858Y-172605000D01*
X137954286Y-172676429D01*
X138025715Y-172819286D01*
X138025715Y-173033571D01*
X137954286Y-173176429D01*
X137882858Y-173247857D01*
X137740000Y-173319286D01*
X137168572Y-173319286D01*
X139168572Y-173247857D02*
X139382858Y-173319286D01*
X139454286Y-173390714D01*
X139525715Y-173533571D01*
X139525715Y-173747857D01*
X139454286Y-173890714D01*
X139382858Y-173962143D01*
X139240000Y-174033571D01*
X138668572Y-174033571D01*
X138668572Y-172533571D01*
X139168572Y-172533571D01*
X139311429Y-172605000D01*
X139382858Y-172676429D01*
X139454286Y-172819286D01*
X139454286Y-172962143D01*
X139382858Y-173105000D01*
X139311429Y-173176429D01*
X139168572Y-173247857D01*
X138668572Y-173247857D01*
X140168572Y-173462143D02*
X141311429Y-173462143D01*
X142740001Y-172533571D02*
X142025715Y-172533571D01*
X141954286Y-173247857D01*
X142025715Y-173176429D01*
X142168572Y-173105000D01*
X142525715Y-173105000D01*
X142668572Y-173176429D01*
X142740001Y-173247857D01*
X142811429Y-173390714D01*
X142811429Y-173747857D01*
X142740001Y-173890714D01*
X142668572Y-173962143D01*
X142525715Y-174033571D01*
X142168572Y-174033571D01*
X142025715Y-173962143D01*
X141954286Y-173890714D01*
X143454286Y-173462143D02*
X144597143Y-173462143D01*
X145240000Y-172676429D02*
X145311429Y-172605000D01*
X145454286Y-172533571D01*
X145811429Y-172533571D01*
X145954286Y-172605000D01*
X146025715Y-172676429D01*
X146097143Y-172819286D01*
X146097143Y-172962143D01*
X146025715Y-173176429D01*
X145168572Y-174033571D01*
X146097143Y-174033571D01*
X146668571Y-173605000D02*
X147382857Y-173605000D01*
X146525714Y-174033571D02*
X147025714Y-172533571D01*
X147525714Y-174033571D01*
X149610001Y-174033571D02*
X149110001Y-173319286D01*
X148752858Y-174033571D02*
X148752858Y-172533571D01*
X149324286Y-172533571D01*
X149467144Y-172605000D01*
X149538572Y-172676429D01*
X149610001Y-172819286D01*
X149610001Y-173033571D01*
X149538572Y-173176429D01*
X149467144Y-173247857D01*
X149324286Y-173319286D01*
X148752858Y-173319286D01*
X151038572Y-174033571D02*
X150181429Y-174033571D01*
X150610001Y-174033571D02*
X150610001Y-172533571D01*
X150467144Y-172747857D01*
X150324286Y-172890714D01*
X150181429Y-172962143D01*
X117225001Y-48303571D02*
X116725001Y-47589286D01*
X116367858Y-48303571D02*
X116367858Y-46803571D01*
X116939286Y-46803571D01*
X117082144Y-46875000D01*
X117153572Y-46946429D01*
X117225001Y-47089286D01*
X117225001Y-47303571D01*
X117153572Y-47446429D01*
X117082144Y-47517857D01*
X116939286Y-47589286D01*
X116367858Y-47589286D01*
X118653572Y-48303571D02*
X117796429Y-48303571D01*
X118225001Y-48303571D02*
X118225001Y-46803571D01*
X118082144Y-47017857D01*
X117939286Y-47160714D01*
X117796429Y-47232143D01*
X104783572Y-48303571D02*
X104783572Y-46803571D01*
X105355000Y-46803571D01*
X105497858Y-46875000D01*
X105569286Y-46946429D01*
X105640715Y-47089286D01*
X105640715Y-47303571D01*
X105569286Y-47446429D01*
X105497858Y-47517857D01*
X105355000Y-47589286D01*
X104783572Y-47589286D01*
X106783572Y-47517857D02*
X106997858Y-47589286D01*
X107069286Y-47660714D01*
X107140715Y-47803571D01*
X107140715Y-48017857D01*
X107069286Y-48160714D01*
X106997858Y-48232143D01*
X106855000Y-48303571D01*
X106283572Y-48303571D01*
X106283572Y-46803571D01*
X106783572Y-46803571D01*
X106926429Y-46875000D01*
X106997858Y-46946429D01*
X107069286Y-47089286D01*
X107069286Y-47232143D01*
X106997858Y-47375000D01*
X106926429Y-47446429D01*
X106783572Y-47517857D01*
X106283572Y-47517857D01*
X107783572Y-47732143D02*
X108926429Y-47732143D01*
X110355001Y-46803571D02*
X109640715Y-46803571D01*
X109569286Y-47517857D01*
X109640715Y-47446429D01*
X109783572Y-47375000D01*
X110140715Y-47375000D01*
X110283572Y-47446429D01*
X110355001Y-47517857D01*
X110426429Y-47660714D01*
X110426429Y-48017857D01*
X110355001Y-48160714D01*
X110283572Y-48232143D01*
X110140715Y-48303571D01*
X109783572Y-48303571D01*
X109640715Y-48232143D01*
X109569286Y-48160714D01*
X111069286Y-47732143D02*
X112212143Y-47732143D01*
X112855000Y-46946429D02*
X112926429Y-46875000D01*
X113069286Y-46803571D01*
X113426429Y-46803571D01*
X113569286Y-46875000D01*
X113640715Y-46946429D01*
X113712143Y-47089286D01*
X113712143Y-47232143D01*
X113640715Y-47446429D01*
X112783572Y-48303571D01*
X113712143Y-48303571D01*
X114283571Y-47875000D02*
X114997857Y-47875000D01*
X114140714Y-48303571D02*
X114640714Y-46803571D01*
X115140714Y-48303571D01*
D12*
X73660000Y-78740000D03*
X76200000Y-78740000D03*
X78740000Y-78740000D03*
X81280000Y-78740000D03*
X83820000Y-78740000D03*
X73660000Y-76200000D03*
X76200000Y-76200000D03*
X78740000Y-76200000D03*
X81280000Y-76200000D03*
X83820000Y-76200000D03*
X73660000Y-81280000D03*
X76200000Y-81280000D03*
X78740000Y-81280000D03*
X81280000Y-81280000D03*
X83820000Y-81280000D03*
X73660000Y-86360000D03*
X76200000Y-86360000D03*
X78740000Y-86360000D03*
X81280000Y-86360000D03*
X83820000Y-86360000D03*
X73660000Y-83820000D03*
X76200000Y-83820000D03*
X78740000Y-83820000D03*
X81280000Y-83820000D03*
X83820000Y-83820000D03*
X68580000Y-86360000D03*
X68580000Y-83820000D03*
X68580000Y-81280000D03*
X68580000Y-78740000D03*
X68580000Y-76200000D03*
X71120000Y-86360000D03*
X71120000Y-83820000D03*
X71120000Y-81280000D03*
X71120000Y-78740000D03*
X71120000Y-76200000D03*
X73660000Y-58420000D03*
X76200000Y-58420000D03*
X78740000Y-58420000D03*
X81280000Y-58420000D03*
X83820000Y-58420000D03*
X73660000Y-55880000D03*
X76200000Y-55880000D03*
X78740000Y-55880000D03*
X81280000Y-55880000D03*
X83820000Y-55880000D03*
X73660000Y-53340000D03*
X76200000Y-53340000D03*
X78740000Y-53340000D03*
X81280000Y-53340000D03*
X83820000Y-53340000D03*
X68580000Y-60960000D03*
X68580000Y-58420000D03*
X68580000Y-55880000D03*
X68580000Y-53340000D03*
X68580000Y-50800000D03*
X71120000Y-60960000D03*
X71120000Y-58420000D03*
X71120000Y-55880000D03*
X71120000Y-53340000D03*
X71120000Y-50800000D03*
X73660000Y-60960000D03*
X76200000Y-60960000D03*
X78740000Y-60960000D03*
X81280000Y-60960000D03*
X83820000Y-60960000D03*
X73660000Y-50800000D03*
X76200000Y-50800000D03*
X78740000Y-50800000D03*
X81280000Y-50800000D03*
X83820000Y-50800000D03*
X73660000Y-63500000D03*
X76200000Y-63500000D03*
X78740000Y-63500000D03*
X81280000Y-63500000D03*
X83820000Y-63500000D03*
X73660000Y-68580000D03*
X76200000Y-68580000D03*
X78740000Y-68580000D03*
X81280000Y-68580000D03*
X83820000Y-68580000D03*
X73660000Y-73660000D03*
X76200000Y-73660000D03*
X78740000Y-73660000D03*
X81280000Y-73660000D03*
X83820000Y-73660000D03*
X68580000Y-73660000D03*
X68580000Y-71120000D03*
X68580000Y-68580000D03*
X68580000Y-66040000D03*
X68580000Y-63500000D03*
X73660000Y-66040000D03*
X76200000Y-66040000D03*
X78740000Y-66040000D03*
X81280000Y-66040000D03*
X83820000Y-66040000D03*
X73660000Y-71120000D03*
X76200000Y-71120000D03*
X78740000Y-71120000D03*
X81280000Y-71120000D03*
X83820000Y-71120000D03*
X71120000Y-73660000D03*
X71120000Y-71120000D03*
X71120000Y-68580000D03*
X71120000Y-66040000D03*
X71120000Y-63500000D03*
X86360000Y-86360000D03*
X88900000Y-86360000D03*
X86360000Y-81280000D03*
X88900000Y-81280000D03*
X86360000Y-71120000D03*
X88900000Y-71120000D03*
X86360000Y-83820000D03*
X88900000Y-83820000D03*
X86360000Y-78740000D03*
X88900000Y-78740000D03*
X86360000Y-76200000D03*
X88900000Y-76200000D03*
X68580000Y-124460000D03*
X68580000Y-121920000D03*
X68580000Y-119380000D03*
X68580000Y-116840000D03*
X68580000Y-114300000D03*
X71120000Y-124460000D03*
X71120000Y-121920000D03*
X71120000Y-119380000D03*
X71120000Y-116840000D03*
X71120000Y-114300000D03*
X68580000Y-111760000D03*
X68580000Y-109220000D03*
X68580000Y-106680000D03*
X68580000Y-104140000D03*
X68580000Y-101600000D03*
X71120000Y-111760000D03*
X71120000Y-109220000D03*
X71120000Y-106680000D03*
X71120000Y-104140000D03*
X71120000Y-101600000D03*
X73660000Y-101600000D03*
X76200000Y-101600000D03*
X78740000Y-101600000D03*
X81280000Y-101600000D03*
X83820000Y-101600000D03*
X73660000Y-104140000D03*
X76200000Y-104140000D03*
X78740000Y-104140000D03*
X81280000Y-104140000D03*
X83820000Y-104140000D03*
X73660000Y-109220000D03*
X76200000Y-109220000D03*
X78740000Y-109220000D03*
X81280000Y-109220000D03*
X83820000Y-109220000D03*
X73660000Y-111760000D03*
X76200000Y-111760000D03*
X78740000Y-111760000D03*
X81280000Y-111760000D03*
X83820000Y-111760000D03*
X73660000Y-106680000D03*
X76200000Y-106680000D03*
X78740000Y-106680000D03*
X81280000Y-106680000D03*
X83820000Y-106680000D03*
X73660000Y-96520000D03*
X76200000Y-96520000D03*
X78740000Y-96520000D03*
X81280000Y-96520000D03*
X83820000Y-96520000D03*
X71120000Y-99060000D03*
X71120000Y-96520000D03*
X71120000Y-93980000D03*
X71120000Y-91440000D03*
X71120000Y-88900000D03*
X68580000Y-99060000D03*
X68580000Y-96520000D03*
X68580000Y-93980000D03*
X68580000Y-91440000D03*
X68580000Y-88900000D03*
X73660000Y-99060000D03*
X76200000Y-99060000D03*
X78740000Y-99060000D03*
X81280000Y-99060000D03*
X83820000Y-99060000D03*
X73660000Y-91440000D03*
X76200000Y-91440000D03*
X78740000Y-91440000D03*
X81280000Y-91440000D03*
X83820000Y-91440000D03*
X73660000Y-93980000D03*
X76200000Y-93980000D03*
X78740000Y-93980000D03*
X81280000Y-93980000D03*
X83820000Y-93980000D03*
X73660000Y-88900000D03*
X76200000Y-88900000D03*
X78740000Y-88900000D03*
X81280000Y-88900000D03*
X83820000Y-88900000D03*
X86360000Y-121920000D03*
X88900000Y-121920000D03*
X86360000Y-119380000D03*
X88900000Y-119380000D03*
X86360000Y-116840000D03*
X88900000Y-116840000D03*
X73660000Y-124460000D03*
X76200000Y-124460000D03*
X78740000Y-124460000D03*
X81280000Y-124460000D03*
X83820000Y-124460000D03*
X73660000Y-114300000D03*
X76200000Y-114300000D03*
X78740000Y-114300000D03*
X81280000Y-114300000D03*
X83820000Y-114300000D03*
X73660000Y-121920000D03*
X76200000Y-121920000D03*
X78740000Y-121920000D03*
X81280000Y-121920000D03*
X83820000Y-121920000D03*
X73660000Y-116840000D03*
X76200000Y-116840000D03*
X78740000Y-116840000D03*
X81280000Y-116840000D03*
X83820000Y-116840000D03*
X73660000Y-119380000D03*
X76200000Y-119380000D03*
X78740000Y-119380000D03*
X81280000Y-119380000D03*
X83820000Y-119380000D03*
X91440000Y-88900000D03*
X93980000Y-88900000D03*
X96520000Y-88900000D03*
X99060000Y-88900000D03*
X101600000Y-88900000D03*
X86360000Y-93980000D03*
X88900000Y-93980000D03*
X86360000Y-88900000D03*
X88900000Y-88900000D03*
X86360000Y-91440000D03*
X88900000Y-91440000D03*
X91440000Y-93980000D03*
X93980000Y-93980000D03*
X96520000Y-93980000D03*
X99060000Y-93980000D03*
X101600000Y-93980000D03*
X91440000Y-91440000D03*
X93980000Y-91440000D03*
X96520000Y-91440000D03*
X99060000Y-91440000D03*
X101600000Y-91440000D03*
X91440000Y-96520000D03*
X93980000Y-96520000D03*
X96520000Y-96520000D03*
X99060000Y-96520000D03*
X101600000Y-96520000D03*
X106680000Y-99060000D03*
X106680000Y-96520000D03*
X106680000Y-93980000D03*
X106680000Y-91440000D03*
X106680000Y-88900000D03*
X104140000Y-99060000D03*
X104140000Y-96520000D03*
X104140000Y-93980000D03*
X104140000Y-91440000D03*
X104140000Y-88900000D03*
X91440000Y-99060000D03*
X93980000Y-99060000D03*
X96520000Y-99060000D03*
X99060000Y-99060000D03*
X101600000Y-99060000D03*
X91440000Y-124460000D03*
X93980000Y-124460000D03*
X96520000Y-124460000D03*
X99060000Y-124460000D03*
X101600000Y-124460000D03*
X91440000Y-121920000D03*
X93980000Y-121920000D03*
X96520000Y-121920000D03*
X99060000Y-121920000D03*
X101600000Y-121920000D03*
X91440000Y-116840000D03*
X93980000Y-116840000D03*
X96520000Y-116840000D03*
X99060000Y-116840000D03*
X101600000Y-116840000D03*
X91440000Y-119380000D03*
X93980000Y-119380000D03*
X96520000Y-119380000D03*
X99060000Y-119380000D03*
X101600000Y-119380000D03*
X106680000Y-124460000D03*
X106680000Y-121920000D03*
X106680000Y-119380000D03*
X106680000Y-116840000D03*
X106680000Y-114300000D03*
X104140000Y-124460000D03*
X104140000Y-121920000D03*
X104140000Y-119380000D03*
X104140000Y-116840000D03*
X104140000Y-114300000D03*
X91440000Y-114300000D03*
X93980000Y-114300000D03*
X96520000Y-114300000D03*
X99060000Y-114300000D03*
X101600000Y-114300000D03*
X86360000Y-124460000D03*
X88900000Y-124460000D03*
X86360000Y-99060000D03*
X88900000Y-99060000D03*
X86360000Y-104140000D03*
X88900000Y-104140000D03*
X86360000Y-106680000D03*
X88900000Y-106680000D03*
X86360000Y-96520000D03*
X88900000Y-96520000D03*
X86360000Y-101600000D03*
X88900000Y-101600000D03*
X86360000Y-114300000D03*
X88900000Y-114300000D03*
X86360000Y-109220000D03*
X88900000Y-109220000D03*
X86360000Y-111760000D03*
X88900000Y-111760000D03*
X91440000Y-101600000D03*
X93980000Y-101600000D03*
X96520000Y-101600000D03*
X99060000Y-101600000D03*
X101600000Y-101600000D03*
X91440000Y-104140000D03*
X93980000Y-104140000D03*
X96520000Y-104140000D03*
X99060000Y-104140000D03*
X101600000Y-104140000D03*
X91440000Y-111760000D03*
X93980000Y-111760000D03*
X96520000Y-111760000D03*
X99060000Y-111760000D03*
X101600000Y-111760000D03*
X91440000Y-109220000D03*
X93980000Y-109220000D03*
X96520000Y-109220000D03*
X99060000Y-109220000D03*
X101600000Y-109220000D03*
X106680000Y-111760000D03*
X106680000Y-109220000D03*
X106680000Y-106680000D03*
X106680000Y-104140000D03*
X106680000Y-101600000D03*
X104140000Y-111760000D03*
X104140000Y-109220000D03*
X104140000Y-106680000D03*
X104140000Y-104140000D03*
X104140000Y-101600000D03*
X91440000Y-106680000D03*
X93980000Y-106680000D03*
X96520000Y-106680000D03*
X99060000Y-106680000D03*
X101600000Y-106680000D03*
X86360000Y-149860000D03*
X88900000Y-149860000D03*
X86360000Y-157480000D03*
X88900000Y-157480000D03*
X86360000Y-154940000D03*
X88900000Y-154940000D03*
X86360000Y-152400000D03*
X88900000Y-152400000D03*
X106680000Y-162560000D03*
X106680000Y-160020000D03*
X106680000Y-157480000D03*
X106680000Y-154940000D03*
X106680000Y-152400000D03*
X91440000Y-162560000D03*
X93980000Y-162560000D03*
X96520000Y-162560000D03*
X99060000Y-162560000D03*
X101600000Y-162560000D03*
X106680000Y-170180000D03*
X106680000Y-167640000D03*
X106680000Y-165100000D03*
X104140000Y-162560000D03*
X104140000Y-160020000D03*
X104140000Y-157480000D03*
X104140000Y-154940000D03*
X104140000Y-152400000D03*
X104140000Y-170180000D03*
X104140000Y-167640000D03*
X104140000Y-165100000D03*
X73660000Y-160020000D03*
X76200000Y-160020000D03*
X78740000Y-160020000D03*
X81280000Y-160020000D03*
X83820000Y-160020000D03*
X73660000Y-162560000D03*
X76200000Y-162560000D03*
X78740000Y-162560000D03*
X81280000Y-162560000D03*
X83820000Y-162560000D03*
X71120000Y-162560000D03*
X71120000Y-160020000D03*
X71120000Y-157480000D03*
X71120000Y-154940000D03*
X71120000Y-152400000D03*
X73660000Y-152400000D03*
X76200000Y-152400000D03*
X78740000Y-152400000D03*
X81280000Y-152400000D03*
X83820000Y-152400000D03*
X73660000Y-149860000D03*
X76200000Y-149860000D03*
X78740000Y-149860000D03*
X81280000Y-149860000D03*
X83820000Y-149860000D03*
X73660000Y-154940000D03*
X76200000Y-154940000D03*
X78740000Y-154940000D03*
X81280000Y-154940000D03*
X83820000Y-154940000D03*
X68580000Y-162560000D03*
X68580000Y-160020000D03*
X68580000Y-157480000D03*
X68580000Y-154940000D03*
X68580000Y-152400000D03*
X73660000Y-157480000D03*
X76200000Y-157480000D03*
X78740000Y-157480000D03*
X81280000Y-157480000D03*
X83820000Y-157480000D03*
X73660000Y-165100000D03*
X76200000Y-165100000D03*
X78740000Y-165100000D03*
X81280000Y-165100000D03*
X83820000Y-165100000D03*
X71120000Y-170180000D03*
X71120000Y-167640000D03*
X71120000Y-165100000D03*
X68580000Y-170180000D03*
X68580000Y-167640000D03*
X68580000Y-165100000D03*
X73660000Y-167640000D03*
X76200000Y-167640000D03*
X78740000Y-167640000D03*
X81280000Y-167640000D03*
X83820000Y-167640000D03*
X86360000Y-160020000D03*
X88900000Y-160020000D03*
X86360000Y-162560000D03*
X88900000Y-162560000D03*
X73660000Y-170180000D03*
X76200000Y-170180000D03*
X78740000Y-170180000D03*
X81280000Y-170180000D03*
X83820000Y-170180000D03*
X86360000Y-165100000D03*
X88900000Y-165100000D03*
X91440000Y-167640000D03*
X93980000Y-167640000D03*
X96520000Y-167640000D03*
X99060000Y-167640000D03*
X101600000Y-167640000D03*
X86360000Y-170180000D03*
X88900000Y-170180000D03*
X91440000Y-170180000D03*
X93980000Y-170180000D03*
X96520000Y-170180000D03*
X99060000Y-170180000D03*
X101600000Y-170180000D03*
X91440000Y-165100000D03*
X93980000Y-165100000D03*
X96520000Y-165100000D03*
X99060000Y-165100000D03*
X101600000Y-165100000D03*
X86360000Y-167640000D03*
X88900000Y-167640000D03*
X91440000Y-154940000D03*
X93980000Y-154940000D03*
X96520000Y-154940000D03*
X99060000Y-154940000D03*
X101600000Y-154940000D03*
X91440000Y-152400000D03*
X93980000Y-152400000D03*
X96520000Y-152400000D03*
X99060000Y-152400000D03*
X101600000Y-152400000D03*
X91440000Y-149860000D03*
X93980000Y-149860000D03*
X96520000Y-149860000D03*
X99060000Y-149860000D03*
X101600000Y-149860000D03*
X91440000Y-160020000D03*
X93980000Y-160020000D03*
X96520000Y-160020000D03*
X99060000Y-160020000D03*
X101600000Y-160020000D03*
X91440000Y-157480000D03*
X93980000Y-157480000D03*
X96520000Y-157480000D03*
X99060000Y-157480000D03*
X101600000Y-157480000D03*
X73660000Y-137160000D03*
X76200000Y-137160000D03*
X78740000Y-137160000D03*
X81280000Y-137160000D03*
X83820000Y-137160000D03*
X68580000Y-137160000D03*
X68580000Y-134620000D03*
X68580000Y-132080000D03*
X68580000Y-129540000D03*
X68580000Y-127000000D03*
X71120000Y-137160000D03*
X71120000Y-134620000D03*
X71120000Y-132080000D03*
X71120000Y-129540000D03*
X71120000Y-127000000D03*
X73660000Y-134620000D03*
X76200000Y-134620000D03*
X78740000Y-134620000D03*
X81280000Y-134620000D03*
X83820000Y-134620000D03*
X86360000Y-127000000D03*
X88900000Y-127000000D03*
X73660000Y-132080000D03*
X76200000Y-132080000D03*
X78740000Y-132080000D03*
X81280000Y-132080000D03*
X83820000Y-132080000D03*
X73660000Y-129540000D03*
X76200000Y-129540000D03*
X78740000Y-129540000D03*
X81280000Y-129540000D03*
X83820000Y-129540000D03*
X73660000Y-127000000D03*
X76200000Y-127000000D03*
X78740000Y-127000000D03*
X81280000Y-127000000D03*
X83820000Y-127000000D03*
X91440000Y-127000000D03*
X93980000Y-127000000D03*
X96520000Y-127000000D03*
X99060000Y-127000000D03*
X101600000Y-127000000D03*
X106680000Y-137160000D03*
X106680000Y-134620000D03*
X106680000Y-132080000D03*
X106680000Y-129540000D03*
X106680000Y-127000000D03*
X104140000Y-137160000D03*
X104140000Y-134620000D03*
X104140000Y-132080000D03*
X104140000Y-129540000D03*
X104140000Y-127000000D03*
X91440000Y-137160000D03*
X93980000Y-137160000D03*
X96520000Y-137160000D03*
X99060000Y-137160000D03*
X101600000Y-137160000D03*
X91440000Y-134620000D03*
X93980000Y-134620000D03*
X96520000Y-134620000D03*
X99060000Y-134620000D03*
X101600000Y-134620000D03*
X91440000Y-129540000D03*
X93980000Y-129540000D03*
X96520000Y-129540000D03*
X99060000Y-129540000D03*
X101600000Y-129540000D03*
X91440000Y-132080000D03*
X93980000Y-132080000D03*
X96520000Y-132080000D03*
X99060000Y-132080000D03*
X101600000Y-132080000D03*
X86360000Y-147320000D03*
X88900000Y-147320000D03*
X86360000Y-144780000D03*
X88900000Y-144780000D03*
X86360000Y-142240000D03*
X88900000Y-142240000D03*
X86360000Y-139700000D03*
X88900000Y-139700000D03*
X86360000Y-137160000D03*
X88900000Y-137160000D03*
X86360000Y-134620000D03*
X88900000Y-134620000D03*
X86360000Y-129540000D03*
X88900000Y-129540000D03*
X86360000Y-132080000D03*
X88900000Y-132080000D03*
X73660000Y-147320000D03*
X76200000Y-147320000D03*
X78740000Y-147320000D03*
X81280000Y-147320000D03*
X83820000Y-147320000D03*
X71120000Y-149860000D03*
X71120000Y-147320000D03*
X71120000Y-144780000D03*
X71120000Y-142240000D03*
X71120000Y-139700000D03*
X73660000Y-144780000D03*
X76200000Y-144780000D03*
X78740000Y-144780000D03*
X81280000Y-144780000D03*
X83820000Y-144780000D03*
X73660000Y-139700000D03*
X76200000Y-139700000D03*
X78740000Y-139700000D03*
X81280000Y-139700000D03*
X83820000Y-139700000D03*
X68580000Y-149860000D03*
X68580000Y-147320000D03*
X68580000Y-144780000D03*
X68580000Y-142240000D03*
X68580000Y-139700000D03*
X73660000Y-142240000D03*
X76200000Y-142240000D03*
X78740000Y-142240000D03*
X81280000Y-142240000D03*
X83820000Y-142240000D03*
X91440000Y-144780000D03*
X93980000Y-144780000D03*
X96520000Y-144780000D03*
X99060000Y-144780000D03*
X101600000Y-144780000D03*
X106680000Y-149860000D03*
X106680000Y-147320000D03*
X106680000Y-144780000D03*
X106680000Y-142240000D03*
X106680000Y-139700000D03*
X104140000Y-149860000D03*
X104140000Y-147320000D03*
X104140000Y-144780000D03*
X104140000Y-142240000D03*
X104140000Y-139700000D03*
X91440000Y-139700000D03*
X93980000Y-139700000D03*
X96520000Y-139700000D03*
X99060000Y-139700000D03*
X101600000Y-139700000D03*
X91440000Y-147320000D03*
X93980000Y-147320000D03*
X96520000Y-147320000D03*
X99060000Y-147320000D03*
X101600000Y-147320000D03*
X91440000Y-142240000D03*
X93980000Y-142240000D03*
X96520000Y-142240000D03*
X99060000Y-142240000D03*
X101600000Y-142240000D03*
X86360000Y-63500000D03*
X88900000Y-63500000D03*
X86360000Y-73660000D03*
X88900000Y-73660000D03*
X86360000Y-68580000D03*
X88900000Y-68580000D03*
X86360000Y-66040000D03*
X88900000Y-66040000D03*
X91440000Y-73660000D03*
X93980000Y-73660000D03*
X96520000Y-73660000D03*
X99060000Y-73660000D03*
X101600000Y-73660000D03*
X104140000Y-73660000D03*
X104140000Y-71120000D03*
X104140000Y-68580000D03*
X104140000Y-66040000D03*
X104140000Y-63500000D03*
X91440000Y-66040000D03*
X93980000Y-66040000D03*
X96520000Y-66040000D03*
X99060000Y-66040000D03*
X101600000Y-66040000D03*
X91440000Y-71120000D03*
X93980000Y-71120000D03*
X96520000Y-71120000D03*
X99060000Y-71120000D03*
X101600000Y-71120000D03*
X91440000Y-63500000D03*
X93980000Y-63500000D03*
X96520000Y-63500000D03*
X99060000Y-63500000D03*
X101600000Y-63500000D03*
X106680000Y-73660000D03*
X106680000Y-71120000D03*
X106680000Y-68580000D03*
X106680000Y-66040000D03*
X106680000Y-63500000D03*
X91440000Y-60960000D03*
X93980000Y-60960000D03*
X96520000Y-60960000D03*
X99060000Y-60960000D03*
X101600000Y-60960000D03*
X91440000Y-68580000D03*
X93980000Y-68580000D03*
X96520000Y-68580000D03*
X99060000Y-68580000D03*
X101600000Y-68580000D03*
X91440000Y-55880000D03*
X93980000Y-55880000D03*
X96520000Y-55880000D03*
X99060000Y-55880000D03*
X101600000Y-55880000D03*
X91440000Y-53340000D03*
X93980000Y-53340000D03*
X96520000Y-53340000D03*
X99060000Y-53340000D03*
X101600000Y-53340000D03*
X106680000Y-60960000D03*
X106680000Y-58420000D03*
X106680000Y-55880000D03*
X106680000Y-53340000D03*
X106680000Y-50800000D03*
X104140000Y-60960000D03*
X104140000Y-58420000D03*
X104140000Y-55880000D03*
X104140000Y-53340000D03*
X104140000Y-50800000D03*
X91440000Y-50800000D03*
X93980000Y-50800000D03*
X96520000Y-50800000D03*
X99060000Y-50800000D03*
X101600000Y-50800000D03*
X86360000Y-60960000D03*
X88900000Y-60960000D03*
X86360000Y-55880000D03*
X88900000Y-55880000D03*
X86360000Y-58420000D03*
X88900000Y-58420000D03*
X86360000Y-53340000D03*
X88900000Y-53340000D03*
X86360000Y-50800000D03*
X88900000Y-50800000D03*
X91440000Y-58420000D03*
X93980000Y-58420000D03*
X96520000Y-58420000D03*
X99060000Y-58420000D03*
X101600000Y-58420000D03*
X91440000Y-83820000D03*
X93980000Y-83820000D03*
X96520000Y-83820000D03*
X99060000Y-83820000D03*
X101600000Y-83820000D03*
X91440000Y-76200000D03*
X93980000Y-76200000D03*
X96520000Y-76200000D03*
X99060000Y-76200000D03*
X101600000Y-76200000D03*
X106680000Y-86360000D03*
X106680000Y-83820000D03*
X106680000Y-81280000D03*
X106680000Y-78740000D03*
X106680000Y-76200000D03*
X91440000Y-81280000D03*
X93980000Y-81280000D03*
X96520000Y-81280000D03*
X99060000Y-81280000D03*
X101600000Y-81280000D03*
X91440000Y-78740000D03*
X93980000Y-78740000D03*
X96520000Y-78740000D03*
X99060000Y-78740000D03*
X101600000Y-78740000D03*
X104140000Y-86360000D03*
X104140000Y-83820000D03*
X104140000Y-81280000D03*
X104140000Y-78740000D03*
X104140000Y-76200000D03*
X91440000Y-86360000D03*
X93980000Y-86360000D03*
X96520000Y-86360000D03*
X99060000Y-86360000D03*
X101600000Y-86360000D03*
X116840000Y-111760000D03*
X116840000Y-109220000D03*
X116840000Y-106680000D03*
X116840000Y-104140000D03*
X116840000Y-101600000D03*
X114300000Y-111760000D03*
X114300000Y-109220000D03*
X114300000Y-106680000D03*
X114300000Y-104140000D03*
X114300000Y-101600000D03*
X116840000Y-124460000D03*
X116840000Y-121920000D03*
X116840000Y-119380000D03*
X116840000Y-116840000D03*
X116840000Y-114300000D03*
X114300000Y-124460000D03*
X114300000Y-121920000D03*
X114300000Y-119380000D03*
X114300000Y-116840000D03*
X114300000Y-114300000D03*
X116840000Y-137160000D03*
X116840000Y-134620000D03*
X116840000Y-132080000D03*
X116840000Y-129540000D03*
X116840000Y-127000000D03*
X114300000Y-137160000D03*
X114300000Y-134620000D03*
X114300000Y-132080000D03*
X114300000Y-129540000D03*
X114300000Y-127000000D03*
X116840000Y-99060000D03*
X116840000Y-96520000D03*
X116840000Y-93980000D03*
X116840000Y-91440000D03*
X116840000Y-88900000D03*
X114300000Y-99060000D03*
X114300000Y-96520000D03*
X114300000Y-93980000D03*
X114300000Y-91440000D03*
X114300000Y-88900000D03*
X116840000Y-86360000D03*
X116840000Y-83820000D03*
X116840000Y-81280000D03*
X116840000Y-78740000D03*
X116840000Y-76200000D03*
X114300000Y-86360000D03*
X114300000Y-83820000D03*
X114300000Y-81280000D03*
X114300000Y-78740000D03*
X114300000Y-76200000D03*
X116840000Y-60960000D03*
X116840000Y-58420000D03*
X116840000Y-55880000D03*
X116840000Y-53340000D03*
X116840000Y-50800000D03*
X114300000Y-60960000D03*
X114300000Y-58420000D03*
X114300000Y-55880000D03*
X114300000Y-53340000D03*
X114300000Y-50800000D03*
X116840000Y-73660000D03*
X116840000Y-71120000D03*
X116840000Y-68580000D03*
X116840000Y-66040000D03*
X116840000Y-63500000D03*
X114300000Y-73660000D03*
X114300000Y-71120000D03*
X114300000Y-68580000D03*
X114300000Y-66040000D03*
X114300000Y-63500000D03*
X116840000Y-149860000D03*
X116840000Y-147320000D03*
X116840000Y-144780000D03*
X116840000Y-142240000D03*
X116840000Y-139700000D03*
X114300000Y-149860000D03*
X114300000Y-147320000D03*
X114300000Y-144780000D03*
X114300000Y-142240000D03*
X114300000Y-139700000D03*
X116840000Y-170180000D03*
X116840000Y-167640000D03*
X116840000Y-165100000D03*
X114300000Y-170180000D03*
X114300000Y-167640000D03*
X114300000Y-165100000D03*
X116840000Y-162560000D03*
X116840000Y-160020000D03*
X116840000Y-157480000D03*
X116840000Y-154940000D03*
X116840000Y-152400000D03*
X114300000Y-162560000D03*
X114300000Y-160020000D03*
X114300000Y-157480000D03*
X114300000Y-154940000D03*
X114300000Y-152400000D03*
X152400000Y-111760000D03*
X152400000Y-109220000D03*
X152400000Y-106680000D03*
X152400000Y-104140000D03*
X152400000Y-101600000D03*
X152400000Y-124460000D03*
X152400000Y-121920000D03*
X152400000Y-119380000D03*
X152400000Y-116840000D03*
X152400000Y-114300000D03*
X152400000Y-137160000D03*
X152400000Y-134620000D03*
X152400000Y-132080000D03*
X152400000Y-129540000D03*
X152400000Y-127000000D03*
X152400000Y-99060000D03*
X152400000Y-96520000D03*
X152400000Y-93980000D03*
X152400000Y-91440000D03*
X152400000Y-88900000D03*
X152400000Y-86360000D03*
X152400000Y-83820000D03*
X152400000Y-81280000D03*
X152400000Y-78740000D03*
X152400000Y-76200000D03*
X152400000Y-60960000D03*
X152400000Y-58420000D03*
X152400000Y-55880000D03*
X152400000Y-53340000D03*
X152400000Y-50800000D03*
X152400000Y-73660000D03*
X152400000Y-71120000D03*
X152400000Y-68580000D03*
X152400000Y-66040000D03*
X152400000Y-63500000D03*
X152400000Y-149860000D03*
X152400000Y-147320000D03*
X152400000Y-144780000D03*
X152400000Y-142240000D03*
X152400000Y-139700000D03*
X152400000Y-170180000D03*
X152400000Y-167640000D03*
X152400000Y-165100000D03*
X152400000Y-162560000D03*
X152400000Y-160020000D03*
X152400000Y-157480000D03*
X152400000Y-154940000D03*
X152400000Y-152400000D03*
X149860000Y-162560000D03*
X149860000Y-160020000D03*
X149860000Y-157480000D03*
X149860000Y-154940000D03*
X149860000Y-152400000D03*
X149860000Y-149860000D03*
X149860000Y-147320000D03*
X149860000Y-144780000D03*
X149860000Y-142240000D03*
X149860000Y-139700000D03*
X149860000Y-137160000D03*
X149860000Y-134620000D03*
X149860000Y-132080000D03*
X149860000Y-129540000D03*
X149860000Y-127000000D03*
X149860000Y-124460000D03*
X149860000Y-121920000D03*
X149860000Y-119380000D03*
X149860000Y-116840000D03*
X149860000Y-114300000D03*
X149860000Y-111760000D03*
X149860000Y-109220000D03*
X149860000Y-106680000D03*
X149860000Y-104140000D03*
X149860000Y-101600000D03*
X149860000Y-99060000D03*
X149860000Y-96520000D03*
X149860000Y-93980000D03*
X149860000Y-91440000D03*
X149860000Y-88900000D03*
X149860000Y-86360000D03*
X149860000Y-83820000D03*
X149860000Y-81280000D03*
X149860000Y-78740000D03*
X149860000Y-76200000D03*
X149860000Y-73660000D03*
X149860000Y-71120000D03*
X149860000Y-68580000D03*
X149860000Y-66040000D03*
X149860000Y-63500000D03*
X119380000Y-137160000D03*
X121920000Y-137160000D03*
X124460000Y-137160000D03*
X127000000Y-137160000D03*
X129540000Y-137160000D03*
X119380000Y-134620000D03*
X121920000Y-134620000D03*
X124460000Y-134620000D03*
X127000000Y-134620000D03*
X129540000Y-134620000D03*
X119380000Y-104140000D03*
X121920000Y-104140000D03*
X124460000Y-104140000D03*
X127000000Y-104140000D03*
X129540000Y-104140000D03*
X119380000Y-106680000D03*
X121920000Y-106680000D03*
X124460000Y-106680000D03*
X127000000Y-106680000D03*
X129540000Y-106680000D03*
X119380000Y-127000000D03*
X121920000Y-127000000D03*
X124460000Y-127000000D03*
X127000000Y-127000000D03*
X129540000Y-127000000D03*
X119380000Y-121920000D03*
X121920000Y-121920000D03*
X124460000Y-121920000D03*
X127000000Y-121920000D03*
X129540000Y-121920000D03*
X119380000Y-132080000D03*
X121920000Y-132080000D03*
X124460000Y-132080000D03*
X127000000Y-132080000D03*
X129540000Y-132080000D03*
X119380000Y-124460000D03*
X121920000Y-124460000D03*
X124460000Y-124460000D03*
X127000000Y-124460000D03*
X129540000Y-124460000D03*
X119380000Y-129540000D03*
X121920000Y-129540000D03*
X124460000Y-129540000D03*
X127000000Y-129540000D03*
X129540000Y-129540000D03*
X119380000Y-119380000D03*
X121920000Y-119380000D03*
X124460000Y-119380000D03*
X127000000Y-119380000D03*
X129540000Y-119380000D03*
X119380000Y-114300000D03*
X121920000Y-114300000D03*
X124460000Y-114300000D03*
X127000000Y-114300000D03*
X129540000Y-114300000D03*
X119380000Y-116840000D03*
X121920000Y-116840000D03*
X124460000Y-116840000D03*
X127000000Y-116840000D03*
X129540000Y-116840000D03*
X119380000Y-111760000D03*
X121920000Y-111760000D03*
X124460000Y-111760000D03*
X127000000Y-111760000D03*
X129540000Y-111760000D03*
X119380000Y-109220000D03*
X121920000Y-109220000D03*
X124460000Y-109220000D03*
X127000000Y-109220000D03*
X129540000Y-109220000D03*
X119380000Y-76200000D03*
X121920000Y-76200000D03*
X124460000Y-76200000D03*
X127000000Y-76200000D03*
X129540000Y-76200000D03*
X119380000Y-78740000D03*
X121920000Y-78740000D03*
X124460000Y-78740000D03*
X127000000Y-78740000D03*
X129540000Y-78740000D03*
X119380000Y-81280000D03*
X121920000Y-81280000D03*
X124460000Y-81280000D03*
X127000000Y-81280000D03*
X129540000Y-81280000D03*
X119380000Y-83820000D03*
X121920000Y-83820000D03*
X124460000Y-83820000D03*
X127000000Y-83820000D03*
X129540000Y-83820000D03*
X119380000Y-86360000D03*
X121920000Y-86360000D03*
X124460000Y-86360000D03*
X127000000Y-86360000D03*
X129540000Y-86360000D03*
X119380000Y-88900000D03*
X121920000Y-88900000D03*
X124460000Y-88900000D03*
X127000000Y-88900000D03*
X129540000Y-88900000D03*
X119380000Y-101600000D03*
X121920000Y-101600000D03*
X124460000Y-101600000D03*
X127000000Y-101600000D03*
X129540000Y-101600000D03*
X119380000Y-91440000D03*
X121920000Y-91440000D03*
X124460000Y-91440000D03*
X127000000Y-91440000D03*
X129540000Y-91440000D03*
X119380000Y-99060000D03*
X121920000Y-99060000D03*
X124460000Y-99060000D03*
X127000000Y-99060000D03*
X129540000Y-99060000D03*
X119380000Y-93980000D03*
X121920000Y-93980000D03*
X124460000Y-93980000D03*
X127000000Y-93980000D03*
X129540000Y-93980000D03*
X119380000Y-96520000D03*
X121920000Y-96520000D03*
X124460000Y-96520000D03*
X127000000Y-96520000D03*
X129540000Y-96520000D03*
X119380000Y-60960000D03*
X121920000Y-60960000D03*
X124460000Y-60960000D03*
X127000000Y-60960000D03*
X129540000Y-60960000D03*
X119380000Y-50800000D03*
X121920000Y-50800000D03*
X124460000Y-50800000D03*
X127000000Y-50800000D03*
X129540000Y-50800000D03*
X119380000Y-53340000D03*
X121920000Y-53340000D03*
X124460000Y-53340000D03*
X127000000Y-53340000D03*
X129540000Y-53340000D03*
X119380000Y-55880000D03*
X121920000Y-55880000D03*
X124460000Y-55880000D03*
X127000000Y-55880000D03*
X129540000Y-55880000D03*
X119380000Y-58420000D03*
X121920000Y-58420000D03*
X124460000Y-58420000D03*
X127000000Y-58420000D03*
X129540000Y-58420000D03*
X119380000Y-73660000D03*
X121920000Y-73660000D03*
X124460000Y-73660000D03*
X127000000Y-73660000D03*
X129540000Y-73660000D03*
X119380000Y-71120000D03*
X121920000Y-71120000D03*
X124460000Y-71120000D03*
X127000000Y-71120000D03*
X129540000Y-71120000D03*
X119380000Y-66040000D03*
X121920000Y-66040000D03*
X124460000Y-66040000D03*
X127000000Y-66040000D03*
X129540000Y-66040000D03*
X119380000Y-68580000D03*
X121920000Y-68580000D03*
X124460000Y-68580000D03*
X127000000Y-68580000D03*
X129540000Y-68580000D03*
X119380000Y-63500000D03*
X121920000Y-63500000D03*
X124460000Y-63500000D03*
X127000000Y-63500000D03*
X129540000Y-63500000D03*
X119380000Y-139700000D03*
X121920000Y-139700000D03*
X124460000Y-139700000D03*
X127000000Y-139700000D03*
X129540000Y-139700000D03*
X119380000Y-154940000D03*
X121920000Y-154940000D03*
X124460000Y-154940000D03*
X127000000Y-154940000D03*
X129540000Y-154940000D03*
X119380000Y-157480000D03*
X121920000Y-157480000D03*
X124460000Y-157480000D03*
X127000000Y-157480000D03*
X129540000Y-157480000D03*
X119380000Y-144780000D03*
X121920000Y-144780000D03*
X124460000Y-144780000D03*
X127000000Y-144780000D03*
X129540000Y-144780000D03*
X119380000Y-142240000D03*
X121920000Y-142240000D03*
X124460000Y-142240000D03*
X127000000Y-142240000D03*
X129540000Y-142240000D03*
X119380000Y-147320000D03*
X121920000Y-147320000D03*
X124460000Y-147320000D03*
X127000000Y-147320000D03*
X129540000Y-147320000D03*
X119380000Y-152400000D03*
X121920000Y-152400000D03*
X124460000Y-152400000D03*
X127000000Y-152400000D03*
X129540000Y-152400000D03*
X119380000Y-149860000D03*
X121920000Y-149860000D03*
X124460000Y-149860000D03*
X127000000Y-149860000D03*
X129540000Y-149860000D03*
X119380000Y-162560000D03*
X121920000Y-162560000D03*
X124460000Y-162560000D03*
X127000000Y-162560000D03*
X129540000Y-162560000D03*
X119380000Y-167640000D03*
X121920000Y-167640000D03*
X124460000Y-167640000D03*
X127000000Y-167640000D03*
X129540000Y-167640000D03*
X119380000Y-160020000D03*
X121920000Y-160020000D03*
X124460000Y-160020000D03*
X127000000Y-160020000D03*
X129540000Y-160020000D03*
X119380000Y-170180000D03*
X121920000Y-170180000D03*
X124460000Y-170180000D03*
X127000000Y-170180000D03*
X129540000Y-170180000D03*
X119380000Y-165100000D03*
X121920000Y-165100000D03*
X124460000Y-165100000D03*
X127000000Y-165100000D03*
X129540000Y-165100000D03*
X132080000Y-160020000D03*
X134620000Y-160020000D03*
X132080000Y-157480000D03*
X134620000Y-157480000D03*
X132080000Y-162560000D03*
X134620000Y-162560000D03*
X132080000Y-154940000D03*
X134620000Y-154940000D03*
X132080000Y-152400000D03*
X134620000Y-152400000D03*
X132080000Y-142240000D03*
X134620000Y-142240000D03*
X132080000Y-147320000D03*
X134620000Y-147320000D03*
X132080000Y-149860000D03*
X134620000Y-149860000D03*
X132080000Y-144780000D03*
X134620000Y-144780000D03*
X132080000Y-134620000D03*
X134620000Y-134620000D03*
X132080000Y-132080000D03*
X134620000Y-132080000D03*
X132080000Y-137160000D03*
X134620000Y-137160000D03*
X132080000Y-139700000D03*
X134620000Y-139700000D03*
X132080000Y-116840000D03*
X134620000Y-116840000D03*
X132080000Y-119380000D03*
X134620000Y-119380000D03*
X132080000Y-114300000D03*
X134620000Y-114300000D03*
X132080000Y-111760000D03*
X134620000Y-111760000D03*
X132080000Y-121920000D03*
X134620000Y-121920000D03*
X132080000Y-124460000D03*
X134620000Y-124460000D03*
X132080000Y-127000000D03*
X134620000Y-127000000D03*
X132080000Y-129540000D03*
X134620000Y-129540000D03*
X132080000Y-165100000D03*
X134620000Y-165100000D03*
X132080000Y-167640000D03*
X134620000Y-167640000D03*
X132080000Y-170180000D03*
X134620000Y-170180000D03*
X132080000Y-81280000D03*
X134620000Y-81280000D03*
X132080000Y-86360000D03*
X134620000Y-86360000D03*
X132080000Y-83820000D03*
X134620000Y-83820000D03*
X132080000Y-88900000D03*
X134620000Y-88900000D03*
X132080000Y-99060000D03*
X134620000Y-99060000D03*
X132080000Y-96520000D03*
X134620000Y-96520000D03*
X132080000Y-93980000D03*
X134620000Y-93980000D03*
X132080000Y-101600000D03*
X134620000Y-101600000D03*
X132080000Y-91440000D03*
X134620000Y-91440000D03*
X132080000Y-109220000D03*
X134620000Y-109220000D03*
X132080000Y-106680000D03*
X134620000Y-106680000D03*
X132080000Y-104140000D03*
X134620000Y-104140000D03*
X132080000Y-73660000D03*
X134620000Y-73660000D03*
X132080000Y-68580000D03*
X134620000Y-68580000D03*
X132080000Y-66040000D03*
X134620000Y-66040000D03*
X132080000Y-71120000D03*
X134620000Y-71120000D03*
X132080000Y-76200000D03*
X134620000Y-76200000D03*
X132080000Y-78740000D03*
X134620000Y-78740000D03*
X132080000Y-63500000D03*
X134620000Y-63500000D03*
X132080000Y-60960000D03*
X134620000Y-60960000D03*
X132080000Y-58420000D03*
X134620000Y-58420000D03*
X132080000Y-55880000D03*
X134620000Y-55880000D03*
X132080000Y-53340000D03*
X134620000Y-53340000D03*
X137160000Y-160020000D03*
X139700000Y-160020000D03*
X142240000Y-160020000D03*
X144780000Y-160020000D03*
X147320000Y-160020000D03*
X137160000Y-165100000D03*
X139700000Y-165100000D03*
X142240000Y-165100000D03*
X144780000Y-165100000D03*
X147320000Y-165100000D03*
X137160000Y-170180000D03*
X139700000Y-170180000D03*
X142240000Y-170180000D03*
X144780000Y-170180000D03*
X147320000Y-170180000D03*
X137160000Y-167640000D03*
X139700000Y-167640000D03*
X142240000Y-167640000D03*
X144780000Y-167640000D03*
X147320000Y-167640000D03*
X137160000Y-162560000D03*
X139700000Y-162560000D03*
X142240000Y-162560000D03*
X144780000Y-162560000D03*
X147320000Y-162560000D03*
X137160000Y-144780000D03*
X139700000Y-144780000D03*
X142240000Y-144780000D03*
X144780000Y-144780000D03*
X147320000Y-144780000D03*
X137160000Y-134620000D03*
X139700000Y-134620000D03*
X142240000Y-134620000D03*
X144780000Y-134620000D03*
X147320000Y-134620000D03*
X137160000Y-139700000D03*
X139700000Y-139700000D03*
X142240000Y-139700000D03*
X144780000Y-139700000D03*
X147320000Y-139700000D03*
X137160000Y-137160000D03*
X139700000Y-137160000D03*
X142240000Y-137160000D03*
X144780000Y-137160000D03*
X147320000Y-137160000D03*
X137160000Y-142240000D03*
X139700000Y-142240000D03*
X142240000Y-142240000D03*
X144780000Y-142240000D03*
X147320000Y-142240000D03*
X137160000Y-121920000D03*
X139700000Y-121920000D03*
X142240000Y-121920000D03*
X144780000Y-121920000D03*
X147320000Y-121920000D03*
X137160000Y-124460000D03*
X139700000Y-124460000D03*
X142240000Y-124460000D03*
X144780000Y-124460000D03*
X147320000Y-124460000D03*
X137160000Y-129540000D03*
X139700000Y-129540000D03*
X142240000Y-129540000D03*
X144780000Y-129540000D03*
X147320000Y-129540000D03*
X137160000Y-132080000D03*
X139700000Y-132080000D03*
X142240000Y-132080000D03*
X144780000Y-132080000D03*
X147320000Y-132080000D03*
X137160000Y-127000000D03*
X139700000Y-127000000D03*
X142240000Y-127000000D03*
X144780000Y-127000000D03*
X147320000Y-127000000D03*
X137160000Y-119380000D03*
X139700000Y-119380000D03*
X142240000Y-119380000D03*
X144780000Y-119380000D03*
X147320000Y-119380000D03*
X137160000Y-111760000D03*
X139700000Y-111760000D03*
X142240000Y-111760000D03*
X144780000Y-111760000D03*
X147320000Y-111760000D03*
X137160000Y-116840000D03*
X139700000Y-116840000D03*
X142240000Y-116840000D03*
X144780000Y-116840000D03*
X147320000Y-116840000D03*
X137160000Y-114300000D03*
X139700000Y-114300000D03*
X142240000Y-114300000D03*
X144780000Y-114300000D03*
X147320000Y-114300000D03*
X137160000Y-157480000D03*
X139700000Y-157480000D03*
X142240000Y-157480000D03*
X144780000Y-157480000D03*
X147320000Y-157480000D03*
X137160000Y-152400000D03*
X139700000Y-152400000D03*
X142240000Y-152400000D03*
X144780000Y-152400000D03*
X147320000Y-152400000D03*
X137160000Y-149860000D03*
X139700000Y-149860000D03*
X142240000Y-149860000D03*
X144780000Y-149860000D03*
X147320000Y-149860000D03*
X137160000Y-147320000D03*
X139700000Y-147320000D03*
X142240000Y-147320000D03*
X144780000Y-147320000D03*
X147320000Y-147320000D03*
X137160000Y-154940000D03*
X139700000Y-154940000D03*
X142240000Y-154940000D03*
X144780000Y-154940000D03*
X147320000Y-154940000D03*
X137160000Y-83820000D03*
X139700000Y-83820000D03*
X142240000Y-83820000D03*
X144780000Y-83820000D03*
X147320000Y-83820000D03*
X137160000Y-88900000D03*
X139700000Y-88900000D03*
X142240000Y-88900000D03*
X144780000Y-88900000D03*
X147320000Y-88900000D03*
X137160000Y-86360000D03*
X139700000Y-86360000D03*
X142240000Y-86360000D03*
X144780000Y-86360000D03*
X147320000Y-86360000D03*
X137160000Y-81280000D03*
X139700000Y-81280000D03*
X142240000Y-81280000D03*
X144780000Y-81280000D03*
X147320000Y-81280000D03*
X137160000Y-96520000D03*
X139700000Y-96520000D03*
X142240000Y-96520000D03*
X144780000Y-96520000D03*
X147320000Y-96520000D03*
X137160000Y-101600000D03*
X139700000Y-101600000D03*
X142240000Y-101600000D03*
X144780000Y-101600000D03*
X147320000Y-101600000D03*
X137160000Y-104140000D03*
X139700000Y-104140000D03*
X142240000Y-104140000D03*
X144780000Y-104140000D03*
X147320000Y-104140000D03*
X137160000Y-99060000D03*
X139700000Y-99060000D03*
X142240000Y-99060000D03*
X144780000Y-99060000D03*
X147320000Y-99060000D03*
X137160000Y-93980000D03*
X139700000Y-93980000D03*
X142240000Y-93980000D03*
X144780000Y-93980000D03*
X147320000Y-93980000D03*
X137160000Y-91440000D03*
X139700000Y-91440000D03*
X142240000Y-91440000D03*
X144780000Y-91440000D03*
X147320000Y-91440000D03*
X137160000Y-109220000D03*
X139700000Y-109220000D03*
X142240000Y-109220000D03*
X144780000Y-109220000D03*
X147320000Y-109220000D03*
X137160000Y-106680000D03*
X139700000Y-106680000D03*
X142240000Y-106680000D03*
X144780000Y-106680000D03*
X147320000Y-106680000D03*
X137160000Y-78740000D03*
X139700000Y-78740000D03*
X142240000Y-78740000D03*
X144780000Y-78740000D03*
X147320000Y-78740000D03*
X137160000Y-76200000D03*
X139700000Y-76200000D03*
X142240000Y-76200000D03*
X144780000Y-76200000D03*
X147320000Y-76200000D03*
X137160000Y-73660000D03*
X139700000Y-73660000D03*
X142240000Y-73660000D03*
X144780000Y-73660000D03*
X147320000Y-73660000D03*
X137160000Y-71120000D03*
X139700000Y-71120000D03*
X142240000Y-71120000D03*
X144780000Y-71120000D03*
X147320000Y-71120000D03*
X137160000Y-68580000D03*
X139700000Y-68580000D03*
X142240000Y-68580000D03*
X144780000Y-68580000D03*
X147320000Y-68580000D03*
X137160000Y-66040000D03*
X139700000Y-66040000D03*
X142240000Y-66040000D03*
X144780000Y-66040000D03*
X147320000Y-66040000D03*
X137160000Y-63500000D03*
X139700000Y-63500000D03*
X142240000Y-63500000D03*
X144780000Y-63500000D03*
X147320000Y-63500000D03*
X137160000Y-60960000D03*
X139700000Y-60960000D03*
X142240000Y-60960000D03*
X144780000Y-60960000D03*
X147320000Y-60960000D03*
X137160000Y-58420000D03*
X139700000Y-58420000D03*
X142240000Y-58420000D03*
X144780000Y-58420000D03*
X147320000Y-58420000D03*
X137160000Y-55880000D03*
X139700000Y-55880000D03*
X142240000Y-55880000D03*
X144780000Y-55880000D03*
X147320000Y-55880000D03*
X137160000Y-53340000D03*
X139700000Y-53340000D03*
X142240000Y-53340000D03*
X144780000Y-53340000D03*
X147320000Y-53340000D03*
X137160000Y-50800000D03*
X139700000Y-50800000D03*
X142240000Y-50800000D03*
X144780000Y-50800000D03*
X147320000Y-50800000D03*
X132080000Y-50800000D03*
X134620000Y-50800000D03*
X149860000Y-60960000D03*
X149860000Y-58420000D03*
X149860000Y-55880000D03*
X149860000Y-53340000D03*
X149860000Y-50800000D03*
X149860000Y-170180000D03*
X149860000Y-167640000D03*
X149860000Y-165100000D03*
D13*
X78740000Y-76200000D02*
X81280000Y-76200000D01*
X76200000Y-76200000D02*
X78740000Y-76200000D01*
X76200000Y-71120000D02*
X78740000Y-71120000D01*
X76200000Y-73660000D02*
X78740000Y-73660000D01*
X78740000Y-78740000D02*
X81280000Y-78740000D01*
X81280000Y-83820000D02*
X83820000Y-83820000D01*
X81280000Y-78740000D02*
X83820000Y-78740000D01*
X78740000Y-83820000D02*
X81280000Y-83820000D01*
X81280000Y-81280000D02*
X83820000Y-81280000D01*
X78740000Y-81280000D02*
X81280000Y-81280000D01*
X73660000Y-78740000D02*
X76200000Y-78740000D01*
X76200000Y-81280000D02*
X78740000Y-81280000D01*
X76200000Y-83820000D02*
X78740000Y-83820000D01*
X73660000Y-76200000D02*
X76200000Y-76200000D01*
X76200000Y-78740000D02*
X78740000Y-78740000D01*
X73660000Y-73660000D02*
X76200000Y-73660000D01*
X73660000Y-71120000D02*
X76200000Y-71120000D01*
X73660000Y-68580000D02*
X76200000Y-68580000D01*
X71120000Y-71120000D02*
X71120000Y-73660000D01*
X73660000Y-81280000D02*
X76200000Y-81280000D01*
X68580000Y-83820000D02*
X68580000Y-81280000D01*
X71120000Y-83820000D02*
X71120000Y-81280000D01*
X73660000Y-83820000D02*
X76200000Y-83820000D01*
X71120000Y-73660000D02*
X71120000Y-76200000D01*
X71120000Y-76200000D02*
X71120000Y-78740000D01*
X71120000Y-78740000D02*
X71120000Y-81280000D01*
X68580000Y-78740000D02*
X68580000Y-81280000D01*
X68580000Y-76200000D02*
X68580000Y-78740000D01*
X68580000Y-73660000D02*
X68580000Y-76200000D01*
X81280000Y-71120000D02*
X83820000Y-71120000D01*
X81280000Y-73660000D02*
X83820000Y-73660000D01*
X78740000Y-71120000D02*
X81280000Y-71120000D01*
X81280000Y-76200000D02*
X83820000Y-76200000D01*
X78740000Y-73660000D02*
X81280000Y-73660000D01*
X68580000Y-71120000D02*
X68580000Y-73660000D01*
X71120000Y-71120000D02*
X71120000Y-68580000D01*
X68580000Y-71120000D02*
X68580000Y-68580000D01*
X68580000Y-66040000D02*
X68580000Y-68580000D01*
X71120000Y-66040000D02*
X71120000Y-68580000D01*
X73660000Y-50800000D02*
X76200000Y-50800000D01*
X73660000Y-53340000D02*
X76200000Y-53340000D01*
X68580000Y-50800000D02*
X68580000Y-53340000D01*
X68580000Y-53340000D02*
X68580000Y-55880000D01*
X71120000Y-50800000D02*
X71120000Y-53340000D01*
X71120000Y-53340000D02*
X71120000Y-55880000D01*
X73660000Y-55880000D02*
X76200000Y-55880000D01*
X73660000Y-58420000D02*
X76200000Y-58420000D01*
X73660000Y-60960000D02*
X76200000Y-60960000D01*
X71120000Y-58420000D02*
X71120000Y-55880000D01*
X68580000Y-58420000D02*
X68580000Y-55880000D01*
X73660000Y-63500000D02*
X76200000Y-63500000D01*
X73660000Y-66040000D02*
X76200000Y-66040000D01*
X68580000Y-58420000D02*
X68580000Y-60960000D01*
X68580000Y-63500000D02*
X68580000Y-66040000D01*
X71120000Y-60960000D02*
X71120000Y-63500000D01*
X68580000Y-60960000D02*
X68580000Y-63500000D01*
X71120000Y-63500000D02*
X71120000Y-66040000D01*
X71120000Y-58420000D02*
X71120000Y-60960000D01*
X99060000Y-76200000D02*
X101600000Y-76200000D01*
X96520000Y-76200000D02*
X99060000Y-76200000D01*
X96520000Y-73660000D02*
X99060000Y-73660000D01*
X96520000Y-71120000D02*
X99060000Y-71120000D01*
X99060000Y-71120000D02*
X101600000Y-71120000D01*
X96520000Y-78740000D02*
X99060000Y-78740000D01*
X96520000Y-83820000D02*
X99060000Y-83820000D01*
X96520000Y-81280000D02*
X99060000Y-81280000D01*
X93980000Y-83820000D02*
X96520000Y-83820000D01*
X93980000Y-81280000D02*
X96520000Y-81280000D01*
X91440000Y-78740000D02*
X93980000Y-78740000D01*
X91440000Y-81280000D02*
X93980000Y-81280000D01*
X93980000Y-76200000D02*
X96520000Y-76200000D01*
X93980000Y-78740000D02*
X96520000Y-78740000D01*
X91440000Y-76200000D02*
X93980000Y-76200000D01*
X106680000Y-76200000D02*
X106680000Y-78740000D01*
X104140000Y-78740000D02*
X104140000Y-81280000D01*
X104140000Y-76200000D02*
X104140000Y-78740000D01*
X106680000Y-83820000D02*
X106680000Y-81280000D01*
X104140000Y-83820000D02*
X104140000Y-81280000D01*
X106680000Y-78740000D02*
X106680000Y-81280000D01*
X99060000Y-83820000D02*
X101600000Y-83820000D01*
X99060000Y-73660000D02*
X101600000Y-73660000D01*
X104140000Y-73660000D02*
X104140000Y-76200000D01*
X99060000Y-81280000D02*
X101600000Y-81280000D01*
X99060000Y-78740000D02*
X101600000Y-78740000D01*
X86360000Y-76200000D02*
X88900000Y-76200000D01*
X86360000Y-71120000D02*
X88900000Y-71120000D01*
X91440000Y-73660000D02*
X93980000Y-73660000D01*
X93980000Y-71120000D02*
X96520000Y-71120000D01*
X93980000Y-73660000D02*
X96520000Y-73660000D01*
X91440000Y-71120000D02*
X93980000Y-71120000D01*
X86360000Y-73660000D02*
X88900000Y-73660000D01*
X86360000Y-81280000D02*
X88900000Y-81280000D01*
X86360000Y-83820000D02*
X88900000Y-83820000D01*
X91440000Y-83820000D02*
X93980000Y-83820000D01*
X86360000Y-78740000D02*
X88900000Y-78740000D01*
X106680000Y-73660000D02*
X106680000Y-76200000D01*
X106680000Y-71120000D02*
X106680000Y-73660000D01*
X106680000Y-71120000D02*
X106680000Y-68580000D01*
X104140000Y-71120000D02*
X104140000Y-73660000D01*
X104140000Y-71120000D02*
X104140000Y-68580000D01*
X78740000Y-58420000D02*
X81280000Y-58420000D01*
X76200000Y-58420000D02*
X78740000Y-58420000D01*
X81280000Y-58420000D02*
X83820000Y-58420000D01*
X78740000Y-55880000D02*
X81280000Y-55880000D01*
X81280000Y-55880000D02*
X83820000Y-55880000D01*
X76200000Y-55880000D02*
X78740000Y-55880000D01*
X91440000Y-50800000D02*
X93980000Y-50800000D01*
X93980000Y-53340000D02*
X96520000Y-53340000D01*
X93980000Y-50800000D02*
X96520000Y-50800000D01*
X91440000Y-53340000D02*
X93980000Y-53340000D01*
X93980000Y-55880000D02*
X96520000Y-55880000D01*
X91440000Y-55880000D02*
X93980000Y-55880000D01*
X91440000Y-60960000D02*
X93980000Y-60960000D01*
X86360000Y-60960000D02*
X88900000Y-60960000D01*
X91440000Y-63500000D02*
X93980000Y-63500000D01*
X86360000Y-68580000D02*
X88900000Y-68580000D01*
X91440000Y-68580000D02*
X93980000Y-68580000D01*
X91440000Y-66040000D02*
X93980000Y-66040000D01*
X86360000Y-63500000D02*
X88900000Y-63500000D01*
X86360000Y-66040000D02*
X88900000Y-66040000D01*
X86360000Y-55880000D02*
X88900000Y-55880000D01*
X86360000Y-50800000D02*
X88900000Y-50800000D01*
X86360000Y-53340000D02*
X88900000Y-53340000D01*
X86360000Y-58420000D02*
X88900000Y-58420000D01*
X76200000Y-50800000D02*
X78740000Y-50800000D01*
X76200000Y-53340000D02*
X78740000Y-53340000D01*
X78740000Y-53340000D02*
X81280000Y-53340000D01*
X81280000Y-50800000D02*
X83820000Y-50800000D01*
X78740000Y-50800000D02*
X81280000Y-50800000D01*
X81280000Y-53340000D02*
X83820000Y-53340000D01*
X76200000Y-60960000D02*
X78740000Y-60960000D01*
X76200000Y-66040000D02*
X78740000Y-66040000D01*
X78740000Y-63500000D02*
X81280000Y-63500000D01*
X78740000Y-60960000D02*
X81280000Y-60960000D01*
X76200000Y-63500000D02*
X78740000Y-63500000D01*
X78740000Y-66040000D02*
X81280000Y-66040000D01*
X81280000Y-60960000D02*
X83820000Y-60960000D01*
X81280000Y-68580000D02*
X83820000Y-68580000D01*
X81280000Y-63500000D02*
X83820000Y-63500000D01*
X81280000Y-66040000D02*
X83820000Y-66040000D01*
X78740000Y-68580000D02*
X81280000Y-68580000D01*
X76200000Y-68580000D02*
X78740000Y-68580000D01*
X93980000Y-58420000D02*
X96520000Y-58420000D01*
X93980000Y-63500000D02*
X96520000Y-63500000D01*
X93980000Y-66040000D02*
X96520000Y-66040000D01*
X93980000Y-68580000D02*
X96520000Y-68580000D01*
X91440000Y-58420000D02*
X93980000Y-58420000D01*
X93980000Y-60960000D02*
X96520000Y-60960000D01*
X99060000Y-50800000D02*
X101600000Y-50800000D01*
X96520000Y-53340000D02*
X99060000Y-53340000D01*
X99060000Y-53340000D02*
X101600000Y-53340000D01*
X99060000Y-55880000D02*
X101600000Y-55880000D01*
X96520000Y-55880000D02*
X99060000Y-55880000D01*
X96520000Y-50800000D02*
X99060000Y-50800000D01*
X104140000Y-50800000D02*
X104140000Y-53340000D01*
X106680000Y-53340000D02*
X106680000Y-55880000D01*
X106680000Y-50800000D02*
X106680000Y-53340000D01*
X104140000Y-53340000D02*
X104140000Y-55880000D01*
X106680000Y-58420000D02*
X106680000Y-55880000D01*
X104140000Y-58420000D02*
X104140000Y-55880000D01*
X106680000Y-58420000D02*
X106680000Y-60960000D01*
X104140000Y-58420000D02*
X104140000Y-60960000D01*
X96520000Y-58420000D02*
X99060000Y-58420000D01*
X99060000Y-63500000D02*
X101600000Y-63500000D01*
X96520000Y-63500000D02*
X99060000Y-63500000D01*
X96520000Y-60960000D02*
X99060000Y-60960000D01*
X99060000Y-58420000D02*
X101600000Y-58420000D01*
X99060000Y-60960000D02*
X101600000Y-60960000D01*
X96520000Y-68580000D02*
X99060000Y-68580000D01*
X104140000Y-66040000D02*
X104140000Y-68580000D01*
X96520000Y-66040000D02*
X99060000Y-66040000D01*
X99060000Y-66040000D02*
X101600000Y-66040000D01*
X99060000Y-68580000D02*
X101600000Y-68580000D01*
X104140000Y-60960000D02*
X104140000Y-63500000D01*
X106680000Y-60960000D02*
X106680000Y-63500000D01*
X106680000Y-63500000D02*
X106680000Y-66040000D01*
X104140000Y-63500000D02*
X104140000Y-66040000D01*
X106680000Y-66040000D02*
X106680000Y-68580000D01*
X99060000Y-104140000D02*
X101600000Y-104140000D01*
X99060000Y-99060000D02*
X101600000Y-99060000D01*
X99060000Y-101600000D02*
X101600000Y-101600000D01*
X96520000Y-101600000D02*
X99060000Y-101600000D01*
X96520000Y-104140000D02*
X99060000Y-104140000D01*
X93980000Y-106680000D02*
X96520000Y-106680000D01*
X93980000Y-114300000D02*
X96520000Y-114300000D01*
X93980000Y-111760000D02*
X96520000Y-111760000D01*
X91440000Y-109220000D02*
X93980000Y-109220000D01*
X91440000Y-106680000D02*
X93980000Y-106680000D01*
X93980000Y-109220000D02*
X96520000Y-109220000D01*
X91440000Y-111760000D02*
X93980000Y-111760000D01*
X91440000Y-114300000D02*
X93980000Y-114300000D01*
X96520000Y-114300000D02*
X99060000Y-114300000D01*
X96520000Y-111760000D02*
X99060000Y-111760000D01*
X99060000Y-106680000D02*
X101600000Y-106680000D01*
X99060000Y-109220000D02*
X101600000Y-109220000D01*
X96520000Y-109220000D02*
X99060000Y-109220000D01*
X96520000Y-106680000D02*
X99060000Y-106680000D01*
X99060000Y-111760000D02*
X101600000Y-111760000D01*
X99060000Y-114300000D02*
X101600000Y-114300000D01*
X104140000Y-109220000D02*
X104140000Y-111760000D01*
X106680000Y-109220000D02*
X106680000Y-111760000D01*
X106680000Y-114300000D02*
X106680000Y-111760000D01*
X106680000Y-109220000D02*
X106680000Y-106680000D01*
X104140000Y-109220000D02*
X104140000Y-106680000D01*
X104140000Y-114300000D02*
X104140000Y-111760000D01*
X106680000Y-96520000D02*
X106680000Y-99060000D01*
X104140000Y-96520000D02*
X104140000Y-99060000D01*
X106680000Y-101600000D02*
X106680000Y-104140000D01*
X104140000Y-101600000D02*
X104140000Y-99060000D01*
X106680000Y-101600000D02*
X106680000Y-99060000D01*
X104140000Y-101600000D02*
X104140000Y-104140000D01*
X106680000Y-104140000D02*
X106680000Y-106680000D01*
X104140000Y-104140000D02*
X104140000Y-106680000D01*
X93980000Y-101600000D02*
X96520000Y-101600000D01*
X91440000Y-104140000D02*
X93980000Y-104140000D01*
X93980000Y-104140000D02*
X96520000Y-104140000D01*
X91440000Y-101600000D02*
X93980000Y-101600000D01*
X91440000Y-99060000D02*
X93980000Y-99060000D01*
X99060000Y-96520000D02*
X101600000Y-96520000D01*
X91440000Y-96520000D02*
X93980000Y-96520000D01*
X86360000Y-86360000D02*
X88900000Y-86360000D01*
X91440000Y-91440000D02*
X93980000Y-91440000D01*
X91440000Y-88900000D02*
X93980000Y-88900000D01*
X91440000Y-86360000D02*
X93980000Y-86360000D01*
X86360000Y-91440000D02*
X88900000Y-91440000D01*
X86360000Y-88900000D02*
X88900000Y-88900000D01*
X86360000Y-99060000D02*
X88900000Y-99060000D01*
X86360000Y-96520000D02*
X88900000Y-96520000D01*
X91440000Y-93980000D02*
X93980000Y-93980000D01*
X86360000Y-93980000D02*
X88900000Y-93980000D01*
X93980000Y-91440000D02*
X96520000Y-91440000D01*
X93980000Y-88900000D02*
X96520000Y-88900000D01*
X93980000Y-86360000D02*
X96520000Y-86360000D01*
X96520000Y-86360000D02*
X99060000Y-86360000D01*
X96520000Y-88900000D02*
X99060000Y-88900000D01*
X106680000Y-96520000D02*
X106680000Y-93980000D01*
X104140000Y-96520000D02*
X104140000Y-93980000D01*
X106680000Y-88900000D02*
X106680000Y-91440000D01*
X104140000Y-91440000D02*
X104140000Y-93980000D01*
X106680000Y-91440000D02*
X106680000Y-93980000D01*
X99060000Y-93980000D02*
X101600000Y-93980000D01*
X99060000Y-88900000D02*
X101600000Y-88900000D01*
X99060000Y-91440000D02*
X101600000Y-91440000D01*
X99060000Y-86360000D02*
X101600000Y-86360000D01*
X96520000Y-99060000D02*
X99060000Y-99060000D01*
X93980000Y-99060000D02*
X96520000Y-99060000D01*
X93980000Y-96520000D02*
X96520000Y-96520000D01*
X93980000Y-93980000D02*
X96520000Y-93980000D01*
X96520000Y-93980000D02*
X99060000Y-93980000D01*
X96520000Y-91440000D02*
X99060000Y-91440000D01*
X96520000Y-96520000D02*
X99060000Y-96520000D01*
X106680000Y-83820000D02*
X106680000Y-86360000D01*
X104140000Y-83820000D02*
X104140000Y-86360000D01*
X104140000Y-88900000D02*
X104140000Y-91440000D01*
X106680000Y-86360000D02*
X106680000Y-88900000D01*
X104140000Y-86360000D02*
X104140000Y-88900000D01*
X68580000Y-86360000D02*
X68580000Y-88900000D01*
X71120000Y-86360000D02*
X71120000Y-88900000D01*
X68580000Y-83820000D02*
X68580000Y-86360000D01*
X71120000Y-83820000D02*
X71120000Y-86360000D01*
X73660000Y-86360000D02*
X76200000Y-86360000D01*
X76200000Y-86360000D02*
X78740000Y-86360000D01*
X73660000Y-88900000D02*
X76200000Y-88900000D01*
X76200000Y-88900000D02*
X78740000Y-88900000D01*
X78740000Y-86360000D02*
X81280000Y-86360000D01*
X81280000Y-86360000D02*
X83820000Y-86360000D01*
X78740000Y-88900000D02*
X81280000Y-88900000D01*
X81280000Y-88900000D02*
X83820000Y-88900000D01*
X81280000Y-99060000D02*
X83820000Y-99060000D01*
X78740000Y-99060000D02*
X81280000Y-99060000D01*
X78740000Y-101600000D02*
X81280000Y-101600000D01*
X78740000Y-96520000D02*
X81280000Y-96520000D01*
X81280000Y-101600000D02*
X83820000Y-101600000D01*
X81280000Y-96520000D02*
X83820000Y-96520000D01*
X76200000Y-91440000D02*
X78740000Y-91440000D01*
X76200000Y-93980000D02*
X78740000Y-93980000D01*
X81280000Y-93980000D02*
X83820000Y-93980000D01*
X81280000Y-91440000D02*
X83820000Y-91440000D01*
X78740000Y-93980000D02*
X81280000Y-93980000D01*
X78740000Y-91440000D02*
X81280000Y-91440000D01*
X73660000Y-91440000D02*
X76200000Y-91440000D01*
X73660000Y-93980000D02*
X76200000Y-93980000D01*
X76200000Y-96520000D02*
X78740000Y-96520000D01*
X73660000Y-96520000D02*
X76200000Y-96520000D01*
X76200000Y-101600000D02*
X78740000Y-101600000D01*
X76200000Y-99060000D02*
X78740000Y-99060000D01*
X73660000Y-99060000D02*
X76200000Y-99060000D01*
X73660000Y-101600000D02*
X76200000Y-101600000D01*
X68580000Y-101600000D02*
X68580000Y-99060000D01*
X68580000Y-96520000D02*
X68580000Y-99060000D01*
X71120000Y-96520000D02*
X71120000Y-99060000D01*
X71120000Y-101600000D02*
X71120000Y-99060000D01*
X71120000Y-88900000D02*
X71120000Y-91440000D01*
X71120000Y-91440000D02*
X71120000Y-93980000D01*
X71120000Y-96520000D02*
X71120000Y-93980000D01*
X68580000Y-96520000D02*
X68580000Y-93980000D01*
X68580000Y-91440000D02*
X68580000Y-93980000D01*
X68580000Y-88900000D02*
X68580000Y-91440000D01*
X81280000Y-104140000D02*
X83820000Y-104140000D01*
X78740000Y-106680000D02*
X81280000Y-106680000D01*
X78740000Y-109220000D02*
X81280000Y-109220000D01*
X81280000Y-106680000D02*
X83820000Y-106680000D01*
X81280000Y-109220000D02*
X83820000Y-109220000D01*
X78740000Y-104140000D02*
X81280000Y-104140000D01*
X68580000Y-101600000D02*
X68580000Y-104140000D01*
X71120000Y-101600000D02*
X71120000Y-104140000D01*
X71120000Y-109220000D02*
X71120000Y-106680000D01*
X71120000Y-104140000D02*
X71120000Y-106680000D01*
X73660000Y-104140000D02*
X76200000Y-104140000D01*
X76200000Y-109220000D02*
X78740000Y-109220000D01*
X76200000Y-106680000D02*
X78740000Y-106680000D01*
X76200000Y-104140000D02*
X78740000Y-104140000D01*
X73660000Y-106680000D02*
X76200000Y-106680000D01*
X73660000Y-109220000D02*
X76200000Y-109220000D01*
X73660000Y-111760000D02*
X76200000Y-111760000D01*
X76200000Y-114300000D02*
X78740000Y-114300000D01*
X78740000Y-111760000D02*
X81280000Y-111760000D01*
X73660000Y-114300000D02*
X76200000Y-114300000D01*
X78740000Y-114300000D02*
X81280000Y-114300000D01*
X76200000Y-111760000D02*
X78740000Y-111760000D01*
X86360000Y-104140000D02*
X88900000Y-104140000D01*
X86360000Y-101600000D02*
X88900000Y-101600000D01*
X86360000Y-109220000D02*
X88900000Y-109220000D01*
X86360000Y-111760000D02*
X88900000Y-111760000D01*
X81280000Y-111760000D02*
X83820000Y-111760000D01*
X81280000Y-114300000D02*
X83820000Y-114300000D01*
X86360000Y-106680000D02*
X88900000Y-106680000D01*
X86360000Y-114300000D02*
X88900000Y-114300000D01*
X68580000Y-104140000D02*
X68580000Y-106680000D01*
X68580000Y-109220000D02*
X68580000Y-106680000D01*
X68580000Y-109220000D02*
X68580000Y-111760000D01*
X68580000Y-114300000D02*
X68580000Y-111760000D01*
X71120000Y-114300000D02*
X71120000Y-111760000D01*
X71120000Y-109220000D02*
X71120000Y-111760000D01*
X73660000Y-129540000D02*
X76200000Y-129540000D01*
X73660000Y-132080000D02*
X76200000Y-132080000D01*
X73660000Y-134620000D02*
X76200000Y-134620000D01*
X76200000Y-129540000D02*
X78740000Y-129540000D01*
X76200000Y-132080000D02*
X78740000Y-132080000D01*
X76200000Y-134620000D02*
X78740000Y-134620000D01*
X81280000Y-132080000D02*
X83820000Y-132080000D01*
X78740000Y-132080000D02*
X81280000Y-132080000D01*
X81280000Y-129540000D02*
X83820000Y-129540000D01*
X78740000Y-134620000D02*
X81280000Y-134620000D01*
X81280000Y-134620000D02*
X83820000Y-134620000D01*
X78740000Y-129540000D02*
X81280000Y-129540000D01*
X68580000Y-127000000D02*
X68580000Y-129540000D01*
X71120000Y-127000000D02*
X71120000Y-129540000D01*
X71120000Y-129540000D02*
X71120000Y-132080000D01*
X71120000Y-134620000D02*
X71120000Y-132080000D01*
X68580000Y-129540000D02*
X68580000Y-132080000D01*
X68580000Y-134620000D02*
X68580000Y-132080000D01*
X68580000Y-121920000D02*
X68580000Y-119380000D01*
X71120000Y-121920000D02*
X71120000Y-124460000D01*
X68580000Y-121920000D02*
X68580000Y-124460000D01*
X71120000Y-121920000D02*
X71120000Y-119380000D01*
X71120000Y-127000000D02*
X71120000Y-124460000D01*
X68580000Y-127000000D02*
X68580000Y-124460000D01*
X106680000Y-167640000D02*
X106680000Y-165100000D01*
X104140000Y-165100000D02*
X104140000Y-162560000D01*
X104140000Y-167640000D02*
X104140000Y-165100000D01*
X106680000Y-170180000D02*
X106680000Y-167640000D01*
X104140000Y-170180000D02*
X104140000Y-167640000D01*
X106680000Y-160020000D02*
X106680000Y-162560000D01*
X106680000Y-165100000D02*
X106680000Y-162560000D01*
X104140000Y-160020000D02*
X104140000Y-162560000D01*
X96520000Y-162560000D02*
X99060000Y-162560000D01*
X93980000Y-160020000D02*
X96520000Y-160020000D01*
X99060000Y-165100000D02*
X101600000Y-165100000D01*
X96520000Y-165100000D02*
X99060000Y-165100000D01*
X99060000Y-162560000D02*
X101600000Y-162560000D01*
X93980000Y-165100000D02*
X96520000Y-165100000D01*
X93980000Y-162560000D02*
X96520000Y-162560000D01*
X93980000Y-157480000D02*
X96520000Y-157480000D01*
X91440000Y-157480000D02*
X93980000Y-157480000D01*
X91440000Y-160020000D02*
X93980000Y-160020000D01*
X86360000Y-157480000D02*
X88900000Y-157480000D01*
X86360000Y-154940000D02*
X88900000Y-154940000D01*
X91440000Y-170180000D02*
X93980000Y-170180000D01*
X86360000Y-170180000D02*
X88900000Y-170180000D01*
X86360000Y-167640000D02*
X88900000Y-167640000D01*
X86360000Y-162560000D02*
X88900000Y-162560000D01*
X86360000Y-165100000D02*
X88900000Y-165100000D01*
X91440000Y-165100000D02*
X93980000Y-165100000D01*
X91440000Y-162560000D02*
X93980000Y-162560000D01*
X91440000Y-167640000D02*
X93980000Y-167640000D01*
X91440000Y-154940000D02*
X93980000Y-154940000D01*
X93980000Y-149860000D02*
X96520000Y-149860000D01*
X93980000Y-152400000D02*
X96520000Y-152400000D01*
X93980000Y-154940000D02*
X96520000Y-154940000D01*
X99060000Y-167640000D02*
X101600000Y-167640000D01*
X99060000Y-170180000D02*
X101600000Y-170180000D01*
X96520000Y-170180000D02*
X99060000Y-170180000D01*
X93980000Y-170180000D02*
X96520000Y-170180000D01*
X93980000Y-167640000D02*
X96520000Y-167640000D01*
X96520000Y-167640000D02*
X99060000Y-167640000D01*
X81280000Y-152400000D02*
X83820000Y-152400000D01*
X78740000Y-152400000D02*
X81280000Y-152400000D01*
X76200000Y-152400000D02*
X78740000Y-152400000D01*
X78740000Y-154940000D02*
X81280000Y-154940000D01*
X76200000Y-157480000D02*
X78740000Y-157480000D01*
X81280000Y-160020000D02*
X83820000Y-160020000D01*
X78740000Y-157480000D02*
X81280000Y-157480000D01*
X81280000Y-154940000D02*
X83820000Y-154940000D01*
X81280000Y-157480000D02*
X83820000Y-157480000D01*
X81280000Y-165100000D02*
X83820000Y-165100000D01*
X81280000Y-167640000D02*
X83820000Y-167640000D01*
X81280000Y-170180000D02*
X83820000Y-170180000D01*
X81280000Y-162560000D02*
X83820000Y-162560000D01*
X78740000Y-167640000D02*
X81280000Y-167640000D01*
X78740000Y-170180000D02*
X81280000Y-170180000D01*
X78740000Y-165100000D02*
X81280000Y-165100000D01*
X78740000Y-160020000D02*
X81280000Y-160020000D01*
X78740000Y-162560000D02*
X81280000Y-162560000D01*
X73660000Y-165100000D02*
X76200000Y-165100000D01*
X73660000Y-160020000D02*
X76200000Y-160020000D01*
X73660000Y-162560000D02*
X76200000Y-162560000D01*
X76200000Y-165100000D02*
X78740000Y-165100000D01*
X76200000Y-162560000D02*
X78740000Y-162560000D01*
X76200000Y-160020000D02*
X78740000Y-160020000D01*
X76200000Y-167640000D02*
X78740000Y-167640000D01*
X76200000Y-170180000D02*
X78740000Y-170180000D01*
X73660000Y-167640000D02*
X76200000Y-167640000D01*
X73660000Y-170180000D02*
X76200000Y-170180000D01*
X73660000Y-152400000D02*
X76200000Y-152400000D01*
X68580000Y-152400000D02*
X68580000Y-154940000D01*
X73660000Y-154940000D02*
X76200000Y-154940000D01*
X73660000Y-157480000D02*
X76200000Y-157480000D01*
X76200000Y-154940000D02*
X78740000Y-154940000D01*
X71120000Y-152400000D02*
X71120000Y-154940000D01*
X68580000Y-160020000D02*
X68580000Y-162560000D01*
X71120000Y-160020000D02*
X71120000Y-162560000D01*
X68580000Y-160020000D02*
X68580000Y-157480000D01*
X71120000Y-154940000D02*
X71120000Y-157480000D01*
X68580000Y-154940000D02*
X68580000Y-157480000D01*
X71120000Y-160020000D02*
X71120000Y-157480000D01*
X71120000Y-170180000D02*
X71120000Y-167640000D01*
X71120000Y-167640000D02*
X71120000Y-165100000D01*
X68580000Y-170180000D02*
X68580000Y-167640000D01*
X68580000Y-165100000D02*
X68580000Y-162560000D01*
X71120000Y-165100000D02*
X71120000Y-162560000D01*
X68580000Y-167640000D02*
X68580000Y-165100000D01*
X71120000Y-114300000D02*
X71120000Y-116840000D01*
X71120000Y-116840000D02*
X71120000Y-119380000D01*
X68580000Y-116840000D02*
X68580000Y-119380000D01*
X68580000Y-114300000D02*
X68580000Y-116840000D01*
X73660000Y-116840000D02*
X76200000Y-116840000D01*
X78740000Y-116840000D02*
X81280000Y-116840000D01*
X81280000Y-116840000D02*
X83820000Y-116840000D01*
X81280000Y-127000000D02*
X83820000Y-127000000D01*
X78740000Y-127000000D02*
X81280000Y-127000000D01*
X81280000Y-124460000D02*
X83820000Y-124460000D01*
X78740000Y-121920000D02*
X81280000Y-121920000D01*
X81280000Y-121920000D02*
X83820000Y-121920000D01*
X81280000Y-119380000D02*
X83820000Y-119380000D01*
X78740000Y-124460000D02*
X81280000Y-124460000D01*
X76200000Y-124460000D02*
X78740000Y-124460000D01*
X78740000Y-119380000D02*
X81280000Y-119380000D01*
X76200000Y-119380000D02*
X78740000Y-119380000D01*
X76200000Y-121920000D02*
X78740000Y-121920000D01*
X76200000Y-127000000D02*
X78740000Y-127000000D01*
X73660000Y-124460000D02*
X76200000Y-124460000D01*
X73660000Y-121920000D02*
X76200000Y-121920000D01*
X73660000Y-127000000D02*
X76200000Y-127000000D01*
X73660000Y-119380000D02*
X76200000Y-119380000D01*
X76200000Y-116840000D02*
X78740000Y-116840000D01*
X99060000Y-119380000D02*
X101600000Y-119380000D01*
X96520000Y-116840000D02*
X99060000Y-116840000D01*
X96520000Y-119380000D02*
X99060000Y-119380000D01*
X99060000Y-116840000D02*
X101600000Y-116840000D01*
X96520000Y-121920000D02*
X99060000Y-121920000D01*
X99060000Y-121920000D02*
X101600000Y-121920000D01*
X96520000Y-124460000D02*
X99060000Y-124460000D01*
X99060000Y-124460000D02*
X101600000Y-124460000D01*
X93980000Y-119380000D02*
X96520000Y-119380000D01*
X93980000Y-121920000D02*
X96520000Y-121920000D01*
X91440000Y-116840000D02*
X93980000Y-116840000D01*
X93980000Y-116840000D02*
X96520000Y-116840000D01*
X93980000Y-124460000D02*
X96520000Y-124460000D01*
X91440000Y-119380000D02*
X93980000Y-119380000D01*
X91440000Y-124460000D02*
X93980000Y-124460000D01*
X91440000Y-121920000D02*
X93980000Y-121920000D01*
X86360000Y-124460000D02*
X88900000Y-124460000D01*
X86360000Y-121920000D02*
X88900000Y-121920000D01*
X86360000Y-119380000D02*
X88900000Y-119380000D01*
X86360000Y-116840000D02*
X88900000Y-116840000D01*
X86360000Y-127000000D02*
X88900000Y-127000000D01*
X104140000Y-114300000D02*
X104140000Y-116840000D01*
X106680000Y-114300000D02*
X106680000Y-116840000D01*
X104140000Y-116840000D02*
X104140000Y-119380000D01*
X106680000Y-121920000D02*
X106680000Y-119380000D01*
X104140000Y-121920000D02*
X104140000Y-119380000D01*
X106680000Y-116840000D02*
X106680000Y-119380000D01*
X106680000Y-121920000D02*
X106680000Y-124460000D01*
X104140000Y-121920000D02*
X104140000Y-124460000D01*
X104140000Y-127000000D02*
X104140000Y-124460000D01*
X106680000Y-127000000D02*
X106680000Y-124460000D01*
X86360000Y-129540000D02*
X88900000Y-129540000D01*
X86360000Y-134620000D02*
X88900000Y-134620000D01*
X86360000Y-137160000D02*
X88900000Y-137160000D01*
X86360000Y-132080000D02*
X88900000Y-132080000D01*
X86360000Y-139700000D02*
X88900000Y-139700000D01*
X91440000Y-134620000D02*
X93980000Y-134620000D01*
X91440000Y-139700000D02*
X93980000Y-139700000D01*
X91440000Y-137160000D02*
X93980000Y-137160000D01*
X93980000Y-139700000D02*
X96520000Y-139700000D01*
X93980000Y-134620000D02*
X96520000Y-134620000D01*
X93980000Y-137160000D02*
X96520000Y-137160000D01*
X96520000Y-142240000D02*
X99060000Y-142240000D01*
X99060000Y-142240000D02*
X101600000Y-142240000D01*
X99060000Y-144780000D02*
X101600000Y-144780000D01*
X96520000Y-139700000D02*
X99060000Y-139700000D01*
X99060000Y-139700000D02*
X101600000Y-139700000D01*
X96520000Y-144780000D02*
X99060000Y-144780000D01*
X93980000Y-132080000D02*
X96520000Y-132080000D01*
X91440000Y-132080000D02*
X93980000Y-132080000D01*
X91440000Y-129540000D02*
X93980000Y-129540000D01*
X91440000Y-127000000D02*
X93980000Y-127000000D01*
X93980000Y-127000000D02*
X96520000Y-127000000D01*
X93980000Y-129540000D02*
X96520000Y-129540000D01*
X99060000Y-129540000D02*
X101600000Y-129540000D01*
X99060000Y-127000000D02*
X101600000Y-127000000D01*
X96520000Y-127000000D02*
X99060000Y-127000000D01*
X96520000Y-132080000D02*
X99060000Y-132080000D01*
X99060000Y-132080000D02*
X101600000Y-132080000D01*
X96520000Y-129540000D02*
X99060000Y-129540000D01*
X106680000Y-134620000D02*
X106680000Y-132080000D01*
X106680000Y-129540000D02*
X106680000Y-132080000D01*
X106680000Y-127000000D02*
X106680000Y-129540000D01*
X104140000Y-129540000D02*
X104140000Y-132080000D01*
X104140000Y-127000000D02*
X104140000Y-129540000D01*
X104140000Y-134620000D02*
X104140000Y-132080000D01*
X99060000Y-137160000D02*
X101600000Y-137160000D01*
X96520000Y-134620000D02*
X99060000Y-134620000D01*
X99060000Y-134620000D02*
X101600000Y-134620000D01*
X96520000Y-137160000D02*
X99060000Y-137160000D01*
X104140000Y-134620000D02*
X104140000Y-137160000D01*
X106680000Y-134620000D02*
X106680000Y-137160000D01*
X104140000Y-139700000D02*
X104140000Y-142240000D01*
X106680000Y-139700000D02*
X106680000Y-142240000D01*
X104140000Y-139700000D02*
X104140000Y-137160000D01*
X106680000Y-139700000D02*
X106680000Y-137160000D01*
X106680000Y-142240000D02*
X106680000Y-144780000D01*
X104140000Y-142240000D02*
X104140000Y-144780000D01*
X86360000Y-160020000D02*
X88900000Y-160020000D01*
X86360000Y-152400000D02*
X88900000Y-152400000D01*
X86360000Y-149860000D02*
X88900000Y-149860000D01*
X91440000Y-152400000D02*
X93980000Y-152400000D01*
X91440000Y-149860000D02*
X93980000Y-149860000D01*
X91440000Y-142240000D02*
X93980000Y-142240000D01*
X86360000Y-142240000D02*
X88900000Y-142240000D01*
X86360000Y-144780000D02*
X88900000Y-144780000D01*
X86360000Y-147320000D02*
X88900000Y-147320000D01*
X91440000Y-144780000D02*
X93980000Y-144780000D01*
X93980000Y-147320000D02*
X96520000Y-147320000D01*
X91440000Y-147320000D02*
X93980000Y-147320000D01*
X93980000Y-144780000D02*
X96520000Y-144780000D01*
X93980000Y-142240000D02*
X96520000Y-142240000D01*
X99060000Y-160020000D02*
X101600000Y-160020000D01*
X96520000Y-157480000D02*
X99060000Y-157480000D01*
X96520000Y-160020000D02*
X99060000Y-160020000D01*
X104140000Y-160020000D02*
X104140000Y-157480000D01*
X99060000Y-157480000D02*
X101600000Y-157480000D01*
X106680000Y-147320000D02*
X106680000Y-149860000D01*
X106680000Y-147320000D02*
X106680000Y-144780000D01*
X104140000Y-147320000D02*
X104140000Y-144780000D01*
X104140000Y-147320000D02*
X104140000Y-149860000D01*
X104140000Y-152400000D02*
X104140000Y-149860000D01*
X106680000Y-152400000D02*
X106680000Y-149860000D01*
X96520000Y-147320000D02*
X99060000Y-147320000D01*
X99060000Y-147320000D02*
X101600000Y-147320000D01*
X99060000Y-149860000D02*
X101600000Y-149860000D01*
X96520000Y-149860000D02*
X99060000Y-149860000D01*
X96520000Y-154940000D02*
X99060000Y-154940000D01*
X99060000Y-154940000D02*
X101600000Y-154940000D01*
X96520000Y-152400000D02*
X99060000Y-152400000D01*
X99060000Y-152400000D02*
X101600000Y-152400000D01*
X106680000Y-154940000D02*
X106680000Y-157480000D01*
X104140000Y-154940000D02*
X104140000Y-157480000D01*
X106680000Y-160020000D02*
X106680000Y-157480000D01*
X106680000Y-152400000D02*
X106680000Y-154940000D01*
X104140000Y-152400000D02*
X104140000Y-154940000D01*
X68580000Y-147320000D02*
X68580000Y-149860000D01*
X71120000Y-147320000D02*
X71120000Y-149860000D01*
X71120000Y-152400000D02*
X71120000Y-149860000D01*
X68580000Y-147320000D02*
X68580000Y-144780000D01*
X68580000Y-152400000D02*
X68580000Y-149860000D01*
X71120000Y-147320000D02*
X71120000Y-144780000D01*
X81280000Y-142240000D02*
X83820000Y-142240000D01*
X81280000Y-147320000D02*
X83820000Y-147320000D01*
X78740000Y-147320000D02*
X81280000Y-147320000D01*
X81280000Y-144780000D02*
X83820000Y-144780000D01*
X78740000Y-149860000D02*
X81280000Y-149860000D01*
X81280000Y-149860000D02*
X83820000Y-149860000D01*
X78740000Y-144780000D02*
X81280000Y-144780000D01*
X68580000Y-134620000D02*
X68580000Y-137160000D01*
X71120000Y-134620000D02*
X71120000Y-137160000D01*
X68580000Y-142240000D02*
X68580000Y-144780000D01*
X68580000Y-139700000D02*
X68580000Y-142240000D01*
X68580000Y-139700000D02*
X68580000Y-137160000D01*
X71120000Y-139700000D02*
X71120000Y-142240000D01*
X71120000Y-139700000D02*
X71120000Y-137160000D01*
X71120000Y-142240000D02*
X71120000Y-144780000D01*
X81280000Y-137160000D02*
X83820000Y-137160000D01*
X76200000Y-137160000D02*
X78740000Y-137160000D01*
X81280000Y-139700000D02*
X83820000Y-139700000D01*
X78740000Y-137160000D02*
X81280000Y-137160000D01*
X73660000Y-137160000D02*
X76200000Y-137160000D01*
X76200000Y-142240000D02*
X78740000Y-142240000D01*
X78740000Y-142240000D02*
X81280000Y-142240000D01*
X76200000Y-139700000D02*
X78740000Y-139700000D01*
X73660000Y-139700000D02*
X76200000Y-139700000D01*
X73660000Y-142240000D02*
X76200000Y-142240000D01*
X78740000Y-139700000D02*
X81280000Y-139700000D01*
X76200000Y-149860000D02*
X78740000Y-149860000D01*
X73660000Y-147320000D02*
X76200000Y-147320000D01*
X76200000Y-147320000D02*
X78740000Y-147320000D01*
X76200000Y-144780000D02*
X78740000Y-144780000D01*
X73660000Y-149860000D02*
X76200000Y-149860000D01*
X73660000Y-144780000D02*
X76200000Y-144780000D01*
X116840000Y-160020000D02*
X116840000Y-162560000D01*
X116840000Y-165100000D02*
X116840000Y-162560000D01*
X114300000Y-160020000D02*
X114300000Y-162560000D01*
X114300000Y-165100000D02*
X114300000Y-162560000D01*
X116840000Y-154940000D02*
X116840000Y-157480000D01*
X114300000Y-160020000D02*
X114300000Y-157480000D01*
X116840000Y-160020000D02*
X116840000Y-157480000D01*
X114300000Y-154940000D02*
X114300000Y-157480000D01*
X116840000Y-152400000D02*
X116840000Y-149860000D01*
X116840000Y-152400000D02*
X116840000Y-154940000D01*
X114300000Y-152400000D02*
X114300000Y-154940000D01*
X114300000Y-152400000D02*
X114300000Y-149860000D01*
X116840000Y-142240000D02*
X116840000Y-144780000D01*
X114300000Y-147320000D02*
X114300000Y-144780000D01*
X114300000Y-142240000D02*
X114300000Y-144780000D01*
X116840000Y-147320000D02*
X116840000Y-149860000D01*
X116840000Y-147320000D02*
X116840000Y-144780000D01*
X114300000Y-147320000D02*
X114300000Y-149860000D01*
X116840000Y-139700000D02*
X116840000Y-137160000D01*
X114300000Y-139700000D02*
X114300000Y-142240000D01*
X116840000Y-139700000D02*
X116840000Y-142240000D01*
X114300000Y-139700000D02*
X114300000Y-137160000D01*
X116840000Y-167640000D02*
X116840000Y-165100000D01*
X114300000Y-170180000D02*
X114300000Y-167640000D01*
X116840000Y-170180000D02*
X116840000Y-167640000D01*
X114300000Y-167640000D02*
X114300000Y-165100000D01*
X116840000Y-114300000D02*
X116840000Y-111760000D01*
X114300000Y-114300000D02*
X114300000Y-111760000D01*
X114300000Y-109220000D02*
X114300000Y-111760000D01*
X116840000Y-109220000D02*
X116840000Y-111760000D01*
X116840000Y-109220000D02*
X116840000Y-106680000D01*
X114300000Y-109220000D02*
X114300000Y-106680000D01*
X116840000Y-104140000D02*
X116840000Y-106680000D01*
X114300000Y-104140000D02*
X114300000Y-106680000D01*
X116840000Y-134620000D02*
X116840000Y-137160000D01*
X114300000Y-134620000D02*
X114300000Y-132080000D01*
X116840000Y-134620000D02*
X116840000Y-132080000D01*
X114300000Y-134620000D02*
X114300000Y-137160000D01*
X116840000Y-129540000D02*
X116840000Y-132080000D01*
X114300000Y-127000000D02*
X114300000Y-129540000D01*
X116840000Y-127000000D02*
X116840000Y-129540000D01*
X114300000Y-129540000D02*
X114300000Y-132080000D01*
X116840000Y-121920000D02*
X116840000Y-124460000D01*
X114300000Y-114300000D02*
X114300000Y-116840000D01*
X116840000Y-114300000D02*
X116840000Y-116840000D01*
X114300000Y-116840000D02*
X114300000Y-119380000D01*
X114300000Y-121920000D02*
X114300000Y-124460000D01*
X114300000Y-121920000D02*
X114300000Y-119380000D01*
X116840000Y-116840000D02*
X116840000Y-119380000D01*
X116840000Y-121920000D02*
X116840000Y-119380000D01*
X116840000Y-127000000D02*
X116840000Y-124460000D01*
X114300000Y-127000000D02*
X114300000Y-124460000D01*
X116840000Y-71120000D02*
X116840000Y-68580000D01*
X114300000Y-66040000D02*
X114300000Y-68580000D01*
X116840000Y-71120000D02*
X116840000Y-73660000D01*
X116840000Y-66040000D02*
X116840000Y-68580000D01*
X114300000Y-71120000D02*
X114300000Y-68580000D01*
X116840000Y-60960000D02*
X116840000Y-63500000D01*
X114300000Y-63500000D02*
X114300000Y-66040000D01*
X116840000Y-63500000D02*
X116840000Y-66040000D01*
X114300000Y-60960000D02*
X114300000Y-63500000D01*
X114300000Y-71120000D02*
X114300000Y-73660000D01*
X116840000Y-88900000D02*
X116840000Y-91440000D01*
X114300000Y-88900000D02*
X114300000Y-91440000D01*
X114300000Y-91440000D02*
X114300000Y-93980000D01*
X116840000Y-86360000D02*
X116840000Y-88900000D01*
X116840000Y-91440000D02*
X116840000Y-93980000D01*
X114300000Y-86360000D02*
X114300000Y-88900000D01*
X116840000Y-101600000D02*
X116840000Y-104140000D01*
X116840000Y-101600000D02*
X116840000Y-99060000D01*
X114300000Y-101600000D02*
X114300000Y-99060000D01*
X116840000Y-96520000D02*
X116840000Y-99060000D01*
X116840000Y-96520000D02*
X116840000Y-93980000D01*
X114300000Y-96520000D02*
X114300000Y-99060000D01*
X114300000Y-96520000D02*
X114300000Y-93980000D01*
X114300000Y-101600000D02*
X114300000Y-104140000D01*
X116840000Y-73660000D02*
X116840000Y-76200000D01*
X114300000Y-76200000D02*
X114300000Y-78740000D01*
X114300000Y-78740000D02*
X114300000Y-81280000D01*
X116840000Y-78740000D02*
X116840000Y-81280000D01*
X116840000Y-76200000D02*
X116840000Y-78740000D01*
X114300000Y-73660000D02*
X114300000Y-76200000D01*
X116840000Y-83820000D02*
X116840000Y-86360000D01*
X116840000Y-83820000D02*
X116840000Y-81280000D01*
X114300000Y-83820000D02*
X114300000Y-81280000D01*
X114300000Y-83820000D02*
X114300000Y-86360000D01*
X116840000Y-58420000D02*
X116840000Y-55880000D01*
X114300000Y-50800000D02*
X114300000Y-53340000D01*
X114300000Y-58420000D02*
X114300000Y-60960000D01*
X114300000Y-53340000D02*
X114300000Y-55880000D01*
X116840000Y-53340000D02*
X116840000Y-55880000D01*
X116840000Y-50800000D02*
X116840000Y-53340000D01*
X116840000Y-58420000D02*
X116840000Y-60960000D01*
X114300000Y-58420000D02*
X114300000Y-55880000D01*
X152400000Y-160020000D02*
X152400000Y-157480000D01*
X152400000Y-160020000D02*
X152400000Y-162560000D01*
X152400000Y-154940000D02*
X152400000Y-157480000D01*
X152400000Y-152400000D02*
X152400000Y-154940000D01*
X152400000Y-152400000D02*
X152400000Y-149860000D01*
X152400000Y-165100000D02*
X152400000Y-162560000D01*
X152400000Y-147320000D02*
X152400000Y-149860000D01*
X152400000Y-147320000D02*
X152400000Y-144780000D01*
X152400000Y-142240000D02*
X152400000Y-144780000D01*
X152400000Y-139700000D02*
X152400000Y-137160000D01*
X152400000Y-139700000D02*
X152400000Y-142240000D01*
X152400000Y-167640000D02*
X152400000Y-165100000D01*
X152400000Y-170180000D02*
X152400000Y-167640000D01*
X152400000Y-134620000D02*
X152400000Y-137160000D01*
X152400000Y-134620000D02*
X152400000Y-132080000D01*
X152400000Y-127000000D02*
X152400000Y-124460000D01*
X152400000Y-127000000D02*
X152400000Y-129540000D01*
X152400000Y-129540000D02*
X152400000Y-132080000D01*
X152400000Y-109220000D02*
X152400000Y-111760000D01*
X152400000Y-104140000D02*
X152400000Y-106680000D01*
X152400000Y-109220000D02*
X152400000Y-106680000D01*
X152400000Y-121920000D02*
X152400000Y-124460000D01*
X152400000Y-121920000D02*
X152400000Y-119380000D01*
X152400000Y-114300000D02*
X152400000Y-111760000D01*
X152400000Y-114300000D02*
X152400000Y-116840000D01*
X152400000Y-116840000D02*
X152400000Y-119380000D01*
X152400000Y-71120000D02*
X152400000Y-68580000D01*
X152400000Y-66040000D02*
X152400000Y-68580000D01*
X152400000Y-71120000D02*
X152400000Y-73660000D01*
X152400000Y-60960000D02*
X152400000Y-63500000D01*
X152400000Y-63500000D02*
X152400000Y-66040000D01*
X152400000Y-86360000D02*
X152400000Y-88900000D01*
X152400000Y-88900000D02*
X152400000Y-91440000D01*
X152400000Y-91440000D02*
X152400000Y-93980000D01*
X152400000Y-96520000D02*
X152400000Y-93980000D01*
X152400000Y-96520000D02*
X152400000Y-99060000D01*
X152400000Y-101600000D02*
X152400000Y-99060000D01*
X152400000Y-101600000D02*
X152400000Y-104140000D01*
X152400000Y-83820000D02*
X152400000Y-86360000D01*
X152400000Y-83820000D02*
X152400000Y-81280000D01*
X152400000Y-73660000D02*
X152400000Y-76200000D01*
X152400000Y-76200000D02*
X152400000Y-78740000D01*
X152400000Y-78740000D02*
X152400000Y-81280000D01*
X152400000Y-58420000D02*
X152400000Y-55880000D01*
X152400000Y-50800000D02*
X152400000Y-53340000D01*
X152400000Y-58420000D02*
X152400000Y-60960000D01*
X152400000Y-53340000D02*
X152400000Y-55880000D01*
X149860000Y-127000000D02*
X149860000Y-124460000D01*
X149860000Y-139700000D02*
X149860000Y-137160000D01*
X149860000Y-114300000D02*
X149860000Y-111760000D01*
X149860000Y-101600000D02*
X149860000Y-99060000D01*
X149860000Y-86360000D02*
X149860000Y-88900000D01*
X149860000Y-73660000D02*
X149860000Y-76200000D01*
X149860000Y-60960000D02*
X149860000Y-63500000D01*
X149860000Y-152400000D02*
X149860000Y-149860000D01*
X149860000Y-165100000D02*
X149860000Y-162560000D01*
X149860000Y-167640000D02*
X149860000Y-165100000D01*
X149860000Y-170180000D02*
X149860000Y-167640000D01*
X149860000Y-154940000D02*
X149860000Y-157480000D01*
X149860000Y-160020000D02*
X149860000Y-157480000D01*
X149860000Y-160020000D02*
X149860000Y-162560000D01*
X149860000Y-152400000D02*
X149860000Y-154940000D01*
X149860000Y-142240000D02*
X149860000Y-144780000D01*
X149860000Y-147320000D02*
X149860000Y-144780000D01*
X149860000Y-147320000D02*
X149860000Y-149860000D01*
X149860000Y-139700000D02*
X149860000Y-142240000D01*
X149860000Y-129540000D02*
X149860000Y-132080000D01*
X149860000Y-134620000D02*
X149860000Y-132080000D01*
X149860000Y-134620000D02*
X149860000Y-137160000D01*
X149860000Y-127000000D02*
X149860000Y-129540000D01*
X149860000Y-116840000D02*
X149860000Y-119380000D01*
X149860000Y-121920000D02*
X149860000Y-119380000D01*
X149860000Y-121920000D02*
X149860000Y-124460000D01*
X149860000Y-114300000D02*
X149860000Y-116840000D01*
X149860000Y-104140000D02*
X149860000Y-106680000D01*
X149860000Y-109220000D02*
X149860000Y-106680000D01*
X149860000Y-109220000D02*
X149860000Y-111760000D01*
X149860000Y-101600000D02*
X149860000Y-104140000D01*
X149860000Y-91440000D02*
X149860000Y-93980000D01*
X149860000Y-96520000D02*
X149860000Y-93980000D01*
X149860000Y-96520000D02*
X149860000Y-99060000D01*
X149860000Y-88900000D02*
X149860000Y-91440000D01*
X149860000Y-78740000D02*
X149860000Y-81280000D01*
X149860000Y-83820000D02*
X149860000Y-81280000D01*
X149860000Y-83820000D02*
X149860000Y-86360000D01*
X149860000Y-76200000D02*
X149860000Y-78740000D01*
X149860000Y-66040000D02*
X149860000Y-68580000D01*
X149860000Y-71120000D02*
X149860000Y-68580000D01*
X149860000Y-71120000D02*
X149860000Y-73660000D01*
X149860000Y-63500000D02*
X149860000Y-66040000D01*
X149860000Y-58420000D02*
X149860000Y-60960000D01*
X149860000Y-58420000D02*
X149860000Y-55880000D01*
X149860000Y-53340000D02*
X149860000Y-55880000D01*
X149860000Y-50800000D02*
X149860000Y-53340000D01*
X119380000Y-96520000D02*
X121920000Y-96520000D01*
X127000000Y-104140000D02*
X129540000Y-104140000D01*
X124460000Y-101600000D02*
X127000000Y-101600000D01*
X124460000Y-104140000D02*
X127000000Y-104140000D01*
X127000000Y-101600000D02*
X129540000Y-101600000D01*
X119380000Y-101600000D02*
X121920000Y-101600000D01*
X121920000Y-101600000D02*
X124460000Y-101600000D01*
X121920000Y-96520000D02*
X124460000Y-96520000D01*
X119380000Y-99060000D02*
X121920000Y-99060000D01*
X121920000Y-99060000D02*
X124460000Y-99060000D01*
X127000000Y-96520000D02*
X129540000Y-96520000D01*
X124460000Y-96520000D02*
X127000000Y-96520000D01*
X124460000Y-99060000D02*
X127000000Y-99060000D01*
X127000000Y-99060000D02*
X129540000Y-99060000D01*
X119380000Y-165100000D02*
X121920000Y-165100000D01*
X119380000Y-162560000D02*
X121920000Y-162560000D01*
X119380000Y-157480000D02*
X121920000Y-157480000D01*
X119380000Y-160020000D02*
X121920000Y-160020000D01*
X119380000Y-154940000D02*
X121920000Y-154940000D01*
X121920000Y-167640000D02*
X124460000Y-167640000D01*
X121920000Y-165100000D02*
X124460000Y-165100000D01*
X119380000Y-170180000D02*
X121920000Y-170180000D01*
X121920000Y-170180000D02*
X124460000Y-170180000D01*
X119380000Y-167640000D02*
X121920000Y-167640000D01*
X121920000Y-162560000D02*
X124460000Y-162560000D01*
X121920000Y-160020000D02*
X124460000Y-160020000D01*
X124460000Y-157480000D02*
X127000000Y-157480000D01*
X121920000Y-157480000D02*
X124460000Y-157480000D01*
X124460000Y-160020000D02*
X127000000Y-160020000D01*
X124460000Y-162560000D02*
X127000000Y-162560000D01*
X124460000Y-154940000D02*
X127000000Y-154940000D01*
X127000000Y-157480000D02*
X129540000Y-157480000D01*
X127000000Y-154940000D02*
X129540000Y-154940000D01*
X121920000Y-154940000D02*
X124460000Y-154940000D01*
X127000000Y-160020000D02*
X129540000Y-160020000D01*
X127000000Y-167640000D02*
X129540000Y-167640000D01*
X127000000Y-162560000D02*
X129540000Y-162560000D01*
X127000000Y-170180000D02*
X129540000Y-170180000D01*
X127000000Y-165100000D02*
X129540000Y-165100000D01*
X124460000Y-165100000D02*
X127000000Y-165100000D01*
X124460000Y-167640000D02*
X127000000Y-167640000D01*
X124460000Y-170180000D02*
X127000000Y-170180000D01*
X119380000Y-127000000D02*
X121920000Y-127000000D01*
X119380000Y-121920000D02*
X121920000Y-121920000D01*
X119380000Y-124460000D02*
X121920000Y-124460000D01*
X121920000Y-124460000D02*
X124460000Y-124460000D01*
X121920000Y-129540000D02*
X124460000Y-129540000D01*
X121920000Y-127000000D02*
X124460000Y-127000000D01*
X124460000Y-127000000D02*
X127000000Y-127000000D01*
X127000000Y-127000000D02*
X129540000Y-127000000D01*
X124460000Y-129540000D02*
X127000000Y-129540000D01*
X127000000Y-119380000D02*
X129540000Y-119380000D01*
X124460000Y-121920000D02*
X127000000Y-121920000D01*
X127000000Y-121920000D02*
X129540000Y-121920000D01*
X127000000Y-116840000D02*
X129540000Y-116840000D01*
X127000000Y-124460000D02*
X129540000Y-124460000D01*
X124460000Y-119380000D02*
X127000000Y-119380000D01*
X124460000Y-124460000D02*
X127000000Y-124460000D01*
X124460000Y-116840000D02*
X127000000Y-116840000D01*
X121920000Y-119380000D02*
X124460000Y-119380000D01*
X121920000Y-121920000D02*
X124460000Y-121920000D01*
X119380000Y-116840000D02*
X121920000Y-116840000D01*
X119380000Y-119380000D02*
X121920000Y-119380000D01*
X121920000Y-116840000D02*
X124460000Y-116840000D01*
X127000000Y-132080000D02*
X129540000Y-132080000D01*
X127000000Y-134620000D02*
X129540000Y-134620000D01*
X124460000Y-134620000D02*
X127000000Y-134620000D01*
X127000000Y-129540000D02*
X129540000Y-129540000D01*
X124460000Y-132080000D02*
X127000000Y-132080000D01*
X121920000Y-132080000D02*
X124460000Y-132080000D01*
X119380000Y-129540000D02*
X121920000Y-129540000D01*
X119380000Y-134620000D02*
X121920000Y-134620000D01*
X121920000Y-134620000D02*
X124460000Y-134620000D01*
X119380000Y-132080000D02*
X121920000Y-132080000D01*
X119380000Y-106680000D02*
X121920000Y-106680000D01*
X121920000Y-114300000D02*
X124460000Y-114300000D01*
X119380000Y-114300000D02*
X121920000Y-114300000D01*
X124460000Y-111760000D02*
X127000000Y-111760000D01*
X121920000Y-111760000D02*
X124460000Y-111760000D01*
X119380000Y-111760000D02*
X121920000Y-111760000D01*
X124460000Y-114300000D02*
X127000000Y-114300000D01*
X121920000Y-106680000D02*
X124460000Y-106680000D01*
X119380000Y-109220000D02*
X121920000Y-109220000D01*
X121920000Y-104140000D02*
X124460000Y-104140000D01*
X121920000Y-109220000D02*
X124460000Y-109220000D01*
X119380000Y-104140000D02*
X121920000Y-104140000D01*
X127000000Y-114300000D02*
X129540000Y-114300000D01*
X127000000Y-111760000D02*
X129540000Y-111760000D01*
X127000000Y-109220000D02*
X129540000Y-109220000D01*
X124460000Y-109220000D02*
X127000000Y-109220000D01*
X124460000Y-106680000D02*
X127000000Y-106680000D01*
X127000000Y-106680000D02*
X129540000Y-106680000D01*
X119380000Y-152400000D02*
X121920000Y-152400000D01*
X127000000Y-139700000D02*
X129540000Y-139700000D01*
X127000000Y-142240000D02*
X129540000Y-142240000D01*
X127000000Y-137160000D02*
X129540000Y-137160000D01*
X124460000Y-137160000D02*
X127000000Y-137160000D01*
X121920000Y-147320000D02*
X124460000Y-147320000D01*
X119380000Y-149860000D02*
X121920000Y-149860000D01*
X121920000Y-152400000D02*
X124460000Y-152400000D01*
X121920000Y-149860000D02*
X124460000Y-149860000D01*
X119380000Y-147320000D02*
X121920000Y-147320000D01*
X124460000Y-139700000D02*
X127000000Y-139700000D01*
X124460000Y-142240000D02*
X127000000Y-142240000D01*
X121920000Y-139700000D02*
X124460000Y-139700000D01*
X121920000Y-144780000D02*
X124460000Y-144780000D01*
X124460000Y-144780000D02*
X127000000Y-144780000D01*
X121920000Y-142240000D02*
X124460000Y-142240000D01*
X127000000Y-147320000D02*
X129540000Y-147320000D01*
X127000000Y-152400000D02*
X129540000Y-152400000D01*
X124460000Y-147320000D02*
X127000000Y-147320000D01*
X124460000Y-149860000D02*
X127000000Y-149860000D01*
X124460000Y-152400000D02*
X127000000Y-152400000D01*
X127000000Y-149860000D02*
X129540000Y-149860000D01*
X127000000Y-144780000D02*
X129540000Y-144780000D01*
X119380000Y-144780000D02*
X121920000Y-144780000D01*
X119380000Y-142240000D02*
X121920000Y-142240000D01*
X119380000Y-137160000D02*
X121920000Y-137160000D01*
X119380000Y-139700000D02*
X121920000Y-139700000D01*
X121920000Y-137160000D02*
X124460000Y-137160000D01*
X119380000Y-83820000D02*
X121920000Y-83820000D01*
X119380000Y-81280000D02*
X121920000Y-81280000D01*
X119380000Y-86360000D02*
X121920000Y-86360000D01*
X119380000Y-88900000D02*
X121920000Y-88900000D01*
X119380000Y-76200000D02*
X121920000Y-76200000D01*
X119380000Y-78740000D02*
X121920000Y-78740000D01*
X121920000Y-78740000D02*
X124460000Y-78740000D01*
X121920000Y-76200000D02*
X124460000Y-76200000D01*
X121920000Y-81280000D02*
X124460000Y-81280000D01*
X124460000Y-83820000D02*
X127000000Y-83820000D01*
X124460000Y-86360000D02*
X127000000Y-86360000D01*
X121920000Y-86360000D02*
X124460000Y-86360000D01*
X121920000Y-83820000D02*
X124460000Y-83820000D01*
X127000000Y-83820000D02*
X129540000Y-83820000D01*
X127000000Y-76200000D02*
X129540000Y-76200000D01*
X127000000Y-78740000D02*
X129540000Y-78740000D01*
X124460000Y-76200000D02*
X127000000Y-76200000D01*
X127000000Y-81280000D02*
X129540000Y-81280000D01*
X124460000Y-78740000D02*
X127000000Y-78740000D01*
X124460000Y-81280000D02*
X127000000Y-81280000D01*
X127000000Y-86360000D02*
X129540000Y-86360000D01*
X127000000Y-91440000D02*
X129540000Y-91440000D01*
X127000000Y-93980000D02*
X129540000Y-93980000D01*
X124460000Y-88900000D02*
X127000000Y-88900000D01*
X124460000Y-93980000D02*
X127000000Y-93980000D01*
X127000000Y-88900000D02*
X129540000Y-88900000D01*
X124460000Y-91440000D02*
X127000000Y-91440000D01*
X121920000Y-88900000D02*
X124460000Y-88900000D01*
X121920000Y-91440000D02*
X124460000Y-91440000D01*
X119380000Y-91440000D02*
X121920000Y-91440000D01*
X121920000Y-93980000D02*
X124460000Y-93980000D01*
X119380000Y-93980000D02*
X121920000Y-93980000D01*
X119380000Y-71120000D02*
X121920000Y-71120000D01*
X124460000Y-73660000D02*
X127000000Y-73660000D01*
X121920000Y-73660000D02*
X124460000Y-73660000D01*
X124460000Y-71120000D02*
X127000000Y-71120000D01*
X121920000Y-71120000D02*
X124460000Y-71120000D01*
X119380000Y-73660000D02*
X121920000Y-73660000D01*
X127000000Y-73660000D02*
X129540000Y-73660000D01*
X127000000Y-71120000D02*
X129540000Y-71120000D01*
X127000000Y-66040000D02*
X129540000Y-66040000D01*
X124460000Y-68580000D02*
X127000000Y-68580000D01*
X127000000Y-68580000D02*
X129540000Y-68580000D01*
X124460000Y-66040000D02*
X127000000Y-66040000D01*
X119380000Y-60960000D02*
X121920000Y-60960000D01*
X119380000Y-63500000D02*
X121920000Y-63500000D01*
X121920000Y-60960000D02*
X124460000Y-60960000D01*
X121920000Y-63500000D02*
X124460000Y-63500000D01*
X119380000Y-68580000D02*
X121920000Y-68580000D01*
X121920000Y-68580000D02*
X124460000Y-68580000D01*
X119380000Y-66040000D02*
X121920000Y-66040000D01*
X121920000Y-66040000D02*
X124460000Y-66040000D01*
X124460000Y-63500000D02*
X127000000Y-63500000D01*
X127000000Y-60960000D02*
X129540000Y-60960000D01*
X127000000Y-63500000D02*
X129540000Y-63500000D01*
X124460000Y-60960000D02*
X127000000Y-60960000D01*
X124460000Y-58420000D02*
X127000000Y-58420000D01*
X124460000Y-55880000D02*
X127000000Y-55880000D01*
X127000000Y-58420000D02*
X129540000Y-58420000D01*
X127000000Y-55880000D02*
X129540000Y-55880000D01*
X121920000Y-55880000D02*
X124460000Y-55880000D01*
X119380000Y-55880000D02*
X121920000Y-55880000D01*
X121920000Y-58420000D02*
X124460000Y-58420000D01*
X119380000Y-58420000D02*
X121920000Y-58420000D01*
X119380000Y-50800000D02*
X121920000Y-50800000D01*
X119380000Y-53340000D02*
X121920000Y-53340000D01*
X121920000Y-53340000D02*
X124460000Y-53340000D01*
X121920000Y-50800000D02*
X124460000Y-50800000D01*
X127000000Y-50800000D02*
X129540000Y-50800000D01*
X124460000Y-50800000D02*
X127000000Y-50800000D01*
X124460000Y-53340000D02*
X127000000Y-53340000D01*
X127000000Y-53340000D02*
X129540000Y-53340000D01*
X132080000Y-167640000D02*
X134620000Y-167640000D01*
X132080000Y-170180000D02*
X134620000Y-170180000D01*
X132080000Y-165100000D02*
X134620000Y-165100000D01*
X132080000Y-162560000D02*
X134620000Y-162560000D01*
X132080000Y-160020000D02*
X134620000Y-160020000D01*
X132080000Y-157480000D02*
X134620000Y-157480000D01*
X132080000Y-147320000D02*
X134620000Y-147320000D01*
X132080000Y-154940000D02*
X134620000Y-154940000D01*
X132080000Y-144780000D02*
X134620000Y-144780000D01*
X132080000Y-152400000D02*
X134620000Y-152400000D01*
X132080000Y-149860000D02*
X134620000Y-149860000D01*
X132080000Y-142240000D02*
X134620000Y-142240000D01*
X132080000Y-129540000D02*
X134620000Y-129540000D01*
X132080000Y-121920000D02*
X134620000Y-121920000D01*
X132080000Y-127000000D02*
X134620000Y-127000000D01*
X132080000Y-124460000D02*
X134620000Y-124460000D01*
X132080000Y-137160000D02*
X134620000Y-137160000D01*
X132080000Y-139700000D02*
X134620000Y-139700000D01*
X132080000Y-132080000D02*
X134620000Y-132080000D01*
X132080000Y-134620000D02*
X134620000Y-134620000D01*
X132080000Y-114300000D02*
X134620000Y-114300000D01*
X132080000Y-111760000D02*
X134620000Y-111760000D01*
X132080000Y-119380000D02*
X134620000Y-119380000D01*
X132080000Y-116840000D02*
X134620000Y-116840000D01*
X132080000Y-101600000D02*
X134620000Y-101600000D01*
X132080000Y-104140000D02*
X134620000Y-104140000D01*
X132080000Y-96520000D02*
X134620000Y-96520000D01*
X132080000Y-109220000D02*
X134620000Y-109220000D01*
X132080000Y-99060000D02*
X134620000Y-99060000D01*
X132080000Y-106680000D02*
X134620000Y-106680000D01*
X132080000Y-93980000D02*
X134620000Y-93980000D01*
X132080000Y-91440000D02*
X134620000Y-91440000D01*
X132080000Y-86360000D02*
X134620000Y-86360000D01*
X132080000Y-81280000D02*
X134620000Y-81280000D01*
X132080000Y-88900000D02*
X134620000Y-88900000D01*
X132080000Y-83820000D02*
X134620000Y-83820000D01*
X132080000Y-73660000D02*
X134620000Y-73660000D01*
X132080000Y-68580000D02*
X134620000Y-68580000D01*
X132080000Y-66040000D02*
X134620000Y-66040000D01*
X132080000Y-78740000D02*
X134620000Y-78740000D01*
X132080000Y-76200000D02*
X134620000Y-76200000D01*
X132080000Y-71120000D02*
X134620000Y-71120000D01*
X132080000Y-63500000D02*
X134620000Y-63500000D01*
X132080000Y-60960000D02*
X134620000Y-60960000D01*
X132080000Y-58420000D02*
X134620000Y-58420000D01*
X132080000Y-55880000D02*
X134620000Y-55880000D01*
X132080000Y-53340000D02*
X134620000Y-53340000D01*
X132080000Y-50800000D02*
X134620000Y-50800000D01*
X142240000Y-144780000D02*
X144780000Y-144780000D01*
X139700000Y-149860000D02*
X142240000Y-149860000D01*
X142240000Y-147320000D02*
X144780000Y-147320000D01*
X142240000Y-149860000D02*
X144780000Y-149860000D01*
X144780000Y-170180000D02*
X147320000Y-170180000D01*
X142240000Y-167640000D02*
X144780000Y-167640000D01*
X144780000Y-167640000D02*
X147320000Y-167640000D01*
X142240000Y-170180000D02*
X144780000Y-170180000D01*
X139700000Y-170180000D02*
X142240000Y-170180000D01*
X137160000Y-165100000D02*
X139700000Y-165100000D01*
X139700000Y-167640000D02*
X142240000Y-167640000D01*
X137160000Y-167640000D02*
X139700000Y-167640000D01*
X137160000Y-170180000D02*
X139700000Y-170180000D01*
X139700000Y-165100000D02*
X142240000Y-165100000D01*
X137160000Y-144780000D02*
X139700000Y-144780000D01*
X137160000Y-147320000D02*
X139700000Y-147320000D01*
X137160000Y-149860000D02*
X139700000Y-149860000D01*
X139700000Y-144780000D02*
X142240000Y-144780000D01*
X139700000Y-147320000D02*
X142240000Y-147320000D01*
X144780000Y-149860000D02*
X147320000Y-149860000D01*
X142240000Y-152400000D02*
X144780000Y-152400000D01*
X144780000Y-147320000D02*
X147320000Y-147320000D01*
X144780000Y-144780000D02*
X147320000Y-144780000D01*
X142240000Y-154940000D02*
X144780000Y-154940000D01*
X144780000Y-152400000D02*
X147320000Y-152400000D01*
X144780000Y-154940000D02*
X147320000Y-154940000D01*
X137160000Y-162560000D02*
X139700000Y-162560000D01*
X137160000Y-160020000D02*
X139700000Y-160020000D01*
X139700000Y-160020000D02*
X142240000Y-160020000D01*
X137160000Y-157480000D02*
X139700000Y-157480000D01*
X139700000Y-157480000D02*
X142240000Y-157480000D01*
X139700000Y-162560000D02*
X142240000Y-162560000D01*
X137160000Y-154940000D02*
X139700000Y-154940000D01*
X139700000Y-152400000D02*
X142240000Y-152400000D01*
X137160000Y-152400000D02*
X139700000Y-152400000D01*
X139700000Y-154940000D02*
X142240000Y-154940000D01*
X144780000Y-162560000D02*
X147320000Y-162560000D01*
X142240000Y-165100000D02*
X144780000Y-165100000D01*
X144780000Y-160020000D02*
X147320000Y-160020000D01*
X144780000Y-157480000D02*
X147320000Y-157480000D01*
X144780000Y-165100000D02*
X147320000Y-165100000D01*
X142240000Y-157480000D02*
X144780000Y-157480000D01*
X142240000Y-162560000D02*
X144780000Y-162560000D01*
X142240000Y-160020000D02*
X144780000Y-160020000D01*
X144780000Y-142240000D02*
X147320000Y-142240000D01*
X144780000Y-139700000D02*
X147320000Y-139700000D01*
X142240000Y-139700000D02*
X144780000Y-139700000D01*
X142240000Y-142240000D02*
X144780000Y-142240000D01*
X142240000Y-137160000D02*
X144780000Y-137160000D01*
X142240000Y-134620000D02*
X144780000Y-134620000D01*
X144780000Y-137160000D02*
X147320000Y-137160000D01*
X144780000Y-132080000D02*
X147320000Y-132080000D01*
X144780000Y-134620000D02*
X147320000Y-134620000D01*
X142240000Y-132080000D02*
X144780000Y-132080000D01*
X137160000Y-132080000D02*
X139700000Y-132080000D01*
X137160000Y-134620000D02*
X139700000Y-134620000D01*
X139700000Y-132080000D02*
X142240000Y-132080000D01*
X139700000Y-134620000D02*
X142240000Y-134620000D01*
X137160000Y-137160000D02*
X139700000Y-137160000D01*
X137160000Y-142240000D02*
X139700000Y-142240000D01*
X139700000Y-142240000D02*
X142240000Y-142240000D01*
X137160000Y-139700000D02*
X139700000Y-139700000D01*
X139700000Y-137160000D02*
X142240000Y-137160000D01*
X139700000Y-139700000D02*
X142240000Y-139700000D01*
X142240000Y-127000000D02*
X144780000Y-127000000D01*
X144780000Y-127000000D02*
X147320000Y-127000000D01*
X142240000Y-129540000D02*
X144780000Y-129540000D01*
X144780000Y-129540000D02*
X147320000Y-129540000D01*
X139700000Y-124460000D02*
X142240000Y-124460000D01*
X137160000Y-124460000D02*
X139700000Y-124460000D01*
X139700000Y-121920000D02*
X142240000Y-121920000D01*
X137160000Y-121920000D02*
X139700000Y-121920000D01*
X139700000Y-127000000D02*
X142240000Y-127000000D01*
X137160000Y-127000000D02*
X139700000Y-127000000D01*
X137160000Y-129540000D02*
X139700000Y-129540000D01*
X139700000Y-129540000D02*
X142240000Y-129540000D01*
X142240000Y-121920000D02*
X144780000Y-121920000D01*
X142240000Y-124460000D02*
X144780000Y-124460000D01*
X144780000Y-124460000D02*
X147320000Y-124460000D01*
X144780000Y-121920000D02*
X147320000Y-121920000D01*
X144780000Y-116840000D02*
X147320000Y-116840000D01*
X142240000Y-119380000D02*
X144780000Y-119380000D01*
X144780000Y-119380000D02*
X147320000Y-119380000D01*
X142240000Y-116840000D02*
X144780000Y-116840000D01*
X137160000Y-119380000D02*
X139700000Y-119380000D01*
X139700000Y-116840000D02*
X142240000Y-116840000D01*
X137160000Y-116840000D02*
X139700000Y-116840000D01*
X139700000Y-119380000D02*
X142240000Y-119380000D01*
X139700000Y-111760000D02*
X142240000Y-111760000D01*
X139700000Y-114300000D02*
X142240000Y-114300000D01*
X137160000Y-114300000D02*
X139700000Y-114300000D01*
X137160000Y-111760000D02*
X139700000Y-111760000D01*
X144780000Y-114300000D02*
X147320000Y-114300000D01*
X144780000Y-111760000D02*
X147320000Y-111760000D01*
X142240000Y-114300000D02*
X144780000Y-114300000D01*
X142240000Y-111760000D02*
X144780000Y-111760000D01*
X139700000Y-91440000D02*
X142240000Y-91440000D01*
X137160000Y-91440000D02*
X139700000Y-91440000D01*
X137160000Y-93980000D02*
X139700000Y-93980000D01*
X139700000Y-93980000D02*
X142240000Y-93980000D01*
X137160000Y-104140000D02*
X139700000Y-104140000D01*
X139700000Y-109220000D02*
X142240000Y-109220000D01*
X139700000Y-104140000D02*
X142240000Y-104140000D01*
X137160000Y-106680000D02*
X139700000Y-106680000D01*
X137160000Y-109220000D02*
X139700000Y-109220000D01*
X139700000Y-106680000D02*
X142240000Y-106680000D01*
X139700000Y-99060000D02*
X142240000Y-99060000D01*
X139700000Y-101600000D02*
X142240000Y-101600000D01*
X137160000Y-96520000D02*
X139700000Y-96520000D01*
X137160000Y-99060000D02*
X139700000Y-99060000D01*
X139700000Y-96520000D02*
X142240000Y-96520000D01*
X137160000Y-101600000D02*
X139700000Y-101600000D01*
X144780000Y-99060000D02*
X147320000Y-99060000D01*
X144780000Y-91440000D02*
X147320000Y-91440000D01*
X142240000Y-91440000D02*
X144780000Y-91440000D01*
X142240000Y-96520000D02*
X144780000Y-96520000D01*
X142240000Y-93980000D02*
X144780000Y-93980000D01*
X142240000Y-99060000D02*
X144780000Y-99060000D01*
X144780000Y-93980000D02*
X147320000Y-93980000D01*
X144780000Y-96520000D02*
X147320000Y-96520000D01*
X142240000Y-104140000D02*
X144780000Y-104140000D01*
X142240000Y-106680000D02*
X144780000Y-106680000D01*
X144780000Y-101600000D02*
X147320000Y-101600000D01*
X142240000Y-101600000D02*
X144780000Y-101600000D01*
X144780000Y-106680000D02*
X147320000Y-106680000D01*
X144780000Y-109220000D02*
X147320000Y-109220000D01*
X142240000Y-109220000D02*
X144780000Y-109220000D01*
X144780000Y-104140000D02*
X147320000Y-104140000D01*
X142240000Y-86360000D02*
X144780000Y-86360000D01*
X144780000Y-86360000D02*
X147320000Y-86360000D01*
X144780000Y-88900000D02*
X147320000Y-88900000D01*
X142240000Y-88900000D02*
X144780000Y-88900000D01*
X139700000Y-88900000D02*
X142240000Y-88900000D01*
X139700000Y-86360000D02*
X142240000Y-86360000D01*
X137160000Y-86360000D02*
X139700000Y-86360000D01*
X137160000Y-88900000D02*
X139700000Y-88900000D01*
X137160000Y-81280000D02*
X139700000Y-81280000D01*
X139700000Y-81280000D02*
X142240000Y-81280000D01*
X139700000Y-83820000D02*
X142240000Y-83820000D01*
X137160000Y-83820000D02*
X139700000Y-83820000D01*
X142240000Y-81280000D02*
X144780000Y-81280000D01*
X144780000Y-81280000D02*
X147320000Y-81280000D01*
X144780000Y-83820000D02*
X147320000Y-83820000D01*
X142240000Y-83820000D02*
X144780000Y-83820000D01*
X142240000Y-78740000D02*
X144780000Y-78740000D01*
X142240000Y-76200000D02*
X144780000Y-76200000D01*
X144780000Y-78740000D02*
X147320000Y-78740000D01*
X142240000Y-73660000D02*
X144780000Y-73660000D01*
X144780000Y-73660000D02*
X147320000Y-73660000D01*
X142240000Y-71120000D02*
X144780000Y-71120000D01*
X144780000Y-76200000D02*
X147320000Y-76200000D01*
X144780000Y-71120000D02*
X147320000Y-71120000D01*
X137160000Y-78740000D02*
X139700000Y-78740000D01*
X137160000Y-76200000D02*
X139700000Y-76200000D01*
X139700000Y-76200000D02*
X142240000Y-76200000D01*
X137160000Y-73660000D02*
X139700000Y-73660000D01*
X139700000Y-78740000D02*
X142240000Y-78740000D01*
X137160000Y-71120000D02*
X139700000Y-71120000D01*
X139700000Y-73660000D02*
X142240000Y-73660000D01*
X139700000Y-71120000D02*
X142240000Y-71120000D01*
X137160000Y-68580000D02*
X139700000Y-68580000D01*
X139700000Y-68580000D02*
X142240000Y-68580000D01*
X139700000Y-66040000D02*
X142240000Y-66040000D01*
X137160000Y-66040000D02*
X139700000Y-66040000D01*
X142240000Y-68580000D02*
X144780000Y-68580000D01*
X142240000Y-66040000D02*
X144780000Y-66040000D01*
X144780000Y-68580000D02*
X147320000Y-68580000D01*
X144780000Y-66040000D02*
X147320000Y-66040000D01*
X144780000Y-63500000D02*
X147320000Y-63500000D01*
X142240000Y-63500000D02*
X144780000Y-63500000D01*
X139700000Y-63500000D02*
X142240000Y-63500000D01*
X137160000Y-63500000D02*
X139700000Y-63500000D01*
X144780000Y-60960000D02*
X147320000Y-60960000D01*
X142240000Y-60960000D02*
X144780000Y-60960000D01*
X139700000Y-60960000D02*
X142240000Y-60960000D01*
X137160000Y-60960000D02*
X139700000Y-60960000D01*
X144780000Y-58420000D02*
X147320000Y-58420000D01*
X142240000Y-58420000D02*
X144780000Y-58420000D01*
X139700000Y-58420000D02*
X142240000Y-58420000D01*
X137160000Y-58420000D02*
X139700000Y-58420000D01*
X144780000Y-55880000D02*
X147320000Y-55880000D01*
X142240000Y-55880000D02*
X144780000Y-55880000D01*
X139700000Y-55880000D02*
X142240000Y-55880000D01*
X137160000Y-55880000D02*
X139700000Y-55880000D01*
X144780000Y-53340000D02*
X147320000Y-53340000D01*
X142240000Y-53340000D02*
X144780000Y-53340000D01*
X139700000Y-53340000D02*
X142240000Y-53340000D01*
X137160000Y-53340000D02*
X139700000Y-53340000D01*
X144780000Y-50800000D02*
X147320000Y-50800000D01*
X142240000Y-50800000D02*
X144780000Y-50800000D01*
X139700000Y-50800000D02*
X142240000Y-50800000D01*
X137160000Y-50800000D02*
X139700000Y-50800000D01*
M02*
